M48
; DRILL file {KiCad 5.1.8-db9833491~88~ubuntu18.04.1} date Sun Nov  7 22:26:48 2021
; FORMAT={-:-/ absolute / inch / decimal}
; #@! TF.CreationDate,2021-11-07T22:26:48+01:00
; #@! TF.GenerationSoftware,Kicad,Pcbnew,5.1.8-db9833491~88~ubuntu18.04.1
; #@! TF.FileFunction,Plated,1,2,PTH
FMAT,2
INCH
T1C0.0157
T2C0.0315
T3C0.0354
T4C0.0394
T5C0.0472
%
G90
G05
T1
X7.8898Y-4.4252
T2
X5.2126Y-5.0157
X5.2126Y-5.1142
X6.0472Y-4.9213
X6.1472Y-4.9213
X5.5827Y-4.9213
X5.6827Y-4.9213
X6.7795Y-3.1102
X6.7795Y-3.2102
X6.7795Y-3.3102
X6.7795Y-3.4102
X7.0795Y-3.1102
X7.0795Y-3.2102
X7.0795Y-3.3102
X7.0795Y-3.4102
X6.2622Y-4.5984
X6.3622Y-4.5984
X6.7559Y-4.9213
X6.8559Y-4.9213
X5.2047Y-4.585
X5.2047Y-4.685
X5.811Y-4.7559
X5.911Y-4.7559
X6.4984Y-4.5984
X6.5984Y-4.5984
X5.8031Y-5.1654
X5.9016Y-5.1654
X5.0236Y-5.1339
X5.0236Y-5.2339
X6.5197Y-5.1181
X6.6181Y-5.1181
X5.9913Y-3.3937
X6.2913Y-3.3937
X6.7559Y-5.1575
X6.8543Y-5.1575
X7.0787Y-2.8213
X7.0787Y-2.9213
X6.0551Y-3.2362
X6.1551Y-3.2362
X5.5614Y-4.5984
X5.6614Y-4.5984
X6.026Y-4.5984
X6.126Y-4.5984
X5.3465Y-5.1811
X5.4449Y-5.1811
X5.3543Y-4.9213
X5.4543Y-4.9213
X4.9764Y-3.2126
X4.9764Y-3.3126
X5.5827Y-4.7559
X5.6827Y-4.7559
X6.2677Y-3.1024
X6.3677Y-3.1024
X6.7346Y-4.5984
X6.8346Y-4.5984
X6.2756Y-5.1575
X6.374Y-5.1575
X6.0472Y-4.7559
X6.1472Y-4.7559
X8.189Y-2.5512
X8.189Y-2.8512
X5.1181Y-3.189
X5.1181Y-3.489
X6.063Y-3.1024
X6.163Y-3.1024
X5.7898Y-4.5984
X5.8898Y-4.5984
X5.3331Y-4.5984
X5.4331Y-4.5984
X6.2598Y-3.2362
X6.3598Y-3.2362
X6.5197Y-4.7559
X6.6197Y-4.7559
X6.7559Y-4.7559
X6.8559Y-4.7559
X6.2835Y-4.9213
X6.3835Y-4.9213
X4.8898Y-5.1339
X4.8898Y-5.2339
X5.0472Y-4.585
X5.0472Y-4.685
X5.5669Y-5.1181
X5.6654Y-5.1181
X5.2756Y-3.1969
X5.2756Y-3.2969
X5.2756Y-3.3969
X5.2756Y-3.4969
X5.5756Y-3.1969
X5.5756Y-3.2969
X5.5756Y-3.3969
X5.5756Y-3.4969
X5.811Y-4.9213
X5.911Y-4.9213
X6.2835Y-4.7559
X6.3835Y-4.7559
X6.522Y-4.9213
X6.622Y-4.9213
X5.7953Y-3.2992
X5.7953Y-3.4961
X5.3567Y-4.7559
X5.4567Y-4.7559
X6.6142Y-3.315
X6.6142Y-3.4134
X6.0315Y-5.1181
X6.1299Y-5.1181
X4.8583Y-4.8819
X5.0551Y-4.8819
T3
X8.3331Y-2.5906
X8.4331Y-2.5906
T4
X7.7228Y-3.0646
X7.7228Y-3.1646
X7.7228Y-3.2646
X7.7228Y-3.3646
X7.7228Y-3.4646
X7.7228Y-3.5646
X7.7228Y-3.6646
X7.7228Y-3.7646
X7.7228Y-3.8646
X7.7228Y-3.9646
X7.7228Y-4.0646
X7.7228Y-4.1646
X7.7228Y-4.2646
X7.7228Y-4.3646
X7.7228Y-4.4646
X8.3228Y-3.0646
X8.3228Y-3.1646
X8.3228Y-3.2646
X8.3228Y-3.3646
X8.3228Y-3.4646
X8.3228Y-3.5646
X8.3228Y-3.6646
X8.3228Y-3.7646
X8.3228Y-3.8646
X8.3228Y-3.9646
X8.3228Y-4.0646
X8.3228Y-4.1646
X8.3228Y-4.2646
X8.3228Y-4.3646
X8.3228Y-4.4646
X7.622Y-2.5457
X7.622Y-2.6457
T5
X6.1067Y-4.0748
X6.1067Y-4.2717
X6.2067Y-4.0748
X6.2067Y-4.2717
X6.3067Y-4.0748
X6.3067Y-4.2717
X6.4067Y-4.0748
X6.4067Y-4.2717
X6.5067Y-4.0748
X6.5067Y-4.2717
X6.6067Y-4.0748
X6.6067Y-4.2717
X6.7067Y-4.0748
X6.7067Y-4.2717
X6.8067Y-4.0748
X6.8067Y-4.2717
X5.635Y-2.6339
X5.635Y-2.8307
X5.735Y-2.6339
X5.735Y-2.8307
X5.0831Y-4.0748
X5.0831Y-4.2717
X5.1831Y-4.0748
X5.1831Y-4.2717
X5.2831Y-4.0748
X5.2831Y-4.2717
X5.3831Y-4.0748
X5.3831Y-4.2717
X5.4831Y-4.0748
X5.4831Y-4.2717
X5.5831Y-4.0748
X5.5831Y-4.2717
X5.6831Y-4.0748
X5.6831Y-4.2717
X5.7831Y-4.0748
X5.7831Y-4.2717
X4.9736Y-2.626
X4.9736Y-2.8228
X5.0736Y-2.626
X5.0736Y-2.8228
T0
M30
