%TF.GenerationSoftware,KiCad,Pcbnew,5.1.8-db9833491~88~ubuntu18.04.1*%
%TF.CreationDate,2020-12-31T00:06:07+01:00*%
%TF.ProjectId,Mqtt32input,4d717474-3332-4696-9e70-75742e6b6963,rev?*%
%TF.SameCoordinates,Original*%
%TF.FileFunction,Paste,Top*%
%TF.FilePolarity,Positive*%
%FSLAX46Y46*%
G04 Gerber Fmt 4.6, Leading zero omitted, Abs format (unit mm)*
G04 Created by KiCad (PCBNEW 5.1.8-db9833491~88~ubuntu18.04.1) date 2020-12-31 00:06:07*
%MOMM*%
%LPD*%
G01*
G04 APERTURE LIST*
%ADD10R,0.930000X1.140000*%
%ADD11R,1.130000X1.140000*%
G04 APERTURE END LIST*
D10*
%TO.C,RN12*%
X118745000Y-84770000D03*
X120015000Y-84770000D03*
D11*
X121385000Y-84770000D03*
X121385000Y-87950000D03*
D10*
X120015000Y-87950000D03*
X118745000Y-87950000D03*
D11*
X117375000Y-87950000D03*
X117375000Y-84770000D03*
%TD*%
D10*
%TO.C,RN11*%
X107950000Y-84770000D03*
X109220000Y-84770000D03*
D11*
X110590000Y-84770000D03*
X110590000Y-87950000D03*
D10*
X109220000Y-87950000D03*
X107950000Y-87950000D03*
D11*
X106580000Y-87950000D03*
X106580000Y-84770000D03*
%TD*%
D10*
%TO.C,RN9*%
X151765000Y-84770000D03*
X153035000Y-84770000D03*
D11*
X154405000Y-84770000D03*
X154405000Y-87950000D03*
D10*
X153035000Y-87950000D03*
X151765000Y-87950000D03*
D11*
X150395000Y-87950000D03*
X150395000Y-84770000D03*
%TD*%
D10*
%TO.C,RN8*%
X140970000Y-84770000D03*
X142240000Y-84770000D03*
D11*
X143610000Y-84770000D03*
X143610000Y-87950000D03*
D10*
X142240000Y-87950000D03*
X140970000Y-87950000D03*
D11*
X139600000Y-87950000D03*
X139600000Y-84770000D03*
%TD*%
D10*
%TO.C,RN6*%
X157480000Y-42865000D03*
X156210000Y-42865000D03*
D11*
X154840000Y-42865000D03*
X154840000Y-39685000D03*
D10*
X156210000Y-39685000D03*
X157480000Y-39685000D03*
D11*
X158850000Y-39685000D03*
X158850000Y-42865000D03*
%TD*%
D10*
%TO.C,RN5*%
X166370000Y-42865000D03*
X165100000Y-42865000D03*
D11*
X163730000Y-42865000D03*
X163730000Y-39685000D03*
D10*
X165100000Y-39685000D03*
X166370000Y-39685000D03*
D11*
X167740000Y-39685000D03*
X167740000Y-42865000D03*
%TD*%
D10*
%TO.C,RN3*%
X109220000Y-42865000D03*
X107950000Y-42865000D03*
D11*
X106580000Y-42865000D03*
X106580000Y-39685000D03*
D10*
X107950000Y-39685000D03*
X109220000Y-39685000D03*
D11*
X110590000Y-39685000D03*
X110590000Y-42865000D03*
%TD*%
D10*
%TO.C,RN2*%
X120015000Y-42865000D03*
X118745000Y-42865000D03*
D11*
X117375000Y-42865000D03*
X117375000Y-39685000D03*
D10*
X118745000Y-39685000D03*
X120015000Y-39685000D03*
D11*
X121385000Y-39685000D03*
X121385000Y-42865000D03*
%TD*%
M02*
