%TF.GenerationSoftware,KiCad,Pcbnew,5.1.8-db9833491~88~ubuntu18.04.1*%
%TF.CreationDate,2021-01-18T16:59:19+01:00*%
%TF.ProjectId,Mqtt32input,4d717474-3332-4696-9e70-75742e6b6963,rev?*%
%TF.SameCoordinates,Original*%
%TF.FileFunction,Soldermask,Bot*%
%TF.FilePolarity,Negative*%
%FSLAX46Y46*%
G04 Gerber Fmt 4.6, Leading zero omitted, Abs format (unit mm)*
G04 Created by KiCad (PCBNEW 5.1.8-db9833491~88~ubuntu18.04.1) date 2021-01-18 16:59:19*
%MOMM*%
%LPD*%
G01*
G04 APERTURE LIST*
%ADD10O,1.600000X1.600000*%
%ADD11C,1.600000*%
%ADD12O,1.700000X1.700000*%
%ADD13R,1.700000X1.700000*%
%ADD14O,1.800000X3.600000*%
%ADD15R,1.600000X1.600000*%
%ADD16R,1.800000X1.800000*%
%ADD17C,1.800000*%
G04 APERTURE END LIST*
D10*
%TO.C,RIN32*%
X125800000Y-85460000D03*
D11*
X125800000Y-88000000D03*
%TD*%
D10*
%TO.C,RIN31*%
X122800000Y-85460000D03*
D11*
X122800000Y-88000000D03*
%TD*%
D10*
%TO.C,RIN30*%
X119800000Y-85460000D03*
D11*
X119800000Y-88000000D03*
%TD*%
D10*
%TO.C,RIN29*%
X116800000Y-85460000D03*
D11*
X116800000Y-88000000D03*
%TD*%
D10*
%TO.C,RIN28*%
X113800000Y-85460000D03*
D11*
X113800000Y-88000000D03*
%TD*%
D10*
%TO.C,RIN27*%
X110800000Y-85460000D03*
D11*
X110800000Y-88000000D03*
%TD*%
D10*
%TO.C,RIN26*%
X107800000Y-85460000D03*
D11*
X107800000Y-88000000D03*
%TD*%
D10*
%TO.C,RIN25*%
X104800000Y-85460000D03*
D11*
X104800000Y-88000000D03*
%TD*%
D10*
%TO.C,RIN24*%
X177000000Y-85660000D03*
D11*
X177000000Y-88200000D03*
%TD*%
D10*
%TO.C,RIN23*%
X174000000Y-85660000D03*
D11*
X174000000Y-88200000D03*
%TD*%
D10*
%TO.C,RIN22*%
X171000000Y-85660000D03*
D11*
X171000000Y-88200000D03*
%TD*%
D10*
%TO.C,RIN21*%
X168000000Y-85660000D03*
D11*
X168000000Y-88200000D03*
%TD*%
D10*
%TO.C,RIN20*%
X165000000Y-85660000D03*
D11*
X165000000Y-88200000D03*
%TD*%
D10*
%TO.C,RIN19*%
X162000000Y-85660000D03*
D11*
X162000000Y-88200000D03*
%TD*%
D10*
%TO.C,RIN18*%
X159000000Y-85660000D03*
D11*
X159000000Y-88200000D03*
%TD*%
D10*
%TO.C,RIN17*%
X156000000Y-85660000D03*
D11*
X156000000Y-88200000D03*
%TD*%
D10*
%TO.C,RIN16*%
X157400000Y-41540000D03*
D11*
X157400000Y-39000000D03*
%TD*%
D10*
%TO.C,RIN15*%
X160400000Y-41540000D03*
D11*
X160400000Y-39000000D03*
%TD*%
D10*
%TO.C,RIN14*%
X163400000Y-41540000D03*
D11*
X163400000Y-39000000D03*
%TD*%
D10*
%TO.C,RIN13*%
X166400000Y-41540000D03*
D11*
X166400000Y-39000000D03*
%TD*%
D10*
%TO.C,RIN12*%
X169400000Y-41540000D03*
D11*
X169400000Y-39000000D03*
%TD*%
D10*
%TO.C,RIN11*%
X172400000Y-41540000D03*
D11*
X172400000Y-39000000D03*
%TD*%
D10*
%TO.C,RIN10*%
X175400000Y-41540000D03*
D11*
X175400000Y-39000000D03*
%TD*%
D10*
%TO.C,RIN9*%
X178400000Y-41540000D03*
D11*
X178400000Y-39000000D03*
%TD*%
D10*
%TO.C,RIN8*%
X104800000Y-42140000D03*
D11*
X104800000Y-39600000D03*
%TD*%
D10*
%TO.C,RIN7*%
X107800000Y-42140000D03*
D11*
X107800000Y-39600000D03*
%TD*%
D10*
%TO.C,RIN6*%
X110800000Y-42140000D03*
D11*
X110800000Y-39600000D03*
%TD*%
D10*
%TO.C,RIN5*%
X113800000Y-42140000D03*
D11*
X113800000Y-39600000D03*
%TD*%
D10*
%TO.C,RIN4*%
X116800000Y-42140000D03*
D11*
X116800000Y-39600000D03*
%TD*%
D10*
%TO.C,RIN3*%
X119800000Y-42140000D03*
D11*
X119800000Y-39600000D03*
%TD*%
D10*
%TO.C,RIN2*%
X122800000Y-42140000D03*
D11*
X122800000Y-39600000D03*
%TD*%
D10*
%TO.C,RIN1*%
X125800000Y-42140000D03*
D11*
X125800000Y-39600000D03*
%TD*%
D12*
%TO.C,J8*%
X163830000Y-63500000D03*
X163830000Y-66040000D03*
D13*
X163830000Y-68580000D03*
%TD*%
D12*
%TO.C,J7*%
X163830000Y-53975000D03*
X163830000Y-51435000D03*
D13*
X163830000Y-48895000D03*
%TD*%
D14*
%TO.C,J4*%
X177165000Y-34250000D03*
X177165000Y-29250000D03*
X174625000Y-34250000D03*
X174625000Y-29250000D03*
X172085000Y-34250000D03*
X172085000Y-29250000D03*
X169545000Y-34250000D03*
X169545000Y-29250000D03*
X167005000Y-34250000D03*
X167005000Y-29250000D03*
X164465000Y-34250000D03*
X164465000Y-29250000D03*
X161925000Y-34250000D03*
X161925000Y-29250000D03*
X159385000Y-34250000D03*
X159385000Y-29250000D03*
%TD*%
D10*
%TO.C,U3*%
X130810000Y-71755000D03*
X148590000Y-79375000D03*
X133350000Y-71755000D03*
X146050000Y-79375000D03*
X135890000Y-71755000D03*
X143510000Y-79375000D03*
X138430000Y-71755000D03*
X140970000Y-79375000D03*
X140970000Y-71755000D03*
X138430000Y-79375000D03*
X143510000Y-71755000D03*
X135890000Y-79375000D03*
X146050000Y-71755000D03*
X133350000Y-79375000D03*
X148590000Y-71755000D03*
D15*
X130810000Y-79375000D03*
%TD*%
D10*
%TO.C,U1*%
X123190000Y-54610000D03*
X105410000Y-46990000D03*
X120650000Y-54610000D03*
X107950000Y-46990000D03*
X118110000Y-54610000D03*
X110490000Y-46990000D03*
X115570000Y-54610000D03*
X113030000Y-46990000D03*
X113030000Y-54610000D03*
X115570000Y-46990000D03*
X110490000Y-54610000D03*
X118110000Y-46990000D03*
X107950000Y-54610000D03*
X120650000Y-46990000D03*
X105410000Y-54610000D03*
D15*
X123190000Y-46990000D03*
%TD*%
D10*
%TO.C,SW2*%
X161925000Y-75565000D03*
X154305000Y-78105000D03*
X161925000Y-78105000D03*
D15*
X154305000Y-75565000D03*
%TD*%
D10*
%TO.C,RN10*%
X125730000Y-64770000D03*
X123190000Y-64770000D03*
X120650000Y-64770000D03*
X118110000Y-64770000D03*
X115570000Y-64770000D03*
X113030000Y-64770000D03*
X110490000Y-64770000D03*
X107950000Y-64770000D03*
D15*
X105410000Y-64770000D03*
%TD*%
D10*
%TO.C,RN7*%
X149860000Y-64770000D03*
X147320000Y-64770000D03*
X144780000Y-64770000D03*
X142240000Y-64770000D03*
X139700000Y-64770000D03*
X137160000Y-64770000D03*
X134620000Y-64770000D03*
X132080000Y-64770000D03*
D15*
X129540000Y-64770000D03*
%TD*%
D10*
%TO.C,RN4*%
X129540000Y-60960000D03*
X132080000Y-60960000D03*
X134620000Y-60960000D03*
X137160000Y-60960000D03*
X139700000Y-60960000D03*
X142240000Y-60960000D03*
X144780000Y-60960000D03*
X147320000Y-60960000D03*
D15*
X149860000Y-60960000D03*
%TD*%
D10*
%TO.C,RN1*%
X105410000Y-60960000D03*
X107950000Y-60960000D03*
X110490000Y-60960000D03*
X113030000Y-60960000D03*
X115570000Y-60960000D03*
X118110000Y-60960000D03*
X120650000Y-60960000D03*
X123190000Y-60960000D03*
D15*
X125730000Y-60960000D03*
%TD*%
D10*
%TO.C,R11*%
X156845000Y-56515000D03*
D11*
X154305000Y-56515000D03*
%TD*%
D10*
%TO.C,R10*%
X156845000Y-66040000D03*
D11*
X154305000Y-66040000D03*
%TD*%
D10*
%TO.C,R9*%
X156845000Y-62865000D03*
D11*
X154305000Y-62865000D03*
%TD*%
D10*
%TO.C,R8*%
X156845000Y-59690000D03*
D11*
X154305000Y-59690000D03*
%TD*%
D12*
%TO.C,J10*%
X172085000Y-70485000D03*
X172085000Y-67945000D03*
X172085000Y-65405000D03*
D13*
X172085000Y-62865000D03*
%TD*%
D14*
%TO.C,J9*%
X123825000Y-97750000D03*
X123825000Y-92750000D03*
X121285000Y-97750000D03*
X121285000Y-92750000D03*
X118745000Y-97750000D03*
X118745000Y-92750000D03*
X116205000Y-97750000D03*
X116205000Y-92750000D03*
X113665000Y-97750000D03*
X113665000Y-92750000D03*
X111125000Y-97750000D03*
X111125000Y-92750000D03*
X108585000Y-97750000D03*
X108585000Y-92750000D03*
X106045000Y-97750000D03*
X106045000Y-92750000D03*
%TD*%
D12*
%TO.C,J6*%
X172085000Y-55245000D03*
X172085000Y-52705000D03*
X172085000Y-50165000D03*
D13*
X172085000Y-47625000D03*
%TD*%
D14*
%TO.C,J5*%
X175260000Y-97750000D03*
X175260000Y-92750000D03*
X172720000Y-97750000D03*
X172720000Y-92750000D03*
X170180000Y-97750000D03*
X170180000Y-92750000D03*
X167640000Y-97750000D03*
X167640000Y-92750000D03*
X165100000Y-97750000D03*
X165100000Y-92750000D03*
X162560000Y-97750000D03*
X162560000Y-92750000D03*
X160020000Y-97750000D03*
X160020000Y-92750000D03*
X157480000Y-97750000D03*
X157480000Y-92750000D03*
%TD*%
D12*
%TO.C,J3*%
X189230000Y-28575000D03*
D13*
X189230000Y-26035000D03*
%TD*%
D12*
%TO.C,J2*%
X184785000Y-28575000D03*
D13*
X184785000Y-26035000D03*
%TD*%
D15*
%TO.C,A1*%
X197485000Y-74930000D03*
D10*
X182245000Y-41910000D03*
X197485000Y-72390000D03*
X182245000Y-44450000D03*
X197485000Y-69850000D03*
X182245000Y-46990000D03*
X197485000Y-67310000D03*
X182245000Y-49530000D03*
X197485000Y-64770000D03*
X182245000Y-52070000D03*
X197485000Y-62230000D03*
X182245000Y-54610000D03*
X197485000Y-59690000D03*
X182245000Y-57150000D03*
X197485000Y-57150000D03*
X182245000Y-59690000D03*
X197485000Y-54610000D03*
X182245000Y-62230000D03*
X197485000Y-52070000D03*
X182245000Y-64770000D03*
X197485000Y-49530000D03*
X182245000Y-67310000D03*
X197485000Y-46990000D03*
X182245000Y-69850000D03*
X197485000Y-44450000D03*
X182245000Y-72390000D03*
X197485000Y-41910000D03*
X182245000Y-74930000D03*
X197485000Y-39370000D03*
X182245000Y-39370000D03*
%TD*%
%TO.C,R1*%
X156345000Y-52315000D03*
D11*
X153805000Y-52315000D03*
%TD*%
%TO.C,R2*%
X153805000Y-49140000D03*
D10*
X156345000Y-49140000D03*
%TD*%
D11*
%TO.C,R3*%
X153805000Y-45965000D03*
D10*
X156345000Y-45965000D03*
%TD*%
D15*
%TO.C,U2*%
X149225000Y-46990000D03*
D10*
X131445000Y-54610000D03*
X146685000Y-46990000D03*
X133985000Y-54610000D03*
X144145000Y-46990000D03*
X136525000Y-54610000D03*
X141605000Y-46990000D03*
X139065000Y-54610000D03*
X139065000Y-46990000D03*
X141605000Y-54610000D03*
X136525000Y-46990000D03*
X144145000Y-54610000D03*
X133985000Y-46990000D03*
X146685000Y-54610000D03*
X131445000Y-46990000D03*
X149225000Y-54610000D03*
%TD*%
%TO.C,U4*%
X106045000Y-71755000D03*
X123825000Y-79375000D03*
X108585000Y-71755000D03*
X121285000Y-79375000D03*
X111125000Y-71755000D03*
X118745000Y-79375000D03*
X113665000Y-71755000D03*
X116205000Y-79375000D03*
X116205000Y-71755000D03*
X113665000Y-79375000D03*
X118745000Y-71755000D03*
X111125000Y-79375000D03*
X121285000Y-71755000D03*
X108585000Y-79375000D03*
X123825000Y-71755000D03*
D15*
X106045000Y-79375000D03*
%TD*%
D11*
%TO.C,R4*%
X131445000Y-92710000D03*
D10*
X133985000Y-92710000D03*
%TD*%
%TO.C,R5*%
X133985000Y-95885000D03*
D11*
X131445000Y-95885000D03*
%TD*%
%TO.C,R6*%
X131445000Y-99060000D03*
D10*
X133985000Y-99060000D03*
%TD*%
D15*
%TO.C,SW1*%
X137160000Y-94615000D03*
D10*
X144780000Y-97155000D03*
X137160000Y-97155000D03*
X144780000Y-94615000D03*
%TD*%
D16*
%TO.C,D1*%
X194945000Y-26035000D03*
D17*
X197485000Y-26035000D03*
%TD*%
D14*
%TO.C,J1*%
X107910000Y-29500000D03*
X107910000Y-34500000D03*
X110450000Y-29500000D03*
X110450000Y-34500000D03*
X112990000Y-29500000D03*
X112990000Y-34500000D03*
X115530000Y-29500000D03*
X115530000Y-34500000D03*
X118070000Y-29500000D03*
X118070000Y-34500000D03*
X120610000Y-29500000D03*
X120610000Y-34500000D03*
X123150000Y-29500000D03*
X123150000Y-34500000D03*
X125690000Y-29500000D03*
X125690000Y-34500000D03*
%TD*%
D11*
%TO.C,R7*%
X191770000Y-39370000D03*
D10*
X191770000Y-46990000D03*
%TD*%
D14*
%TO.C,X1*%
X140970000Y-34250000D03*
X140970000Y-29250000D03*
X138430000Y-34250000D03*
X138430000Y-29250000D03*
%TD*%
M02*
