M48
; DRILL file {KiCad 5.1.8-db9833491~88~ubuntu18.04.1} date Mon Jan 18 16:59:22 2021
; FORMAT={-:-/ absolute / inch / decimal}
; #@! TF.CreationDate,2021-01-18T16:59:22+01:00
; #@! TF.GenerationSoftware,Kicad,Pcbnew,5.1.8-db9833491~88~ubuntu18.04.1
; #@! TF.FileFunction,Plated,1,2,PTH
FMAT,2
INCH
T1C0.0157
T2C0.0315
T3C0.0354
T4C0.0394
T5C0.0472
%
G90
G05
T1
X4.4424Y-3.2578
X4.9833Y-2.3434
X5.7576Y-2.452
T2
X5.15Y-2.825
X5.15Y-3.125
X5.25Y-2.825
X5.25Y-3.125
X5.35Y-2.825
X5.35Y-3.125
X5.45Y-2.825
X5.45Y-3.125
X5.55Y-2.825
X5.55Y-3.125
X5.65Y-2.825
X5.65Y-3.125
X5.75Y-2.825
X5.75Y-3.125
X5.85Y-2.825
X5.85Y-3.125
X5.1Y-2.55
X5.2Y-2.55
X5.3Y-2.55
X5.4Y-2.55
X5.5Y-2.55
X5.6Y-2.55
X5.7Y-2.55
X5.8Y-2.55
X5.9Y-2.55
X4.175Y-2.825
X4.175Y-3.125
X4.275Y-2.825
X4.275Y-3.125
X4.375Y-2.825
X4.375Y-3.125
X4.475Y-2.825
X4.475Y-3.125
X4.575Y-2.825
X4.575Y-3.125
X4.675Y-2.825
X4.675Y-3.125
X4.775Y-2.825
X4.775Y-3.125
X4.875Y-2.825
X4.875Y-3.125
X5.175Y-3.65
X5.275Y-3.65
X6.378Y-3.3724
X6.378Y-3.4724
X4.3622Y-1.5591
X4.3622Y-1.6591
X6.7323Y-3.3724
X6.7323Y-3.4724
X4.15Y-2.55
X4.25Y-2.55
X4.35Y-2.55
X4.45Y-2.55
X4.55Y-2.55
X4.65Y-2.55
X4.75Y-2.55
X4.85Y-2.55
X4.95Y-2.55
X6.6693Y-1.5354
X6.6693Y-1.6354
X4.9528Y-1.5591
X4.9528Y-1.6591
X4.2441Y-1.5591
X4.2441Y-1.6591
X6.5512Y-1.5354
X6.5512Y-1.6354
X6.315Y-1.5354
X6.315Y-1.6354
X4.126Y-1.5591
X4.126Y-1.6591
X6.075Y-2.225
X6.175Y-2.225
X4.3622Y-3.3646
X4.3622Y-3.4646
X4.126Y-3.3646
X4.126Y-3.4646
X6.4961Y-3.3724
X6.4961Y-3.4724
X6.0553Y-1.9346
X6.1553Y-1.9346
X4.15Y-2.4
X4.25Y-2.4
X4.35Y-2.4
X4.45Y-2.4
X4.55Y-2.4
X4.65Y-2.4
X4.75Y-2.4
X4.85Y-2.4
X4.95Y-2.4
X5.175Y-1.85
X5.175Y-2.15
X5.275Y-1.85
X5.275Y-2.15
X5.375Y-1.85
X5.375Y-2.15
X5.475Y-1.85
X5.475Y-2.15
X5.575Y-1.85
X5.575Y-2.15
X5.675Y-1.85
X5.675Y-2.15
X5.775Y-1.85
X5.775Y-2.15
X5.875Y-1.85
X5.875Y-2.15
X6.7874Y-1.5354
X6.7874Y-1.6354
X6.1969Y-1.5354
X6.1969Y-1.6354
X6.075Y-2.6
X6.175Y-2.6
X6.075Y-2.35
X6.175Y-2.35
X6.0553Y-2.0596
X6.1553Y-2.0596
X6.0553Y-1.8096
X6.1553Y-1.8096
X5.175Y-3.775
X5.275Y-3.775
X6.4331Y-1.5354
X6.4331Y-1.6354
X6.075Y-2.475
X6.175Y-2.475
X4.8346Y-1.5591
X4.8346Y-1.6591
X7.55Y-1.55
X7.55Y-1.85
X5.4Y-3.725
X5.4Y-3.825
X5.7Y-3.725
X5.7Y-3.825
X6.8504Y-3.3724
X6.8504Y-3.4724
X5.175Y-3.9
X5.275Y-3.9
X4.5984Y-1.5591
X4.5984Y-1.6591
X4.2441Y-3.3646
X4.2441Y-3.4646
X4.9528Y-3.3646
X4.9528Y-3.4646
X4.8346Y-3.3646
X4.8346Y-3.4646
X4.4803Y-3.3646
X4.4803Y-3.4646
X6.6142Y-3.3724
X6.6142Y-3.4724
X5.1Y-2.4
X5.2Y-2.4
X5.3Y-2.4
X5.4Y-2.4
X5.5Y-2.4
X5.6Y-2.4
X5.7Y-2.4
X5.8Y-2.4
X5.9Y-2.4
X4.4803Y-1.5591
X4.4803Y-1.6591
X6.075Y-2.975
X6.075Y-3.075
X6.375Y-2.975
X6.375Y-3.075
X6.9055Y-1.5354
X6.9055Y-1.6354
X4.7165Y-1.5591
X4.7165Y-1.6591
X4.7165Y-3.3646
X4.7165Y-3.4646
X6.2598Y-3.3724
X6.2598Y-3.4724
X6.9685Y-3.3724
X6.9685Y-3.4724
X4.15Y-1.85
X4.15Y-2.15
X4.25Y-1.85
X4.25Y-2.15
X4.35Y-1.85
X4.35Y-2.15
X4.45Y-1.85
X4.45Y-2.15
X4.55Y-1.85
X4.55Y-2.15
X4.65Y-1.85
X4.65Y-2.15
X4.75Y-1.85
X4.75Y-2.15
X4.85Y-1.85
X4.85Y-2.15
X4.5984Y-3.3646
X4.5984Y-3.4646
X7.0236Y-1.5354
X7.0236Y-1.6354
X6.1417Y-3.3724
X6.1417Y-3.4724
T3
X7.675Y-1.025
X7.775Y-1.025
T4
X6.45Y-1.925
X6.45Y-2.025
X6.45Y-2.125
X7.175Y-1.55
X7.175Y-1.65
X7.175Y-1.75
X7.175Y-1.85
X7.175Y-1.95
X7.175Y-2.05
X7.175Y-2.15
X7.175Y-2.25
X7.175Y-2.35
X7.175Y-2.45
X7.175Y-2.55
X7.175Y-2.65
X7.175Y-2.75
X7.175Y-2.85
X7.175Y-2.95
X7.775Y-1.55
X7.775Y-1.65
X7.775Y-1.75
X7.775Y-1.85
X7.775Y-1.95
X7.775Y-2.05
X7.775Y-2.15
X7.775Y-2.25
X7.775Y-2.35
X7.775Y-2.45
X7.775Y-2.55
X7.775Y-2.65
X7.775Y-2.75
X7.775Y-2.85
X7.775Y-2.95
X6.45Y-2.5
X6.45Y-2.6
X6.45Y-2.7
X6.775Y-1.875
X6.775Y-1.975
X6.775Y-2.075
X6.775Y-2.175
X7.45Y-1.025
X7.45Y-1.125
X6.775Y-2.475
X6.775Y-2.575
X6.775Y-2.675
X6.775Y-2.775
X7.275Y-1.025
X7.275Y-1.125
T5
X5.45Y-1.1516
X5.45Y-1.3484
X5.55Y-1.1516
X5.55Y-1.3484
X4.2484Y-1.1614
X4.2484Y-1.3583
X4.3484Y-1.1614
X4.3484Y-1.3583
X4.4484Y-1.1614
X4.4484Y-1.3583
X4.5484Y-1.1614
X4.5484Y-1.3583
X4.6484Y-1.1614
X4.6484Y-1.3583
X4.7484Y-1.1614
X4.7484Y-1.3583
X4.8484Y-1.1614
X4.8484Y-1.3583
X4.9484Y-1.1614
X4.9484Y-1.3583
X6.2Y-3.6516
X6.2Y-3.8484
X6.3Y-3.6516
X6.3Y-3.8484
X6.4Y-3.6516
X6.4Y-3.8484
X6.5Y-3.6516
X6.5Y-3.8484
X6.6Y-3.6516
X6.6Y-3.8484
X6.7Y-3.6516
X6.7Y-3.8484
X6.8Y-3.6516
X6.8Y-3.8484
X6.9Y-3.6516
X6.9Y-3.8484
X6.275Y-1.1516
X6.275Y-1.3484
X6.375Y-1.1516
X6.375Y-1.3484
X6.475Y-1.1516
X6.475Y-1.3484
X6.575Y-1.1516
X6.575Y-1.3484
X6.675Y-1.1516
X6.675Y-1.3484
X6.775Y-1.1516
X6.775Y-1.3484
X6.875Y-1.1516
X6.875Y-1.3484
X6.975Y-1.1516
X6.975Y-1.3484
X4.175Y-3.6516
X4.175Y-3.8484
X4.275Y-3.6516
X4.275Y-3.8484
X4.375Y-3.6516
X4.375Y-3.8484
X4.475Y-3.6516
X4.475Y-3.8484
X4.575Y-3.6516
X4.575Y-3.8484
X4.675Y-3.6516
X4.675Y-3.8484
X4.775Y-3.6516
X4.775Y-3.8484
X4.875Y-3.6516
X4.875Y-3.8484
T0
M30
