%TF.GenerationSoftware,KiCad,Pcbnew,5.1.8-db9833491~87~ubuntu18.04.1*%
%TF.CreationDate,2020-11-25T14:18:46+01:00*%
%TF.ProjectId,Mqtt32input,4d717474-3332-4696-9e70-75742e6b6963,rev?*%
%TF.SameCoordinates,Original*%
%TF.FileFunction,Soldermask,Bot*%
%TF.FilePolarity,Negative*%
%FSLAX46Y46*%
G04 Gerber Fmt 4.6, Leading zero omitted, Abs format (unit mm)*
G04 Created by KiCad (PCBNEW 5.1.8-db9833491~87~ubuntu18.04.1) date 2020-11-25 14:18:46*
%MOMM*%
%LPD*%
G01*
G04 APERTURE LIST*
%ADD10O,1.700000X1.700000*%
%ADD11R,1.700000X1.700000*%
%ADD12O,1.800000X3.600000*%
%ADD13O,1.600000X1.600000*%
%ADD14R,1.600000X1.600000*%
%ADD15C,1.600000*%
%ADD16R,1.800000X1.800000*%
%ADD17C,1.800000*%
G04 APERTURE END LIST*
D10*
%TO.C,J8*%
X167640000Y-63500000D03*
X167640000Y-66040000D03*
D11*
X167640000Y-68580000D03*
%TD*%
D10*
%TO.C,J7*%
X167640000Y-53975000D03*
X167640000Y-51435000D03*
D11*
X167640000Y-48895000D03*
%TD*%
D12*
%TO.C,J4*%
X176530000Y-34250000D03*
X176530000Y-29250000D03*
X173990000Y-34250000D03*
X173990000Y-29250000D03*
X171450000Y-34250000D03*
X171450000Y-29250000D03*
X168910000Y-34250000D03*
X168910000Y-29250000D03*
X166370000Y-34250000D03*
X166370000Y-29250000D03*
X163830000Y-34250000D03*
X163830000Y-29250000D03*
X161290000Y-34250000D03*
X161290000Y-29250000D03*
X158750000Y-34250000D03*
X158750000Y-29250000D03*
%TD*%
D13*
%TO.C,U3*%
X133350000Y-71755000D03*
X151130000Y-79375000D03*
X135890000Y-71755000D03*
X148590000Y-79375000D03*
X138430000Y-71755000D03*
X146050000Y-79375000D03*
X140970000Y-71755000D03*
X143510000Y-79375000D03*
X143510000Y-71755000D03*
X140970000Y-79375000D03*
X146050000Y-71755000D03*
X138430000Y-79375000D03*
X148590000Y-71755000D03*
X135890000Y-79375000D03*
X151130000Y-71755000D03*
D14*
X133350000Y-79375000D03*
%TD*%
D13*
%TO.C,U1*%
X125730000Y-54610000D03*
X107950000Y-46990000D03*
X123190000Y-54610000D03*
X110490000Y-46990000D03*
X120650000Y-54610000D03*
X113030000Y-46990000D03*
X118110000Y-54610000D03*
X115570000Y-46990000D03*
X115570000Y-54610000D03*
X118110000Y-46990000D03*
X113030000Y-54610000D03*
X120650000Y-46990000D03*
X110490000Y-54610000D03*
X123190000Y-46990000D03*
X107950000Y-54610000D03*
D14*
X125730000Y-46990000D03*
%TD*%
D13*
%TO.C,SW2*%
X163830000Y-75565000D03*
X156210000Y-78105000D03*
X163830000Y-78105000D03*
D14*
X156210000Y-75565000D03*
%TD*%
D13*
%TO.C,RN10*%
X128270000Y-66040000D03*
X125730000Y-66040000D03*
X123190000Y-66040000D03*
X120650000Y-66040000D03*
X118110000Y-66040000D03*
X115570000Y-66040000D03*
X113030000Y-66040000D03*
X110490000Y-66040000D03*
D14*
X107950000Y-66040000D03*
%TD*%
D13*
%TO.C,RN7*%
X153670000Y-66040000D03*
X151130000Y-66040000D03*
X148590000Y-66040000D03*
X146050000Y-66040000D03*
X143510000Y-66040000D03*
X140970000Y-66040000D03*
X138430000Y-66040000D03*
X135890000Y-66040000D03*
D14*
X133350000Y-66040000D03*
%TD*%
D13*
%TO.C,RN4*%
X133350000Y-60325000D03*
X135890000Y-60325000D03*
X138430000Y-60325000D03*
X140970000Y-60325000D03*
X143510000Y-60325000D03*
X146050000Y-60325000D03*
X148590000Y-60325000D03*
X151130000Y-60325000D03*
D14*
X153670000Y-60325000D03*
%TD*%
D13*
%TO.C,RN1*%
X107950000Y-60325000D03*
X110490000Y-60325000D03*
X113030000Y-60325000D03*
X115570000Y-60325000D03*
X118110000Y-60325000D03*
X120650000Y-60325000D03*
X123190000Y-60325000D03*
X125730000Y-60325000D03*
D14*
X128270000Y-60325000D03*
%TD*%
D13*
%TO.C,R11*%
X160020000Y-56515000D03*
D15*
X157480000Y-56515000D03*
%TD*%
D13*
%TO.C,R10*%
X160020000Y-66040000D03*
D15*
X157480000Y-66040000D03*
%TD*%
D13*
%TO.C,R9*%
X160020000Y-62865000D03*
D15*
X157480000Y-62865000D03*
%TD*%
D13*
%TO.C,R8*%
X160020000Y-59690000D03*
D15*
X157480000Y-59690000D03*
%TD*%
D10*
%TO.C,J10*%
X172085000Y-70485000D03*
X172085000Y-67945000D03*
X172085000Y-65405000D03*
D11*
X172085000Y-62865000D03*
%TD*%
D12*
%TO.C,J9*%
X124460000Y-97750000D03*
X124460000Y-92750000D03*
X121920000Y-97750000D03*
X121920000Y-92750000D03*
X119380000Y-97750000D03*
X119380000Y-92750000D03*
X116840000Y-97750000D03*
X116840000Y-92750000D03*
X114300000Y-97750000D03*
X114300000Y-92750000D03*
X111760000Y-97750000D03*
X111760000Y-92750000D03*
X109220000Y-97750000D03*
X109220000Y-92750000D03*
X106680000Y-97750000D03*
X106680000Y-92750000D03*
%TD*%
D10*
%TO.C,J6*%
X172085000Y-55245000D03*
X172085000Y-52705000D03*
X172085000Y-50165000D03*
D11*
X172085000Y-47625000D03*
%TD*%
D12*
%TO.C,J5*%
X175895000Y-97750000D03*
X175895000Y-92750000D03*
X173355000Y-97750000D03*
X173355000Y-92750000D03*
X170815000Y-97750000D03*
X170815000Y-92750000D03*
X168275000Y-97750000D03*
X168275000Y-92750000D03*
X165735000Y-97750000D03*
X165735000Y-92750000D03*
X163195000Y-97750000D03*
X163195000Y-92750000D03*
X160655000Y-97750000D03*
X160655000Y-92750000D03*
X158115000Y-97750000D03*
X158115000Y-92750000D03*
%TD*%
D10*
%TO.C,J3*%
X189230000Y-28575000D03*
D11*
X189230000Y-26035000D03*
%TD*%
D10*
%TO.C,J2*%
X184785000Y-28575000D03*
D11*
X184785000Y-26035000D03*
%TD*%
D14*
%TO.C,A1*%
X197485000Y-74930000D03*
D13*
X182245000Y-41910000D03*
X197485000Y-72390000D03*
X182245000Y-44450000D03*
X197485000Y-69850000D03*
X182245000Y-46990000D03*
X197485000Y-67310000D03*
X182245000Y-49530000D03*
X197485000Y-64770000D03*
X182245000Y-52070000D03*
X197485000Y-62230000D03*
X182245000Y-54610000D03*
X197485000Y-59690000D03*
X182245000Y-57150000D03*
X197485000Y-57150000D03*
X182245000Y-59690000D03*
X197485000Y-54610000D03*
X182245000Y-62230000D03*
X197485000Y-52070000D03*
X182245000Y-64770000D03*
X197485000Y-49530000D03*
X182245000Y-67310000D03*
X197485000Y-46990000D03*
X182245000Y-69850000D03*
X197485000Y-44450000D03*
X182245000Y-72390000D03*
X197485000Y-41910000D03*
X182245000Y-74930000D03*
X197485000Y-39370000D03*
X182245000Y-39370000D03*
%TD*%
%TO.C,R1*%
X172085000Y-41275000D03*
D15*
X172085000Y-38735000D03*
%TD*%
%TO.C,R2*%
X175260000Y-38735000D03*
D13*
X175260000Y-41275000D03*
%TD*%
D15*
%TO.C,R3*%
X178435000Y-38735000D03*
D13*
X178435000Y-41275000D03*
%TD*%
D14*
%TO.C,U2*%
X151765000Y-46990000D03*
D13*
X133985000Y-54610000D03*
X149225000Y-46990000D03*
X136525000Y-54610000D03*
X146685000Y-46990000D03*
X139065000Y-54610000D03*
X144145000Y-46990000D03*
X141605000Y-54610000D03*
X141605000Y-46990000D03*
X144145000Y-54610000D03*
X139065000Y-46990000D03*
X146685000Y-54610000D03*
X136525000Y-46990000D03*
X149225000Y-54610000D03*
X133985000Y-46990000D03*
X151765000Y-54610000D03*
%TD*%
%TO.C,U4*%
X108585000Y-71755000D03*
X126365000Y-79375000D03*
X111125000Y-71755000D03*
X123825000Y-79375000D03*
X113665000Y-71755000D03*
X121285000Y-79375000D03*
X116205000Y-71755000D03*
X118745000Y-79375000D03*
X118745000Y-71755000D03*
X116205000Y-79375000D03*
X121285000Y-71755000D03*
X113665000Y-79375000D03*
X123825000Y-71755000D03*
X111125000Y-79375000D03*
X126365000Y-71755000D03*
D14*
X108585000Y-79375000D03*
%TD*%
D15*
%TO.C,R4*%
X132080000Y-92710000D03*
D13*
X134620000Y-92710000D03*
%TD*%
%TO.C,R5*%
X134620000Y-95885000D03*
D15*
X132080000Y-95885000D03*
%TD*%
%TO.C,R6*%
X132080000Y-99060000D03*
D13*
X134620000Y-99060000D03*
%TD*%
D14*
%TO.C,SW1*%
X139065000Y-94615000D03*
D13*
X146685000Y-97155000D03*
X139065000Y-97155000D03*
X146685000Y-94615000D03*
%TD*%
D16*
%TO.C,D1*%
X194945000Y-26035000D03*
D17*
X197485000Y-26035000D03*
%TD*%
D12*
%TO.C,J1*%
X107950000Y-29250000D03*
X107950000Y-34250000D03*
X110490000Y-29250000D03*
X110490000Y-34250000D03*
X113030000Y-29250000D03*
X113030000Y-34250000D03*
X115570000Y-29250000D03*
X115570000Y-34250000D03*
X118110000Y-29250000D03*
X118110000Y-34250000D03*
X120650000Y-29250000D03*
X120650000Y-34250000D03*
X123190000Y-29250000D03*
X123190000Y-34250000D03*
X125730000Y-29250000D03*
X125730000Y-34250000D03*
%TD*%
D15*
%TO.C,R7*%
X191770000Y-39370000D03*
D13*
X191770000Y-46990000D03*
%TD*%
D12*
%TO.C,X1*%
X140970000Y-32980000D03*
X140970000Y-27980000D03*
X138430000Y-32980000D03*
X138430000Y-27980000D03*
%TD*%
M02*
