M48
; DRILL file {KiCad 5.1.8-db9833491~87~ubuntu18.04.1} date Wed Nov 25 14:18:42 2020
; FORMAT={-:-/ absolute / inch / decimal}
; #@! TF.CreationDate,2020-11-25T14:18:42+01:00
; #@! TF.GenerationSoftware,Kicad,Pcbnew,5.1.8-db9833491~87~ubuntu18.04.1
; #@! TF.FileFunction,Plated,1,2,PTH
FMAT,2
INCH
T1C0.0157
T2C0.0315
T3C0.0354
T4C0.0394
T5C0.0472
%
G90
G05
T1
X4.2145Y-1.7655
X4.3717Y-2.7469
X5.4031Y-3.2131
X5.5442Y-2.9722
X5.5968Y-3.1956
X5.6023Y-2.2441
T2
X5.25Y-2.825
X5.25Y-3.125
X5.35Y-2.825
X5.35Y-3.125
X5.45Y-2.825
X5.45Y-3.125
X5.55Y-2.825
X5.55Y-3.125
X5.65Y-2.825
X5.65Y-3.125
X5.75Y-2.825
X5.75Y-3.125
X5.85Y-2.825
X5.85Y-3.125
X5.95Y-2.825
X5.95Y-3.125
X5.2Y-3.65
X5.3Y-3.65
X5.25Y-2.375
X5.35Y-2.375
X5.45Y-2.375
X5.55Y-2.375
X5.65Y-2.375
X5.75Y-2.375
X5.85Y-2.375
X5.95Y-2.375
X6.05Y-2.375
X6.2Y-2.475
X6.3Y-2.475
X5.475Y-3.725
X5.475Y-3.825
X5.775Y-3.725
X5.775Y-3.825
X4.275Y-2.825
X4.275Y-3.125
X4.375Y-2.825
X4.375Y-3.125
X4.475Y-2.825
X4.475Y-3.125
X4.575Y-2.825
X4.575Y-3.125
X4.675Y-2.825
X4.675Y-3.125
X4.775Y-2.825
X4.775Y-3.125
X4.875Y-2.825
X4.875Y-3.125
X4.975Y-2.825
X4.975Y-3.125
X6.15Y-2.975
X6.15Y-3.075
X6.45Y-2.975
X6.45Y-3.075
X6.9Y-1.525
X6.9Y-1.625
X6.2Y-2.225
X6.3Y-2.225
X6.2Y-2.35
X6.3Y-2.35
X5.2Y-3.775
X5.3Y-3.775
X7.55Y-1.55
X7.55Y-1.85
X4.25Y-2.375
X4.35Y-2.375
X4.45Y-2.375
X4.55Y-2.375
X4.65Y-2.375
X4.75Y-2.375
X4.85Y-2.375
X4.95Y-2.375
X5.05Y-2.375
X6.775Y-1.525
X6.775Y-1.625
X5.25Y-2.6
X5.35Y-2.6
X5.45Y-2.6
X5.55Y-2.6
X5.65Y-2.6
X5.75Y-2.6
X5.85Y-2.6
X5.95Y-2.6
X6.05Y-2.6
X4.25Y-2.6
X4.35Y-2.6
X4.45Y-2.6
X4.55Y-2.6
X4.65Y-2.6
X4.75Y-2.6
X4.85Y-2.6
X4.95Y-2.6
X5.05Y-2.6
X5.275Y-1.85
X5.275Y-2.15
X5.375Y-1.85
X5.375Y-2.15
X5.475Y-1.85
X5.475Y-2.15
X5.575Y-1.85
X5.575Y-2.15
X5.675Y-1.85
X5.675Y-2.15
X5.775Y-1.85
X5.775Y-2.15
X5.875Y-1.85
X5.875Y-2.15
X5.975Y-1.85
X5.975Y-2.15
X4.25Y-1.85
X4.25Y-2.15
X4.35Y-1.85
X4.35Y-2.15
X4.45Y-1.85
X4.45Y-2.15
X4.55Y-1.85
X4.55Y-2.15
X4.65Y-1.85
X4.65Y-2.15
X4.75Y-1.85
X4.75Y-2.15
X4.85Y-1.85
X4.85Y-2.15
X4.95Y-1.85
X4.95Y-2.15
X5.2Y-3.9
X5.3Y-3.9
X7.025Y-1.525
X7.025Y-1.625
X6.2Y-2.6
X6.3Y-2.6
T3
X7.675Y-1.025
X7.775Y-1.025
T4
X7.45Y-1.025
X7.45Y-1.125
X7.275Y-1.025
X7.275Y-1.125
X7.175Y-1.55
X7.175Y-1.65
X7.175Y-1.75
X7.175Y-1.85
X7.175Y-1.95
X7.175Y-2.05
X7.175Y-2.15
X7.175Y-2.25
X7.175Y-2.35
X7.175Y-2.45
X7.175Y-2.55
X7.175Y-2.65
X7.175Y-2.75
X7.175Y-2.85
X7.175Y-2.95
X7.775Y-1.55
X7.775Y-1.65
X7.775Y-1.75
X7.775Y-1.85
X7.775Y-1.95
X7.775Y-2.05
X7.775Y-2.15
X7.775Y-2.25
X7.775Y-2.35
X7.775Y-2.45
X7.775Y-2.55
X7.775Y-2.65
X7.775Y-2.75
X7.775Y-2.85
X7.775Y-2.95
X6.6Y-2.5
X6.6Y-2.6
X6.6Y-2.7
X6.6Y-1.925
X6.6Y-2.025
X6.6Y-2.125
X6.775Y-1.875
X6.775Y-1.975
X6.775Y-2.075
X6.775Y-2.175
X6.775Y-2.475
X6.775Y-2.575
X6.775Y-2.675
X6.775Y-2.775
T5
X4.25Y-1.1516
X4.25Y-1.3484
X4.35Y-1.1516
X4.35Y-1.3484
X4.45Y-1.1516
X4.45Y-1.3484
X4.55Y-1.1516
X4.55Y-1.3484
X4.65Y-1.1516
X4.65Y-1.3484
X4.75Y-1.1516
X4.75Y-1.3484
X4.85Y-1.1516
X4.85Y-1.3484
X4.95Y-1.1516
X4.95Y-1.3484
X5.45Y-1.1016
X5.45Y-1.2984
X5.55Y-1.1016
X5.55Y-1.2984
X6.25Y-1.1516
X6.25Y-1.3484
X6.35Y-1.1516
X6.35Y-1.3484
X6.45Y-1.1516
X6.45Y-1.3484
X6.55Y-1.1516
X6.55Y-1.3484
X6.65Y-1.1516
X6.65Y-1.3484
X6.75Y-1.1516
X6.75Y-1.3484
X6.85Y-1.1516
X6.85Y-1.3484
X6.95Y-1.1516
X6.95Y-1.3484
X6.225Y-3.6516
X6.225Y-3.8484
X6.325Y-3.6516
X6.325Y-3.8484
X6.425Y-3.6516
X6.425Y-3.8484
X6.525Y-3.6516
X6.525Y-3.8484
X6.625Y-3.6516
X6.625Y-3.8484
X6.725Y-3.6516
X6.725Y-3.8484
X6.825Y-3.6516
X6.825Y-3.8484
X6.925Y-3.6516
X6.925Y-3.8484
X4.2Y-3.6516
X4.2Y-3.8484
X4.3Y-3.6516
X4.3Y-3.8484
X4.4Y-3.6516
X4.4Y-3.8484
X4.5Y-3.6516
X4.5Y-3.8484
X4.6Y-3.6516
X4.6Y-3.8484
X4.7Y-3.6516
X4.7Y-3.8484
X4.8Y-3.6516
X4.8Y-3.8484
X4.9Y-3.6516
X4.9Y-3.8484
T0
M30
