%TF.GenerationSoftware,KiCad,Pcbnew,5.1.8-db9833491~87~ubuntu18.04.1*%
%TF.CreationDate,2020-11-19T23:29:55+01:00*%
%TF.ProjectId,Mqtt32output,4d717474-3332-46f7-9574-7075742e6b69,rev?*%
%TF.SameCoordinates,Original*%
%TF.FileFunction,Legend,Top*%
%TF.FilePolarity,Positive*%
%FSLAX46Y46*%
G04 Gerber Fmt 4.6, Leading zero omitted, Abs format (unit mm)*
G04 Created by KiCad (PCBNEW 5.1.8-db9833491~87~ubuntu18.04.1) date 2020-11-19 23:29:55*
%MOMM*%
%LPD*%
G01*
G04 APERTURE LIST*
%ADD10C,0.100000*%
%ADD11C,0.500000*%
%ADD12C,0.300000*%
%ADD13C,0.150000*%
%ADD14C,0.120000*%
%ADD15C,0.225000*%
%ADD16C,0.203200*%
%ADD17C,0.015000*%
G04 APERTURE END LIST*
D10*
G36*
X145415000Y-88900000D02*
G01*
X131445000Y-88900000D01*
X131445000Y-78105000D01*
X145415000Y-78105000D01*
X145415000Y-88900000D01*
G37*
X145415000Y-88900000D02*
X131445000Y-88900000D01*
X131445000Y-78105000D01*
X145415000Y-78105000D01*
X145415000Y-88900000D01*
D11*
X144271904Y-100742857D02*
X144271904Y-103409523D01*
X143319523Y-99219047D02*
X142367142Y-102076190D01*
X144843333Y-102076190D01*
X179006666Y-99409523D02*
X181482857Y-99409523D01*
X180149523Y-100933333D01*
X180720952Y-100933333D01*
X181101904Y-101123809D01*
X181292380Y-101314285D01*
X181482857Y-101695238D01*
X181482857Y-102647619D01*
X181292380Y-103028571D01*
X181101904Y-103219047D01*
X180720952Y-103409523D01*
X179578095Y-103409523D01*
X179197142Y-103219047D01*
X179006666Y-103028571D01*
X105282857Y-27209523D02*
X102997142Y-27209523D01*
X104140000Y-27209523D02*
X104140000Y-23209523D01*
X103759047Y-23780952D01*
X103378095Y-24161904D01*
X102997142Y-24352380D01*
X179832142Y-24225476D02*
X180022619Y-24035000D01*
X180403571Y-23844523D01*
X181355952Y-23844523D01*
X181736904Y-24035000D01*
X181927380Y-24225476D01*
X182117857Y-24606428D01*
X182117857Y-24987380D01*
X181927380Y-25558809D01*
X179641666Y-27844523D01*
X182117857Y-27844523D01*
D12*
X131108571Y-63928571D02*
X132037142Y-63928571D01*
X131537142Y-64500000D01*
X131751428Y-64500000D01*
X131894285Y-64571428D01*
X131965714Y-64642857D01*
X132037142Y-64785714D01*
X132037142Y-65142857D01*
X131965714Y-65285714D01*
X131894285Y-65357142D01*
X131751428Y-65428571D01*
X131322857Y-65428571D01*
X131180000Y-65357142D01*
X131108571Y-65285714D01*
X132608571Y-64071428D02*
X132680000Y-64000000D01*
X132822857Y-63928571D01*
X133180000Y-63928571D01*
X133322857Y-64000000D01*
X133394285Y-64071428D01*
X133465714Y-64214285D01*
X133465714Y-64357142D01*
X133394285Y-64571428D01*
X132537142Y-65428571D01*
X133465714Y-65428571D01*
X135537142Y-63928571D02*
X135822857Y-63928571D01*
X135965714Y-64000000D01*
X136108571Y-64142857D01*
X136180000Y-64428571D01*
X136180000Y-64928571D01*
X136108571Y-65214285D01*
X135965714Y-65357142D01*
X135822857Y-65428571D01*
X135537142Y-65428571D01*
X135394285Y-65357142D01*
X135251428Y-65214285D01*
X135180000Y-64928571D01*
X135180000Y-64428571D01*
X135251428Y-64142857D01*
X135394285Y-64000000D01*
X135537142Y-63928571D01*
X136822857Y-63928571D02*
X136822857Y-65142857D01*
X136894285Y-65285714D01*
X136965714Y-65357142D01*
X137108571Y-65428571D01*
X137394285Y-65428571D01*
X137537142Y-65357142D01*
X137608571Y-65285714D01*
X137680000Y-65142857D01*
X137680000Y-63928571D01*
X138180000Y-63928571D02*
X139037142Y-63928571D01*
X138608571Y-65428571D02*
X138608571Y-63928571D01*
X139537142Y-65428571D02*
X139537142Y-63928571D01*
X140108571Y-63928571D01*
X140251428Y-64000000D01*
X140322857Y-64071428D01*
X140394285Y-64214285D01*
X140394285Y-64428571D01*
X140322857Y-64571428D01*
X140251428Y-64642857D01*
X140108571Y-64714285D01*
X139537142Y-64714285D01*
X141037142Y-63928571D02*
X141037142Y-65142857D01*
X141108571Y-65285714D01*
X141180000Y-65357142D01*
X141322857Y-65428571D01*
X141608571Y-65428571D01*
X141751428Y-65357142D01*
X141822857Y-65285714D01*
X141894285Y-65142857D01*
X141894285Y-63928571D01*
X142394285Y-63928571D02*
X143251428Y-63928571D01*
X142822857Y-65428571D02*
X142822857Y-63928571D01*
X143680000Y-65357142D02*
X143894285Y-65428571D01*
X144251428Y-65428571D01*
X144394285Y-65357142D01*
X144465714Y-65285714D01*
X144537142Y-65142857D01*
X144537142Y-65000000D01*
X144465714Y-64857142D01*
X144394285Y-64785714D01*
X144251428Y-64714285D01*
X143965714Y-64642857D01*
X143822857Y-64571428D01*
X143751428Y-64500000D01*
X143680000Y-64357142D01*
X143680000Y-64214285D01*
X143751428Y-64071428D01*
X143822857Y-64000000D01*
X143965714Y-63928571D01*
X144322857Y-63928571D01*
X144537142Y-64000000D01*
X130715714Y-66478571D02*
X131215714Y-67978571D01*
X131715714Y-66478571D01*
X132144285Y-66621428D02*
X132215714Y-66550000D01*
X132358571Y-66478571D01*
X132715714Y-66478571D01*
X132858571Y-66550000D01*
X132929999Y-66621428D01*
X133001428Y-66764285D01*
X133001428Y-66907142D01*
X132929999Y-67121428D01*
X132072857Y-67978571D01*
X133001428Y-67978571D01*
X133644285Y-67835714D02*
X133715714Y-67907142D01*
X133644285Y-67978571D01*
X133572857Y-67907142D01*
X133644285Y-67835714D01*
X133644285Y-67978571D01*
X134644285Y-66478571D02*
X134787142Y-66478571D01*
X134930000Y-66550000D01*
X135001428Y-66621428D01*
X135072857Y-66764285D01*
X135144285Y-67050000D01*
X135144285Y-67407142D01*
X135072857Y-67692857D01*
X135001428Y-67835714D01*
X134930000Y-67907142D01*
X134787142Y-67978571D01*
X134644285Y-67978571D01*
X134501428Y-67907142D01*
X134430000Y-67835714D01*
X134358571Y-67692857D01*
X134287142Y-67407142D01*
X134287142Y-67050000D01*
X134358571Y-66764285D01*
X134430000Y-66621428D01*
X134501428Y-66550000D01*
X134644285Y-66478571D01*
X136930000Y-67407142D02*
X138072857Y-67407142D01*
X139930000Y-67978571D02*
X139930000Y-66478571D01*
X140430000Y-67550000D01*
X140930000Y-66478571D01*
X140930000Y-67978571D01*
X142644285Y-68121428D02*
X142501428Y-68050000D01*
X142358571Y-67907142D01*
X142144285Y-67692857D01*
X142001428Y-67621428D01*
X141858571Y-67621428D01*
X141930000Y-67978571D02*
X141787142Y-67907142D01*
X141644285Y-67764285D01*
X141572857Y-67478571D01*
X141572857Y-66978571D01*
X141644285Y-66692857D01*
X141787142Y-66550000D01*
X141930000Y-66478571D01*
X142215714Y-66478571D01*
X142358571Y-66550000D01*
X142501428Y-66692857D01*
X142572857Y-66978571D01*
X142572857Y-67478571D01*
X142501428Y-67764285D01*
X142358571Y-67907142D01*
X142215714Y-67978571D01*
X141930000Y-67978571D01*
X143001428Y-66478571D02*
X143858571Y-66478571D01*
X143430000Y-67978571D02*
X143430000Y-66478571D01*
X144144285Y-66478571D02*
X145001428Y-66478571D01*
X144572857Y-67978571D02*
X144572857Y-66478571D01*
X132465714Y-69528571D02*
X132465714Y-70742857D01*
X132394285Y-70885714D01*
X132322857Y-70957142D01*
X132180000Y-71028571D01*
X131965714Y-71028571D01*
X131822857Y-70957142D01*
X132465714Y-70457142D02*
X132322857Y-70528571D01*
X132037142Y-70528571D01*
X131894285Y-70457142D01*
X131822857Y-70385714D01*
X131751428Y-70242857D01*
X131751428Y-69814285D01*
X131822857Y-69671428D01*
X131894285Y-69600000D01*
X132037142Y-69528571D01*
X132322857Y-69528571D01*
X132465714Y-69600000D01*
X133180000Y-70528571D02*
X133180000Y-69528571D01*
X133180000Y-69028571D02*
X133108571Y-69100000D01*
X133180000Y-69171428D01*
X133251428Y-69100000D01*
X133180000Y-69028571D01*
X133180000Y-69171428D01*
X133680000Y-69528571D02*
X134251428Y-69528571D01*
X133894285Y-69028571D02*
X133894285Y-70314285D01*
X133965714Y-70457142D01*
X134108571Y-70528571D01*
X134251428Y-70528571D01*
X134751428Y-70528571D02*
X134751428Y-69028571D01*
X135394285Y-70528571D02*
X135394285Y-69742857D01*
X135322857Y-69600000D01*
X135180000Y-69528571D01*
X134965714Y-69528571D01*
X134822857Y-69600000D01*
X134751428Y-69671428D01*
X136751428Y-69528571D02*
X136751428Y-70528571D01*
X136108571Y-69528571D02*
X136108571Y-70314285D01*
X136180000Y-70457142D01*
X136322857Y-70528571D01*
X136537142Y-70528571D01*
X136680000Y-70457142D01*
X136751428Y-70385714D01*
X137465714Y-70528571D02*
X137465714Y-69028571D01*
X137465714Y-69600000D02*
X137608571Y-69528571D01*
X137894285Y-69528571D01*
X138037142Y-69600000D01*
X138108571Y-69671428D01*
X138180000Y-69814285D01*
X138180000Y-70242857D01*
X138108571Y-70385714D01*
X138037142Y-70457142D01*
X137894285Y-70528571D01*
X137608571Y-70528571D01*
X137465714Y-70457142D01*
X138822857Y-70385714D02*
X138894285Y-70457142D01*
X138822857Y-70528571D01*
X138751428Y-70457142D01*
X138822857Y-70385714D01*
X138822857Y-70528571D01*
X140180000Y-70457142D02*
X140037142Y-70528571D01*
X139751428Y-70528571D01*
X139608571Y-70457142D01*
X139537142Y-70385714D01*
X139465714Y-70242857D01*
X139465714Y-69814285D01*
X139537142Y-69671428D01*
X139608571Y-69600000D01*
X139751428Y-69528571D01*
X140037142Y-69528571D01*
X140180000Y-69600000D01*
X141037142Y-70528571D02*
X140894285Y-70457142D01*
X140822857Y-70385714D01*
X140751428Y-70242857D01*
X140751428Y-69814285D01*
X140822857Y-69671428D01*
X140894285Y-69600000D01*
X141037142Y-69528571D01*
X141251428Y-69528571D01*
X141394285Y-69600000D01*
X141465714Y-69671428D01*
X141537142Y-69814285D01*
X141537142Y-70242857D01*
X141465714Y-70385714D01*
X141394285Y-70457142D01*
X141251428Y-70528571D01*
X141037142Y-70528571D01*
X142180000Y-70528571D02*
X142180000Y-69528571D01*
X142180000Y-69671428D02*
X142251428Y-69600000D01*
X142394285Y-69528571D01*
X142608571Y-69528571D01*
X142751428Y-69600000D01*
X142822857Y-69742857D01*
X142822857Y-70528571D01*
X142822857Y-69742857D02*
X142894285Y-69600000D01*
X143037142Y-69528571D01*
X143251428Y-69528571D01*
X143394285Y-69600000D01*
X143465714Y-69742857D01*
X143465714Y-70528571D01*
X145251428Y-68957142D02*
X143965714Y-70885714D01*
X131037142Y-73078571D02*
X131037142Y-72292857D01*
X130965714Y-72150000D01*
X130822857Y-72078571D01*
X130537142Y-72078571D01*
X130394285Y-72150000D01*
X131037142Y-73007142D02*
X130894285Y-73078571D01*
X130537142Y-73078571D01*
X130394285Y-73007142D01*
X130322857Y-72864285D01*
X130322857Y-72721428D01*
X130394285Y-72578571D01*
X130537142Y-72507142D01*
X130894285Y-72507142D01*
X131037142Y-72435714D01*
X131751428Y-72078571D02*
X131751428Y-73078571D01*
X131751428Y-72221428D02*
X131822857Y-72150000D01*
X131965714Y-72078571D01*
X132180000Y-72078571D01*
X132322857Y-72150000D01*
X132394285Y-72292857D01*
X132394285Y-73078571D01*
X132894285Y-72078571D02*
X133465714Y-72078571D01*
X133108571Y-71578571D02*
X133108571Y-72864285D01*
X133180000Y-73007142D01*
X133322857Y-73078571D01*
X133465714Y-73078571D01*
X133965714Y-73078571D02*
X133965714Y-72078571D01*
X133965714Y-71578571D02*
X133894285Y-71650000D01*
X133965714Y-71721428D01*
X134037142Y-71650000D01*
X133965714Y-71578571D01*
X133965714Y-71721428D01*
X134680000Y-73078571D02*
X134680000Y-71578571D01*
X134680000Y-72150000D02*
X134822857Y-72078571D01*
X135108571Y-72078571D01*
X135251428Y-72150000D01*
X135322857Y-72221428D01*
X135394285Y-72364285D01*
X135394285Y-72792857D01*
X135322857Y-72935714D01*
X135251428Y-73007142D01*
X135108571Y-73078571D01*
X134822857Y-73078571D01*
X134680000Y-73007142D01*
X136680000Y-73078571D02*
X136680000Y-72292857D01*
X136608571Y-72150000D01*
X136465714Y-72078571D01*
X136180000Y-72078571D01*
X136037142Y-72150000D01*
X136680000Y-73007142D02*
X136537142Y-73078571D01*
X136180000Y-73078571D01*
X136037142Y-73007142D01*
X135965714Y-72864285D01*
X135965714Y-72721428D01*
X136037142Y-72578571D01*
X136180000Y-72507142D01*
X136537142Y-72507142D01*
X136680000Y-72435714D01*
X137394285Y-73078571D02*
X137394285Y-72078571D01*
X137394285Y-72364285D02*
X137465714Y-72221428D01*
X137537142Y-72150000D01*
X137680000Y-72078571D01*
X137822857Y-72078571D01*
X138322857Y-73078571D02*
X138322857Y-71578571D01*
X138322857Y-72150000D02*
X138465714Y-72078571D01*
X138751428Y-72078571D01*
X138894285Y-72150000D01*
X138965714Y-72221428D01*
X139037142Y-72364285D01*
X139037142Y-72792857D01*
X138965714Y-72935714D01*
X138894285Y-73007142D01*
X138751428Y-73078571D01*
X138465714Y-73078571D01*
X138322857Y-73007142D01*
X139680000Y-73078571D02*
X139680000Y-72078571D01*
X139680000Y-71578571D02*
X139608571Y-71650000D01*
X139680000Y-71721428D01*
X139751428Y-71650000D01*
X139680000Y-71578571D01*
X139680000Y-71721428D01*
X140965714Y-73007142D02*
X140822857Y-73078571D01*
X140537142Y-73078571D01*
X140394285Y-73007142D01*
X140322857Y-72864285D01*
X140322857Y-72292857D01*
X140394285Y-72150000D01*
X140537142Y-72078571D01*
X140822857Y-72078571D01*
X140965714Y-72150000D01*
X141037142Y-72292857D01*
X141037142Y-72435714D01*
X140322857Y-72578571D01*
X142751428Y-71507142D02*
X141465714Y-73435714D01*
X143251428Y-73078571D02*
X143251428Y-72078571D01*
X143251428Y-71578571D02*
X143180000Y-71650000D01*
X143251428Y-71721428D01*
X143322857Y-71650000D01*
X143251428Y-71578571D01*
X143251428Y-71721428D01*
X144180000Y-73078571D02*
X144037142Y-73007142D01*
X143965714Y-72935714D01*
X143894285Y-72792857D01*
X143894285Y-72364285D01*
X143965714Y-72221428D01*
X144037142Y-72150000D01*
X144180000Y-72078571D01*
X144394285Y-72078571D01*
X144537142Y-72150000D01*
X144608571Y-72221428D01*
X144680000Y-72364285D01*
X144680000Y-72792857D01*
X144608571Y-72935714D01*
X144537142Y-73007142D01*
X144394285Y-73078571D01*
X144180000Y-73078571D01*
X145322857Y-72507142D02*
X146465714Y-72507142D01*
X133715714Y-75628571D02*
X133715714Y-74128571D01*
X134358571Y-75628571D02*
X134358571Y-74842857D01*
X134287142Y-74700000D01*
X134144285Y-74628571D01*
X133930000Y-74628571D01*
X133787142Y-74700000D01*
X133715714Y-74771428D01*
X135715714Y-75628571D02*
X135715714Y-74842857D01*
X135644285Y-74700000D01*
X135501428Y-74628571D01*
X135215714Y-74628571D01*
X135072857Y-74700000D01*
X135715714Y-75557142D02*
X135572857Y-75628571D01*
X135215714Y-75628571D01*
X135072857Y-75557142D01*
X135001428Y-75414285D01*
X135001428Y-75271428D01*
X135072857Y-75128571D01*
X135215714Y-75057142D01*
X135572857Y-75057142D01*
X135715714Y-74985714D01*
X136430000Y-75628571D02*
X136430000Y-74628571D01*
X136430000Y-74914285D02*
X136501428Y-74771428D01*
X136572857Y-74700000D01*
X136715714Y-74628571D01*
X136858571Y-74628571D01*
X138001428Y-75628571D02*
X138001428Y-74128571D01*
X138001428Y-75557142D02*
X137858571Y-75628571D01*
X137572857Y-75628571D01*
X137430000Y-75557142D01*
X137358571Y-75485714D01*
X137287142Y-75342857D01*
X137287142Y-74914285D01*
X137358571Y-74771428D01*
X137430000Y-74700000D01*
X137572857Y-74628571D01*
X137858571Y-74628571D01*
X138001428Y-74700000D01*
X138572857Y-74628571D02*
X138858571Y-75628571D01*
X139144285Y-74914285D01*
X139430000Y-75628571D01*
X139715714Y-74628571D01*
X140930000Y-75628571D02*
X140930000Y-74842857D01*
X140858571Y-74700000D01*
X140715714Y-74628571D01*
X140430000Y-74628571D01*
X140287142Y-74700000D01*
X140930000Y-75557142D02*
X140787142Y-75628571D01*
X140430000Y-75628571D01*
X140287142Y-75557142D01*
X140215714Y-75414285D01*
X140215714Y-75271428D01*
X140287142Y-75128571D01*
X140430000Y-75057142D01*
X140787142Y-75057142D01*
X140930000Y-74985714D01*
X141644285Y-75628571D02*
X141644285Y-74628571D01*
X141644285Y-74914285D02*
X141715714Y-74771428D01*
X141787142Y-74700000D01*
X141930000Y-74628571D01*
X142072857Y-74628571D01*
X143144285Y-75557142D02*
X143001428Y-75628571D01*
X142715714Y-75628571D01*
X142572857Y-75557142D01*
X142501428Y-75414285D01*
X142501428Y-74842857D01*
X142572857Y-74700000D01*
X142715714Y-74628571D01*
X143001428Y-74628571D01*
X143144285Y-74700000D01*
X143215714Y-74842857D01*
X143215714Y-74985714D01*
X142501428Y-75128571D01*
D13*
X115927142Y-98250000D02*
X115974761Y-98202380D01*
X116022380Y-98250000D01*
X115974761Y-98297619D01*
X115927142Y-98250000D01*
X116022380Y-98250000D01*
X115641428Y-98250000D02*
X115070000Y-98297619D01*
X115022380Y-98250000D01*
X115070000Y-98202380D01*
X115641428Y-98250000D01*
X115022380Y-98250000D01*
X115641428Y-97011904D02*
X115641428Y-96250000D01*
X116022380Y-96630952D02*
X115260476Y-96630952D01*
X115117619Y-95821428D02*
X115070000Y-95773809D01*
X115022380Y-95678571D01*
X115022380Y-95440476D01*
X115070000Y-95345238D01*
X115117619Y-95297619D01*
X115212857Y-95250000D01*
X115308095Y-95250000D01*
X115450952Y-95297619D01*
X116022380Y-95869047D01*
X116022380Y-95250000D01*
X115355714Y-94392857D02*
X116022380Y-94392857D01*
X114974761Y-94630952D02*
X115689047Y-94869047D01*
X115689047Y-94250000D01*
X115022380Y-94011904D02*
X116022380Y-93678571D01*
X115022380Y-93345238D01*
X115927142Y-92250000D02*
X115974761Y-92202380D01*
X116022380Y-92250000D01*
X115974761Y-92297619D01*
X115927142Y-92250000D01*
X116022380Y-92250000D01*
X115641428Y-92250000D02*
X115070000Y-92297619D01*
X115022380Y-92250000D01*
X115070000Y-92202380D01*
X115641428Y-92250000D01*
X115022380Y-92250000D01*
X128254285Y-29916428D02*
X129016190Y-29916428D01*
X128635238Y-30297380D02*
X128635238Y-29535476D01*
X129968571Y-29297380D02*
X129492380Y-29297380D01*
X129444761Y-29773571D01*
X129492380Y-29725952D01*
X129587619Y-29678333D01*
X129825714Y-29678333D01*
X129920952Y-29725952D01*
X129968571Y-29773571D01*
X130016190Y-29868809D01*
X130016190Y-30106904D01*
X129968571Y-30202142D01*
X129920952Y-30249761D01*
X129825714Y-30297380D01*
X129587619Y-30297380D01*
X129492380Y-30249761D01*
X129444761Y-30202142D01*
X130301904Y-29297380D02*
X130635238Y-30297380D01*
X130968571Y-29297380D01*
X182761904Y-30694761D02*
X182904761Y-30742380D01*
X183142857Y-30742380D01*
X183238095Y-30694761D01*
X183285714Y-30647142D01*
X183333333Y-30551904D01*
X183333333Y-30456666D01*
X183285714Y-30361428D01*
X183238095Y-30313809D01*
X183142857Y-30266190D01*
X182952380Y-30218571D01*
X182857142Y-30170952D01*
X182809523Y-30123333D01*
X182761904Y-30028095D01*
X182761904Y-29932857D01*
X182809523Y-29837619D01*
X182857142Y-29790000D01*
X182952380Y-29742380D01*
X183190476Y-29742380D01*
X183333333Y-29790000D01*
X184142857Y-30694761D02*
X184047619Y-30742380D01*
X183857142Y-30742380D01*
X183761904Y-30694761D01*
X183714285Y-30599523D01*
X183714285Y-30218571D01*
X183761904Y-30123333D01*
X183857142Y-30075714D01*
X184047619Y-30075714D01*
X184142857Y-30123333D01*
X184190476Y-30218571D01*
X184190476Y-30313809D01*
X183714285Y-30409047D01*
X184476190Y-30075714D02*
X184857142Y-30075714D01*
X184619047Y-29742380D02*
X184619047Y-30599523D01*
X184666666Y-30694761D01*
X184761904Y-30742380D01*
X184857142Y-30742380D01*
X185952380Y-30742380D02*
X185952380Y-29742380D01*
X186333333Y-29742380D01*
X186428571Y-29790000D01*
X186476190Y-29837619D01*
X186523809Y-29932857D01*
X186523809Y-30075714D01*
X186476190Y-30170952D01*
X186428571Y-30218571D01*
X186333333Y-30266190D01*
X185952380Y-30266190D01*
X187095238Y-30742380D02*
X187000000Y-30694761D01*
X186952380Y-30647142D01*
X186904761Y-30551904D01*
X186904761Y-30266190D01*
X186952380Y-30170952D01*
X187000000Y-30123333D01*
X187095238Y-30075714D01*
X187238095Y-30075714D01*
X187333333Y-30123333D01*
X187380952Y-30170952D01*
X187428571Y-30266190D01*
X187428571Y-30551904D01*
X187380952Y-30647142D01*
X187333333Y-30694761D01*
X187238095Y-30742380D01*
X187095238Y-30742380D01*
X187761904Y-30075714D02*
X187952380Y-30742380D01*
X188142857Y-30266190D01*
X188333333Y-30742380D01*
X188523809Y-30075714D01*
X189285714Y-30694761D02*
X189190476Y-30742380D01*
X189000000Y-30742380D01*
X188904761Y-30694761D01*
X188857142Y-30599523D01*
X188857142Y-30218571D01*
X188904761Y-30123333D01*
X189000000Y-30075714D01*
X189190476Y-30075714D01*
X189285714Y-30123333D01*
X189333333Y-30218571D01*
X189333333Y-30313809D01*
X188857142Y-30409047D01*
X189761904Y-30742380D02*
X189761904Y-30075714D01*
X189761904Y-30266190D02*
X189809523Y-30170952D01*
X189857142Y-30123333D01*
X189952380Y-30075714D01*
X190047619Y-30075714D01*
X191285714Y-30742380D02*
X191190476Y-30694761D01*
X191142857Y-30647142D01*
X191095238Y-30551904D01*
X191095238Y-30266190D01*
X191142857Y-30170952D01*
X191190476Y-30123333D01*
X191285714Y-30075714D01*
X191428571Y-30075714D01*
X191523809Y-30123333D01*
X191571428Y-30170952D01*
X191619047Y-30266190D01*
X191619047Y-30551904D01*
X191571428Y-30647142D01*
X191523809Y-30694761D01*
X191428571Y-30742380D01*
X191285714Y-30742380D01*
X191904761Y-30075714D02*
X192285714Y-30075714D01*
X192047619Y-30742380D02*
X192047619Y-29885238D01*
X192095238Y-29790000D01*
X192190476Y-29742380D01*
X192285714Y-29742380D01*
X192476190Y-30075714D02*
X192857142Y-30075714D01*
X192619047Y-30742380D02*
X192619047Y-29885238D01*
X192666666Y-29790000D01*
X192761904Y-29742380D01*
X192857142Y-29742380D01*
X193952380Y-30742380D02*
X193952380Y-29742380D01*
X193952380Y-30123333D02*
X194047619Y-30075714D01*
X194238095Y-30075714D01*
X194333333Y-30123333D01*
X194380952Y-30170952D01*
X194428571Y-30266190D01*
X194428571Y-30551904D01*
X194380952Y-30647142D01*
X194333333Y-30694761D01*
X194238095Y-30742380D01*
X194047619Y-30742380D01*
X193952380Y-30694761D01*
X195238095Y-30694761D02*
X195142857Y-30742380D01*
X194952380Y-30742380D01*
X194857142Y-30694761D01*
X194809523Y-30599523D01*
X194809523Y-30218571D01*
X194857142Y-30123333D01*
X194952380Y-30075714D01*
X195142857Y-30075714D01*
X195238095Y-30123333D01*
X195285714Y-30218571D01*
X195285714Y-30313809D01*
X194809523Y-30409047D01*
X195571428Y-30075714D02*
X195952380Y-30075714D01*
X195714285Y-30742380D02*
X195714285Y-29885238D01*
X195761904Y-29790000D01*
X195857142Y-29742380D01*
X195952380Y-29742380D01*
X196428571Y-30742380D02*
X196333333Y-30694761D01*
X196285714Y-30647142D01*
X196238095Y-30551904D01*
X196238095Y-30266190D01*
X196285714Y-30170952D01*
X196333333Y-30123333D01*
X196428571Y-30075714D01*
X196571428Y-30075714D01*
X196666666Y-30123333D01*
X196714285Y-30170952D01*
X196761904Y-30266190D01*
X196761904Y-30551904D01*
X196714285Y-30647142D01*
X196666666Y-30694761D01*
X196571428Y-30742380D01*
X196428571Y-30742380D01*
X197190476Y-30742380D02*
X197190476Y-30075714D01*
X197190476Y-30266190D02*
X197238095Y-30170952D01*
X197285714Y-30123333D01*
X197380952Y-30075714D01*
X197476190Y-30075714D01*
X198190476Y-30694761D02*
X198095238Y-30742380D01*
X197904761Y-30742380D01*
X197809523Y-30694761D01*
X197761904Y-30599523D01*
X197761904Y-30218571D01*
X197809523Y-30123333D01*
X197904761Y-30075714D01*
X198095238Y-30075714D01*
X198190476Y-30123333D01*
X198238095Y-30218571D01*
X198238095Y-30313809D01*
X197761904Y-30409047D01*
X183380952Y-31725714D02*
X183380952Y-32392380D01*
X182952380Y-31725714D02*
X182952380Y-32249523D01*
X183000000Y-32344761D01*
X183095238Y-32392380D01*
X183238095Y-32392380D01*
X183333333Y-32344761D01*
X183380952Y-32297142D01*
X183857142Y-31725714D02*
X183857142Y-32725714D01*
X183857142Y-31773333D02*
X183952380Y-31725714D01*
X184142857Y-31725714D01*
X184238095Y-31773333D01*
X184285714Y-31820952D01*
X184333333Y-31916190D01*
X184333333Y-32201904D01*
X184285714Y-32297142D01*
X184238095Y-32344761D01*
X184142857Y-32392380D01*
X183952380Y-32392380D01*
X183857142Y-32344761D01*
X184904761Y-32392380D02*
X184809523Y-32344761D01*
X184761904Y-32249523D01*
X184761904Y-31392380D01*
X185428571Y-32392380D02*
X185333333Y-32344761D01*
X185285714Y-32297142D01*
X185238095Y-32201904D01*
X185238095Y-31916190D01*
X185285714Y-31820952D01*
X185333333Y-31773333D01*
X185428571Y-31725714D01*
X185571428Y-31725714D01*
X185666666Y-31773333D01*
X185714285Y-31820952D01*
X185761904Y-31916190D01*
X185761904Y-32201904D01*
X185714285Y-32297142D01*
X185666666Y-32344761D01*
X185571428Y-32392380D01*
X185428571Y-32392380D01*
X186619047Y-32392380D02*
X186619047Y-31868571D01*
X186571428Y-31773333D01*
X186476190Y-31725714D01*
X186285714Y-31725714D01*
X186190476Y-31773333D01*
X186619047Y-32344761D02*
X186523809Y-32392380D01*
X186285714Y-32392380D01*
X186190476Y-32344761D01*
X186142857Y-32249523D01*
X186142857Y-32154285D01*
X186190476Y-32059047D01*
X186285714Y-32011428D01*
X186523809Y-32011428D01*
X186619047Y-31963809D01*
X187523809Y-32392380D02*
X187523809Y-31392380D01*
X187523809Y-32344761D02*
X187428571Y-32392380D01*
X187238095Y-32392380D01*
X187142857Y-32344761D01*
X187095238Y-32297142D01*
X187047619Y-32201904D01*
X187047619Y-31916190D01*
X187095238Y-31820952D01*
X187142857Y-31773333D01*
X187238095Y-31725714D01*
X187428571Y-31725714D01*
X187523809Y-31773333D01*
X188000000Y-32392380D02*
X188000000Y-31725714D01*
X188000000Y-31392380D02*
X187952380Y-31440000D01*
X188000000Y-31487619D01*
X188047619Y-31440000D01*
X188000000Y-31392380D01*
X188000000Y-31487619D01*
X188476190Y-31725714D02*
X188476190Y-32392380D01*
X188476190Y-31820952D02*
X188523809Y-31773333D01*
X188619047Y-31725714D01*
X188761904Y-31725714D01*
X188857142Y-31773333D01*
X188904761Y-31868571D01*
X188904761Y-32392380D01*
X189809523Y-31725714D02*
X189809523Y-32535238D01*
X189761904Y-32630476D01*
X189714285Y-32678095D01*
X189619047Y-32725714D01*
X189476190Y-32725714D01*
X189380952Y-32678095D01*
X189809523Y-32344761D02*
X189714285Y-32392380D01*
X189523809Y-32392380D01*
X189428571Y-32344761D01*
X189380952Y-32297142D01*
X189333333Y-32201904D01*
X189333333Y-31916190D01*
X189380952Y-31820952D01*
X189428571Y-31773333D01*
X189523809Y-31725714D01*
X189714285Y-31725714D01*
X189809523Y-31773333D01*
X191047619Y-31725714D02*
X191047619Y-32725714D01*
X191047619Y-31773333D02*
X191142857Y-31725714D01*
X191333333Y-31725714D01*
X191428571Y-31773333D01*
X191476190Y-31820952D01*
X191523809Y-31916190D01*
X191523809Y-32201904D01*
X191476190Y-32297142D01*
X191428571Y-32344761D01*
X191333333Y-32392380D01*
X191142857Y-32392380D01*
X191047619Y-32344761D01*
X191952380Y-32392380D02*
X191952380Y-31725714D01*
X191952380Y-31916190D02*
X192000000Y-31820952D01*
X192047619Y-31773333D01*
X192142857Y-31725714D01*
X192238095Y-31725714D01*
X192714285Y-32392380D02*
X192619047Y-32344761D01*
X192571428Y-32297142D01*
X192523809Y-32201904D01*
X192523809Y-31916190D01*
X192571428Y-31820952D01*
X192619047Y-31773333D01*
X192714285Y-31725714D01*
X192857142Y-31725714D01*
X192952380Y-31773333D01*
X193000000Y-31820952D01*
X193047619Y-31916190D01*
X193047619Y-32201904D01*
X193000000Y-32297142D01*
X192952380Y-32344761D01*
X192857142Y-32392380D01*
X192714285Y-32392380D01*
X193904761Y-31725714D02*
X193904761Y-32535238D01*
X193857142Y-32630476D01*
X193809523Y-32678095D01*
X193714285Y-32725714D01*
X193571428Y-32725714D01*
X193476190Y-32678095D01*
X193904761Y-32344761D02*
X193809523Y-32392380D01*
X193619047Y-32392380D01*
X193523809Y-32344761D01*
X193476190Y-32297142D01*
X193428571Y-32201904D01*
X193428571Y-31916190D01*
X193476190Y-31820952D01*
X193523809Y-31773333D01*
X193619047Y-31725714D01*
X193809523Y-31725714D01*
X193904761Y-31773333D01*
X194380952Y-32392380D02*
X194380952Y-31725714D01*
X194380952Y-31916190D02*
X194428571Y-31820952D01*
X194476190Y-31773333D01*
X194571428Y-31725714D01*
X194666666Y-31725714D01*
X195428571Y-32392380D02*
X195428571Y-31868571D01*
X195380952Y-31773333D01*
X195285714Y-31725714D01*
X195095238Y-31725714D01*
X195000000Y-31773333D01*
X195428571Y-32344761D02*
X195333333Y-32392380D01*
X195095238Y-32392380D01*
X195000000Y-32344761D01*
X194952380Y-32249523D01*
X194952380Y-32154285D01*
X195000000Y-32059047D01*
X195095238Y-32011428D01*
X195333333Y-32011428D01*
X195428571Y-31963809D01*
X195904761Y-32392380D02*
X195904761Y-31725714D01*
X195904761Y-31820952D02*
X195952380Y-31773333D01*
X196047619Y-31725714D01*
X196190476Y-31725714D01*
X196285714Y-31773333D01*
X196333333Y-31868571D01*
X196333333Y-32392380D01*
X196333333Y-31868571D02*
X196380952Y-31773333D01*
X196476190Y-31725714D01*
X196619047Y-31725714D01*
X196714285Y-31773333D01*
X196761904Y-31868571D01*
X196761904Y-32392380D01*
X197190476Y-32344761D02*
X197285714Y-32392380D01*
X197476190Y-32392380D01*
X197571428Y-32344761D01*
X197619047Y-32249523D01*
X197619047Y-32201904D01*
X197571428Y-32106666D01*
X197476190Y-32059047D01*
X197333333Y-32059047D01*
X197238095Y-32011428D01*
X197190476Y-31916190D01*
X197190476Y-31868571D01*
X197238095Y-31773333D01*
X197333333Y-31725714D01*
X197476190Y-31725714D01*
X197571428Y-31773333D01*
X198047619Y-32297142D02*
X198095238Y-32344761D01*
X198047619Y-32392380D01*
X198000000Y-32344761D01*
X198047619Y-32297142D01*
X198047619Y-32392380D01*
X198047619Y-32011428D02*
X198000000Y-31440000D01*
X198047619Y-31392380D01*
X198095238Y-31440000D01*
X198047619Y-32011428D01*
X198047619Y-31392380D01*
D11*
X141446428Y-23134523D02*
X141732142Y-23134523D01*
X142017857Y-23325000D01*
X142160714Y-23515476D01*
X142303571Y-23896428D01*
X142446428Y-24658333D01*
X142446428Y-25610714D01*
X142303571Y-26372619D01*
X142160714Y-26753571D01*
X142017857Y-26944047D01*
X141732142Y-27134523D01*
X141446428Y-27134523D01*
X141160714Y-26944047D01*
X141017857Y-26753571D01*
X140875000Y-26372619D01*
X140732142Y-25610714D01*
X140732142Y-24658333D01*
X140875000Y-23896428D01*
X141017857Y-23515476D01*
X141160714Y-23325000D01*
X141446428Y-23134523D01*
X143303571Y-23134523D02*
X144303571Y-27134523D01*
X145303571Y-23134523D01*
X140589285Y-29825000D02*
X140303571Y-29634523D01*
X139875000Y-29634523D01*
X139446428Y-29825000D01*
X139160714Y-30205952D01*
X139017857Y-30586904D01*
X138875000Y-31348809D01*
X138875000Y-31920238D01*
X139017857Y-32682142D01*
X139160714Y-33063095D01*
X139446428Y-33444047D01*
X139875000Y-33634523D01*
X140160714Y-33634523D01*
X140589285Y-33444047D01*
X140732142Y-33253571D01*
X140732142Y-31920238D01*
X140160714Y-31920238D01*
X142017857Y-33634523D02*
X142017857Y-29634523D01*
X143732142Y-33634523D01*
X143732142Y-29634523D01*
X145160714Y-33634523D02*
X145160714Y-29634523D01*
X145875000Y-29634523D01*
X146303571Y-29825000D01*
X146589285Y-30205952D01*
X146732142Y-30586904D01*
X146875000Y-31348809D01*
X146875000Y-31920238D01*
X146732142Y-32682142D01*
X146589285Y-33063095D01*
X146303571Y-33444047D01*
X145875000Y-33634523D01*
X145160714Y-33634523D01*
X129603571Y-23209523D02*
X128175000Y-23209523D01*
X128032142Y-25114285D01*
X128175000Y-24923809D01*
X128460714Y-24733333D01*
X129175000Y-24733333D01*
X129460714Y-24923809D01*
X129603571Y-25114285D01*
X129746428Y-25495238D01*
X129746428Y-26447619D01*
X129603571Y-26828571D01*
X129460714Y-27019047D01*
X129175000Y-27209523D01*
X128460714Y-27209523D01*
X128175000Y-27019047D01*
X128032142Y-26828571D01*
X130603571Y-23209523D02*
X131603571Y-27209523D01*
X132603571Y-23209523D01*
X103696428Y-99338095D02*
X103791666Y-99100000D01*
X103982142Y-98861904D01*
X104458333Y-98861904D01*
X104648809Y-99100000D01*
X104744047Y-99338095D01*
X104839285Y-99814285D01*
X104839285Y-100290476D01*
X104744047Y-101004761D01*
X103601190Y-103861904D01*
X104839285Y-103861904D01*
X106553571Y-100528571D02*
X106553571Y-103861904D01*
X106077380Y-98623809D02*
X105601190Y-102195238D01*
X106839285Y-102195238D01*
X107315476Y-98861904D02*
X107982142Y-103861904D01*
X108648809Y-98861904D01*
X113791666Y-99338095D02*
X113886904Y-99100000D01*
X114077380Y-98861904D01*
X114553571Y-98861904D01*
X114744047Y-99100000D01*
X114839285Y-99338095D01*
X114934523Y-99814285D01*
X114934523Y-100290476D01*
X114839285Y-101004761D01*
X113696428Y-103861904D01*
X114934523Y-103861904D01*
X116648809Y-100528571D02*
X116648809Y-103861904D01*
X116172619Y-98623809D02*
X115696428Y-102195238D01*
X116934523Y-102195238D01*
X117410714Y-98861904D02*
X118077380Y-103861904D01*
X118744047Y-98861904D01*
D13*
X184317380Y-91178571D02*
X184650714Y-91178571D01*
X184793571Y-91702380D02*
X184317380Y-91702380D01*
X184317380Y-90702380D01*
X184793571Y-90702380D01*
X185079285Y-91035714D02*
X185460238Y-91035714D01*
X185222142Y-90702380D02*
X185222142Y-91559523D01*
X185269761Y-91654761D01*
X185365000Y-91702380D01*
X185460238Y-91702380D01*
X185793571Y-91702380D02*
X185793571Y-90702380D01*
X186222142Y-91702380D02*
X186222142Y-91178571D01*
X186174523Y-91083333D01*
X186079285Y-91035714D01*
X185936428Y-91035714D01*
X185841190Y-91083333D01*
X185793571Y-91130952D01*
X187079285Y-91654761D02*
X186984047Y-91702380D01*
X186793571Y-91702380D01*
X186698333Y-91654761D01*
X186650714Y-91559523D01*
X186650714Y-91178571D01*
X186698333Y-91083333D01*
X186793571Y-91035714D01*
X186984047Y-91035714D01*
X187079285Y-91083333D01*
X187126904Y-91178571D01*
X187126904Y-91273809D01*
X186650714Y-91369047D01*
X187555476Y-91702380D02*
X187555476Y-91035714D01*
X187555476Y-91226190D02*
X187603095Y-91130952D01*
X187650714Y-91083333D01*
X187745952Y-91035714D01*
X187841190Y-91035714D01*
X188174523Y-91035714D02*
X188174523Y-91702380D01*
X188174523Y-91130952D02*
X188222142Y-91083333D01*
X188317380Y-91035714D01*
X188460238Y-91035714D01*
X188555476Y-91083333D01*
X188603095Y-91178571D01*
X188603095Y-91702380D01*
X189460238Y-91654761D02*
X189365000Y-91702380D01*
X189174523Y-91702380D01*
X189079285Y-91654761D01*
X189031666Y-91559523D01*
X189031666Y-91178571D01*
X189079285Y-91083333D01*
X189174523Y-91035714D01*
X189365000Y-91035714D01*
X189460238Y-91083333D01*
X189507857Y-91178571D01*
X189507857Y-91273809D01*
X189031666Y-91369047D01*
X189793571Y-91035714D02*
X190174523Y-91035714D01*
X189936428Y-90702380D02*
X189936428Y-91559523D01*
X189984047Y-91654761D01*
X190079285Y-91702380D01*
X190174523Y-91702380D01*
X191222142Y-91654761D02*
X191365000Y-91702380D01*
X191603095Y-91702380D01*
X191698333Y-91654761D01*
X191745952Y-91607142D01*
X191793571Y-91511904D01*
X191793571Y-91416666D01*
X191745952Y-91321428D01*
X191698333Y-91273809D01*
X191603095Y-91226190D01*
X191412619Y-91178571D01*
X191317380Y-91130952D01*
X191269761Y-91083333D01*
X191222142Y-90988095D01*
X191222142Y-90892857D01*
X191269761Y-90797619D01*
X191317380Y-90750000D01*
X191412619Y-90702380D01*
X191650714Y-90702380D01*
X191793571Y-90750000D01*
X192222142Y-91702380D02*
X192222142Y-90702380D01*
X192650714Y-91702380D02*
X192650714Y-91178571D01*
X192603095Y-91083333D01*
X192507857Y-91035714D01*
X192365000Y-91035714D01*
X192269761Y-91083333D01*
X192222142Y-91130952D01*
X193126904Y-91702380D02*
X193126904Y-91035714D01*
X193126904Y-90702380D02*
X193079285Y-90750000D01*
X193126904Y-90797619D01*
X193174523Y-90750000D01*
X193126904Y-90702380D01*
X193126904Y-90797619D01*
X193984047Y-91654761D02*
X193888809Y-91702380D01*
X193698333Y-91702380D01*
X193603095Y-91654761D01*
X193555476Y-91559523D01*
X193555476Y-91178571D01*
X193603095Y-91083333D01*
X193698333Y-91035714D01*
X193888809Y-91035714D01*
X193984047Y-91083333D01*
X194031666Y-91178571D01*
X194031666Y-91273809D01*
X193555476Y-91369047D01*
X194603095Y-91702380D02*
X194507857Y-91654761D01*
X194460238Y-91559523D01*
X194460238Y-90702380D01*
X195412619Y-91702380D02*
X195412619Y-90702380D01*
X195412619Y-91654761D02*
X195317380Y-91702380D01*
X195126904Y-91702380D01*
X195031666Y-91654761D01*
X194984047Y-91607142D01*
X194936428Y-91511904D01*
X194936428Y-91226190D01*
X194984047Y-91130952D01*
X195031666Y-91083333D01*
X195126904Y-91035714D01*
X195317380Y-91035714D01*
X195412619Y-91083333D01*
X185150714Y-92352380D02*
X185388809Y-93352380D01*
X185579285Y-92638095D01*
X185769761Y-93352380D01*
X186007857Y-92352380D01*
X186865000Y-92352380D02*
X186388809Y-92352380D01*
X186341190Y-92828571D01*
X186388809Y-92780952D01*
X186484047Y-92733333D01*
X186722142Y-92733333D01*
X186817380Y-92780952D01*
X186865000Y-92828571D01*
X186912619Y-92923809D01*
X186912619Y-93161904D01*
X186865000Y-93257142D01*
X186817380Y-93304761D01*
X186722142Y-93352380D01*
X186484047Y-93352380D01*
X186388809Y-93304761D01*
X186341190Y-93257142D01*
X187817380Y-92352380D02*
X187341190Y-92352380D01*
X187293571Y-92828571D01*
X187341190Y-92780952D01*
X187436428Y-92733333D01*
X187674523Y-92733333D01*
X187769761Y-92780952D01*
X187817380Y-92828571D01*
X187865000Y-92923809D01*
X187865000Y-93161904D01*
X187817380Y-93257142D01*
X187769761Y-93304761D01*
X187674523Y-93352380D01*
X187436428Y-93352380D01*
X187341190Y-93304761D01*
X187293571Y-93257142D01*
X188769761Y-92352380D02*
X188293571Y-92352380D01*
X188245952Y-92828571D01*
X188293571Y-92780952D01*
X188388809Y-92733333D01*
X188626904Y-92733333D01*
X188722142Y-92780952D01*
X188769761Y-92828571D01*
X188817380Y-92923809D01*
X188817380Y-93161904D01*
X188769761Y-93257142D01*
X188722142Y-93304761D01*
X188626904Y-93352380D01*
X188388809Y-93352380D01*
X188293571Y-93304761D01*
X188245952Y-93257142D01*
X189436428Y-92352380D02*
X189531666Y-92352380D01*
X189626904Y-92400000D01*
X189674523Y-92447619D01*
X189722142Y-92542857D01*
X189769761Y-92733333D01*
X189769761Y-92971428D01*
X189722142Y-93161904D01*
X189674523Y-93257142D01*
X189626904Y-93304761D01*
X189531666Y-93352380D01*
X189436428Y-93352380D01*
X189341190Y-93304761D01*
X189293571Y-93257142D01*
X189245952Y-93161904D01*
X189198333Y-92971428D01*
X189198333Y-92733333D01*
X189245952Y-92542857D01*
X189293571Y-92447619D01*
X189341190Y-92400000D01*
X189436428Y-92352380D01*
X190960238Y-93352380D02*
X190960238Y-92352380D01*
X191531666Y-93352380D01*
X191531666Y-92352380D01*
X191960238Y-93066666D02*
X192436428Y-93066666D01*
X191865000Y-93352380D02*
X192198333Y-92352380D01*
X192531666Y-93352380D01*
X192865000Y-93352380D02*
X192865000Y-92352380D01*
X193436428Y-93352380D01*
X193436428Y-92352380D01*
X194103095Y-92352380D02*
X194293571Y-92352380D01*
X194388809Y-92400000D01*
X194484047Y-92495238D01*
X194531666Y-92685714D01*
X194531666Y-93019047D01*
X194484047Y-93209523D01*
X194388809Y-93304761D01*
X194293571Y-93352380D01*
X194103095Y-93352380D01*
X194007857Y-93304761D01*
X193912619Y-93209523D01*
X193865000Y-93019047D01*
X193865000Y-92685714D01*
X193912619Y-92495238D01*
X194007857Y-92400000D01*
X194103095Y-92352380D01*
D14*
X181610000Y-102235000D02*
X181610000Y-80010000D01*
X198120000Y-102235000D02*
X181610000Y-102235000D01*
X198120000Y-80010000D02*
X198120000Y-102235000D01*
X181610000Y-80010000D02*
X198120000Y-80010000D01*
D15*
X106840714Y-23582380D02*
X106931190Y-23582380D01*
X107021666Y-23630000D01*
X107066904Y-23677619D01*
X107112142Y-23772857D01*
X107157380Y-23963333D01*
X107157380Y-24201428D01*
X107112142Y-24391904D01*
X107066904Y-24487142D01*
X107021666Y-24534761D01*
X106931190Y-24582380D01*
X106840714Y-24582380D01*
X106750238Y-24534761D01*
X106705000Y-24487142D01*
X106659761Y-24391904D01*
X106614523Y-24201428D01*
X106614523Y-23963333D01*
X106659761Y-23772857D01*
X106705000Y-23677619D01*
X106750238Y-23630000D01*
X106840714Y-23582380D01*
X107745476Y-23582380D02*
X107835952Y-23582380D01*
X107926428Y-23630000D01*
X107971666Y-23677619D01*
X108016904Y-23772857D01*
X108062142Y-23963333D01*
X108062142Y-24201428D01*
X108016904Y-24391904D01*
X107971666Y-24487142D01*
X107926428Y-24534761D01*
X107835952Y-24582380D01*
X107745476Y-24582380D01*
X107655000Y-24534761D01*
X107609761Y-24487142D01*
X107564523Y-24391904D01*
X107519285Y-24201428D01*
X107519285Y-23963333D01*
X107564523Y-23772857D01*
X107609761Y-23677619D01*
X107655000Y-23630000D01*
X107745476Y-23582380D01*
X109374047Y-23582380D02*
X109464523Y-23582380D01*
X109555000Y-23630000D01*
X109600238Y-23677619D01*
X109645476Y-23772857D01*
X109690714Y-23963333D01*
X109690714Y-24201428D01*
X109645476Y-24391904D01*
X109600238Y-24487142D01*
X109555000Y-24534761D01*
X109464523Y-24582380D01*
X109374047Y-24582380D01*
X109283571Y-24534761D01*
X109238333Y-24487142D01*
X109193095Y-24391904D01*
X109147857Y-24201428D01*
X109147857Y-23963333D01*
X109193095Y-23772857D01*
X109238333Y-23677619D01*
X109283571Y-23630000D01*
X109374047Y-23582380D01*
X110595476Y-24582380D02*
X110052619Y-24582380D01*
X110324047Y-24582380D02*
X110324047Y-23582380D01*
X110233571Y-23725238D01*
X110143095Y-23820476D01*
X110052619Y-23868095D01*
X111907380Y-23582380D02*
X111997857Y-23582380D01*
X112088333Y-23630000D01*
X112133571Y-23677619D01*
X112178809Y-23772857D01*
X112224047Y-23963333D01*
X112224047Y-24201428D01*
X112178809Y-24391904D01*
X112133571Y-24487142D01*
X112088333Y-24534761D01*
X111997857Y-24582380D01*
X111907380Y-24582380D01*
X111816904Y-24534761D01*
X111771666Y-24487142D01*
X111726428Y-24391904D01*
X111681190Y-24201428D01*
X111681190Y-23963333D01*
X111726428Y-23772857D01*
X111771666Y-23677619D01*
X111816904Y-23630000D01*
X111907380Y-23582380D01*
X112585952Y-23677619D02*
X112631190Y-23630000D01*
X112721666Y-23582380D01*
X112947857Y-23582380D01*
X113038333Y-23630000D01*
X113083571Y-23677619D01*
X113128809Y-23772857D01*
X113128809Y-23868095D01*
X113083571Y-24010952D01*
X112540714Y-24582380D01*
X113128809Y-24582380D01*
X114440714Y-23582380D02*
X114531190Y-23582380D01*
X114621666Y-23630000D01*
X114666904Y-23677619D01*
X114712142Y-23772857D01*
X114757380Y-23963333D01*
X114757380Y-24201428D01*
X114712142Y-24391904D01*
X114666904Y-24487142D01*
X114621666Y-24534761D01*
X114531190Y-24582380D01*
X114440714Y-24582380D01*
X114350238Y-24534761D01*
X114305000Y-24487142D01*
X114259761Y-24391904D01*
X114214523Y-24201428D01*
X114214523Y-23963333D01*
X114259761Y-23772857D01*
X114305000Y-23677619D01*
X114350238Y-23630000D01*
X114440714Y-23582380D01*
X115074047Y-23582380D02*
X115662142Y-23582380D01*
X115345476Y-23963333D01*
X115481190Y-23963333D01*
X115571666Y-24010952D01*
X115616904Y-24058571D01*
X115662142Y-24153809D01*
X115662142Y-24391904D01*
X115616904Y-24487142D01*
X115571666Y-24534761D01*
X115481190Y-24582380D01*
X115209761Y-24582380D01*
X115119285Y-24534761D01*
X115074047Y-24487142D01*
X116974047Y-23582380D02*
X117064523Y-23582380D01*
X117155000Y-23630000D01*
X117200238Y-23677619D01*
X117245476Y-23772857D01*
X117290714Y-23963333D01*
X117290714Y-24201428D01*
X117245476Y-24391904D01*
X117200238Y-24487142D01*
X117155000Y-24534761D01*
X117064523Y-24582380D01*
X116974047Y-24582380D01*
X116883571Y-24534761D01*
X116838333Y-24487142D01*
X116793095Y-24391904D01*
X116747857Y-24201428D01*
X116747857Y-23963333D01*
X116793095Y-23772857D01*
X116838333Y-23677619D01*
X116883571Y-23630000D01*
X116974047Y-23582380D01*
X118105000Y-23915714D02*
X118105000Y-24582380D01*
X117878809Y-23534761D02*
X117652619Y-24249047D01*
X118240714Y-24249047D01*
X119507380Y-23582380D02*
X119597857Y-23582380D01*
X119688333Y-23630000D01*
X119733571Y-23677619D01*
X119778809Y-23772857D01*
X119824047Y-23963333D01*
X119824047Y-24201428D01*
X119778809Y-24391904D01*
X119733571Y-24487142D01*
X119688333Y-24534761D01*
X119597857Y-24582380D01*
X119507380Y-24582380D01*
X119416904Y-24534761D01*
X119371666Y-24487142D01*
X119326428Y-24391904D01*
X119281190Y-24201428D01*
X119281190Y-23963333D01*
X119326428Y-23772857D01*
X119371666Y-23677619D01*
X119416904Y-23630000D01*
X119507380Y-23582380D01*
X120683571Y-23582380D02*
X120231190Y-23582380D01*
X120185952Y-24058571D01*
X120231190Y-24010952D01*
X120321666Y-23963333D01*
X120547857Y-23963333D01*
X120638333Y-24010952D01*
X120683571Y-24058571D01*
X120728809Y-24153809D01*
X120728809Y-24391904D01*
X120683571Y-24487142D01*
X120638333Y-24534761D01*
X120547857Y-24582380D01*
X120321666Y-24582380D01*
X120231190Y-24534761D01*
X120185952Y-24487142D01*
X122040714Y-23582380D02*
X122131190Y-23582380D01*
X122221666Y-23630000D01*
X122266904Y-23677619D01*
X122312142Y-23772857D01*
X122357380Y-23963333D01*
X122357380Y-24201428D01*
X122312142Y-24391904D01*
X122266904Y-24487142D01*
X122221666Y-24534761D01*
X122131190Y-24582380D01*
X122040714Y-24582380D01*
X121950238Y-24534761D01*
X121905000Y-24487142D01*
X121859761Y-24391904D01*
X121814523Y-24201428D01*
X121814523Y-23963333D01*
X121859761Y-23772857D01*
X121905000Y-23677619D01*
X121950238Y-23630000D01*
X122040714Y-23582380D01*
X123171666Y-23582380D02*
X122990714Y-23582380D01*
X122900238Y-23630000D01*
X122855000Y-23677619D01*
X122764523Y-23820476D01*
X122719285Y-24010952D01*
X122719285Y-24391904D01*
X122764523Y-24487142D01*
X122809761Y-24534761D01*
X122900238Y-24582380D01*
X123081190Y-24582380D01*
X123171666Y-24534761D01*
X123216904Y-24487142D01*
X123262142Y-24391904D01*
X123262142Y-24153809D01*
X123216904Y-24058571D01*
X123171666Y-24010952D01*
X123081190Y-23963333D01*
X122900238Y-23963333D01*
X122809761Y-24010952D01*
X122764523Y-24058571D01*
X122719285Y-24153809D01*
X124574047Y-23582380D02*
X124664523Y-23582380D01*
X124755000Y-23630000D01*
X124800238Y-23677619D01*
X124845476Y-23772857D01*
X124890714Y-23963333D01*
X124890714Y-24201428D01*
X124845476Y-24391904D01*
X124800238Y-24487142D01*
X124755000Y-24534761D01*
X124664523Y-24582380D01*
X124574047Y-24582380D01*
X124483571Y-24534761D01*
X124438333Y-24487142D01*
X124393095Y-24391904D01*
X124347857Y-24201428D01*
X124347857Y-23963333D01*
X124393095Y-23772857D01*
X124438333Y-23677619D01*
X124483571Y-23630000D01*
X124574047Y-23582380D01*
X125207380Y-23582380D02*
X125840714Y-23582380D01*
X125433571Y-24582380D01*
X158275714Y-23582380D02*
X158366190Y-23582380D01*
X158456666Y-23630000D01*
X158501904Y-23677619D01*
X158547142Y-23772857D01*
X158592380Y-23963333D01*
X158592380Y-24201428D01*
X158547142Y-24391904D01*
X158501904Y-24487142D01*
X158456666Y-24534761D01*
X158366190Y-24582380D01*
X158275714Y-24582380D01*
X158185238Y-24534761D01*
X158140000Y-24487142D01*
X158094761Y-24391904D01*
X158049523Y-24201428D01*
X158049523Y-23963333D01*
X158094761Y-23772857D01*
X158140000Y-23677619D01*
X158185238Y-23630000D01*
X158275714Y-23582380D01*
X159135238Y-24010952D02*
X159044761Y-23963333D01*
X158999523Y-23915714D01*
X158954285Y-23820476D01*
X158954285Y-23772857D01*
X158999523Y-23677619D01*
X159044761Y-23630000D01*
X159135238Y-23582380D01*
X159316190Y-23582380D01*
X159406666Y-23630000D01*
X159451904Y-23677619D01*
X159497142Y-23772857D01*
X159497142Y-23820476D01*
X159451904Y-23915714D01*
X159406666Y-23963333D01*
X159316190Y-24010952D01*
X159135238Y-24010952D01*
X159044761Y-24058571D01*
X158999523Y-24106190D01*
X158954285Y-24201428D01*
X158954285Y-24391904D01*
X158999523Y-24487142D01*
X159044761Y-24534761D01*
X159135238Y-24582380D01*
X159316190Y-24582380D01*
X159406666Y-24534761D01*
X159451904Y-24487142D01*
X159497142Y-24391904D01*
X159497142Y-24201428D01*
X159451904Y-24106190D01*
X159406666Y-24058571D01*
X159316190Y-24010952D01*
X160809047Y-23582380D02*
X160899523Y-23582380D01*
X160990000Y-23630000D01*
X161035238Y-23677619D01*
X161080476Y-23772857D01*
X161125714Y-23963333D01*
X161125714Y-24201428D01*
X161080476Y-24391904D01*
X161035238Y-24487142D01*
X160990000Y-24534761D01*
X160899523Y-24582380D01*
X160809047Y-24582380D01*
X160718571Y-24534761D01*
X160673333Y-24487142D01*
X160628095Y-24391904D01*
X160582857Y-24201428D01*
X160582857Y-23963333D01*
X160628095Y-23772857D01*
X160673333Y-23677619D01*
X160718571Y-23630000D01*
X160809047Y-23582380D01*
X161578095Y-24582380D02*
X161759047Y-24582380D01*
X161849523Y-24534761D01*
X161894761Y-24487142D01*
X161985238Y-24344285D01*
X162030476Y-24153809D01*
X162030476Y-23772857D01*
X161985238Y-23677619D01*
X161940000Y-23630000D01*
X161849523Y-23582380D01*
X161668571Y-23582380D01*
X161578095Y-23630000D01*
X161532857Y-23677619D01*
X161487619Y-23772857D01*
X161487619Y-24010952D01*
X161532857Y-24106190D01*
X161578095Y-24153809D01*
X161668571Y-24201428D01*
X161849523Y-24201428D01*
X161940000Y-24153809D01*
X161985238Y-24106190D01*
X162030476Y-24010952D01*
X163659047Y-24582380D02*
X163116190Y-24582380D01*
X163387619Y-24582380D02*
X163387619Y-23582380D01*
X163297142Y-23725238D01*
X163206666Y-23820476D01*
X163116190Y-23868095D01*
X164247142Y-23582380D02*
X164337619Y-23582380D01*
X164428095Y-23630000D01*
X164473333Y-23677619D01*
X164518571Y-23772857D01*
X164563809Y-23963333D01*
X164563809Y-24201428D01*
X164518571Y-24391904D01*
X164473333Y-24487142D01*
X164428095Y-24534761D01*
X164337619Y-24582380D01*
X164247142Y-24582380D01*
X164156666Y-24534761D01*
X164111428Y-24487142D01*
X164066190Y-24391904D01*
X164020952Y-24201428D01*
X164020952Y-23963333D01*
X164066190Y-23772857D01*
X164111428Y-23677619D01*
X164156666Y-23630000D01*
X164247142Y-23582380D01*
X166192380Y-24582380D02*
X165649523Y-24582380D01*
X165920952Y-24582380D02*
X165920952Y-23582380D01*
X165830476Y-23725238D01*
X165740000Y-23820476D01*
X165649523Y-23868095D01*
X167097142Y-24582380D02*
X166554285Y-24582380D01*
X166825714Y-24582380D02*
X166825714Y-23582380D01*
X166735238Y-23725238D01*
X166644761Y-23820476D01*
X166554285Y-23868095D01*
X168725714Y-24582380D02*
X168182857Y-24582380D01*
X168454285Y-24582380D02*
X168454285Y-23582380D01*
X168363809Y-23725238D01*
X168273333Y-23820476D01*
X168182857Y-23868095D01*
X169087619Y-23677619D02*
X169132857Y-23630000D01*
X169223333Y-23582380D01*
X169449523Y-23582380D01*
X169540000Y-23630000D01*
X169585238Y-23677619D01*
X169630476Y-23772857D01*
X169630476Y-23868095D01*
X169585238Y-24010952D01*
X169042380Y-24582380D01*
X169630476Y-24582380D01*
X171259047Y-24582380D02*
X170716190Y-24582380D01*
X170987619Y-24582380D02*
X170987619Y-23582380D01*
X170897142Y-23725238D01*
X170806666Y-23820476D01*
X170716190Y-23868095D01*
X171575714Y-23582380D02*
X172163809Y-23582380D01*
X171847142Y-23963333D01*
X171982857Y-23963333D01*
X172073333Y-24010952D01*
X172118571Y-24058571D01*
X172163809Y-24153809D01*
X172163809Y-24391904D01*
X172118571Y-24487142D01*
X172073333Y-24534761D01*
X171982857Y-24582380D01*
X171711428Y-24582380D01*
X171620952Y-24534761D01*
X171575714Y-24487142D01*
X173792380Y-24582380D02*
X173249523Y-24582380D01*
X173520952Y-24582380D02*
X173520952Y-23582380D01*
X173430476Y-23725238D01*
X173340000Y-23820476D01*
X173249523Y-23868095D01*
X174606666Y-23915714D02*
X174606666Y-24582380D01*
X174380476Y-23534761D02*
X174154285Y-24249047D01*
X174742380Y-24249047D01*
X176325714Y-24582380D02*
X175782857Y-24582380D01*
X176054285Y-24582380D02*
X176054285Y-23582380D01*
X175963809Y-23725238D01*
X175873333Y-23820476D01*
X175782857Y-23868095D01*
X177185238Y-23582380D02*
X176732857Y-23582380D01*
X176687619Y-24058571D01*
X176732857Y-24010952D01*
X176823333Y-23963333D01*
X177049523Y-23963333D01*
X177140000Y-24010952D01*
X177185238Y-24058571D01*
X177230476Y-24153809D01*
X177230476Y-24391904D01*
X177185238Y-24487142D01*
X177140000Y-24534761D01*
X177049523Y-24582380D01*
X176823333Y-24582380D01*
X176732857Y-24534761D01*
X176687619Y-24487142D01*
X158049523Y-102417619D02*
X158094761Y-102370000D01*
X158185238Y-102322380D01*
X158411428Y-102322380D01*
X158501904Y-102370000D01*
X158547142Y-102417619D01*
X158592380Y-102512857D01*
X158592380Y-102608095D01*
X158547142Y-102750952D01*
X158004285Y-103322380D01*
X158592380Y-103322380D01*
X158909047Y-102322380D02*
X159497142Y-102322380D01*
X159180476Y-102703333D01*
X159316190Y-102703333D01*
X159406666Y-102750952D01*
X159451904Y-102798571D01*
X159497142Y-102893809D01*
X159497142Y-103131904D01*
X159451904Y-103227142D01*
X159406666Y-103274761D01*
X159316190Y-103322380D01*
X159044761Y-103322380D01*
X158954285Y-103274761D01*
X158909047Y-103227142D01*
X160582857Y-102417619D02*
X160628095Y-102370000D01*
X160718571Y-102322380D01*
X160944761Y-102322380D01*
X161035238Y-102370000D01*
X161080476Y-102417619D01*
X161125714Y-102512857D01*
X161125714Y-102608095D01*
X161080476Y-102750952D01*
X160537619Y-103322380D01*
X161125714Y-103322380D01*
X161487619Y-102417619D02*
X161532857Y-102370000D01*
X161623333Y-102322380D01*
X161849523Y-102322380D01*
X161940000Y-102370000D01*
X161985238Y-102417619D01*
X162030476Y-102512857D01*
X162030476Y-102608095D01*
X161985238Y-102750952D01*
X161442380Y-103322380D01*
X162030476Y-103322380D01*
X163116190Y-102417619D02*
X163161428Y-102370000D01*
X163251904Y-102322380D01*
X163478095Y-102322380D01*
X163568571Y-102370000D01*
X163613809Y-102417619D01*
X163659047Y-102512857D01*
X163659047Y-102608095D01*
X163613809Y-102750952D01*
X163070952Y-103322380D01*
X163659047Y-103322380D01*
X164563809Y-103322380D02*
X164020952Y-103322380D01*
X164292380Y-103322380D02*
X164292380Y-102322380D01*
X164201904Y-102465238D01*
X164111428Y-102560476D01*
X164020952Y-102608095D01*
X165649523Y-102417619D02*
X165694761Y-102370000D01*
X165785238Y-102322380D01*
X166011428Y-102322380D01*
X166101904Y-102370000D01*
X166147142Y-102417619D01*
X166192380Y-102512857D01*
X166192380Y-102608095D01*
X166147142Y-102750952D01*
X165604285Y-103322380D01*
X166192380Y-103322380D01*
X166780476Y-102322380D02*
X166870952Y-102322380D01*
X166961428Y-102370000D01*
X167006666Y-102417619D01*
X167051904Y-102512857D01*
X167097142Y-102703333D01*
X167097142Y-102941428D01*
X167051904Y-103131904D01*
X167006666Y-103227142D01*
X166961428Y-103274761D01*
X166870952Y-103322380D01*
X166780476Y-103322380D01*
X166690000Y-103274761D01*
X166644761Y-103227142D01*
X166599523Y-103131904D01*
X166554285Y-102941428D01*
X166554285Y-102703333D01*
X166599523Y-102512857D01*
X166644761Y-102417619D01*
X166690000Y-102370000D01*
X166780476Y-102322380D01*
X168725714Y-103322380D02*
X168182857Y-103322380D01*
X168454285Y-103322380D02*
X168454285Y-102322380D01*
X168363809Y-102465238D01*
X168273333Y-102560476D01*
X168182857Y-102608095D01*
X169178095Y-103322380D02*
X169359047Y-103322380D01*
X169449523Y-103274761D01*
X169494761Y-103227142D01*
X169585238Y-103084285D01*
X169630476Y-102893809D01*
X169630476Y-102512857D01*
X169585238Y-102417619D01*
X169540000Y-102370000D01*
X169449523Y-102322380D01*
X169268571Y-102322380D01*
X169178095Y-102370000D01*
X169132857Y-102417619D01*
X169087619Y-102512857D01*
X169087619Y-102750952D01*
X169132857Y-102846190D01*
X169178095Y-102893809D01*
X169268571Y-102941428D01*
X169449523Y-102941428D01*
X169540000Y-102893809D01*
X169585238Y-102846190D01*
X169630476Y-102750952D01*
X171259047Y-103322380D02*
X170716190Y-103322380D01*
X170987619Y-103322380D02*
X170987619Y-102322380D01*
X170897142Y-102465238D01*
X170806666Y-102560476D01*
X170716190Y-102608095D01*
X171801904Y-102750952D02*
X171711428Y-102703333D01*
X171666190Y-102655714D01*
X171620952Y-102560476D01*
X171620952Y-102512857D01*
X171666190Y-102417619D01*
X171711428Y-102370000D01*
X171801904Y-102322380D01*
X171982857Y-102322380D01*
X172073333Y-102370000D01*
X172118571Y-102417619D01*
X172163809Y-102512857D01*
X172163809Y-102560476D01*
X172118571Y-102655714D01*
X172073333Y-102703333D01*
X171982857Y-102750952D01*
X171801904Y-102750952D01*
X171711428Y-102798571D01*
X171666190Y-102846190D01*
X171620952Y-102941428D01*
X171620952Y-103131904D01*
X171666190Y-103227142D01*
X171711428Y-103274761D01*
X171801904Y-103322380D01*
X171982857Y-103322380D01*
X172073333Y-103274761D01*
X172118571Y-103227142D01*
X172163809Y-103131904D01*
X172163809Y-102941428D01*
X172118571Y-102846190D01*
X172073333Y-102798571D01*
X171982857Y-102750952D01*
X173792380Y-103322380D02*
X173249523Y-103322380D01*
X173520952Y-103322380D02*
X173520952Y-102322380D01*
X173430476Y-102465238D01*
X173340000Y-102560476D01*
X173249523Y-102608095D01*
X174109047Y-102322380D02*
X174742380Y-102322380D01*
X174335238Y-103322380D01*
X176325714Y-103322380D02*
X175782857Y-103322380D01*
X176054285Y-103322380D02*
X176054285Y-102322380D01*
X175963809Y-102465238D01*
X175873333Y-102560476D01*
X175782857Y-102608095D01*
X177140000Y-102322380D02*
X176959047Y-102322380D01*
X176868571Y-102370000D01*
X176823333Y-102417619D01*
X176732857Y-102560476D01*
X176687619Y-102750952D01*
X176687619Y-103131904D01*
X176732857Y-103227142D01*
X176778095Y-103274761D01*
X176868571Y-103322380D01*
X177049523Y-103322380D01*
X177140000Y-103274761D01*
X177185238Y-103227142D01*
X177230476Y-103131904D01*
X177230476Y-102893809D01*
X177185238Y-102798571D01*
X177140000Y-102750952D01*
X177049523Y-102703333D01*
X176868571Y-102703333D01*
X176778095Y-102750952D01*
X176732857Y-102798571D01*
X176687619Y-102893809D01*
X121174285Y-102322380D02*
X121762380Y-102322380D01*
X121445714Y-102703333D01*
X121581428Y-102703333D01*
X121671904Y-102750952D01*
X121717142Y-102798571D01*
X121762380Y-102893809D01*
X121762380Y-103131904D01*
X121717142Y-103227142D01*
X121671904Y-103274761D01*
X121581428Y-103322380D01*
X121310000Y-103322380D01*
X121219523Y-103274761D01*
X121174285Y-103227142D01*
X122667142Y-103322380D02*
X122124285Y-103322380D01*
X122395714Y-103322380D02*
X122395714Y-102322380D01*
X122305238Y-102465238D01*
X122214761Y-102560476D01*
X122124285Y-102608095D01*
X123707619Y-102322380D02*
X124295714Y-102322380D01*
X123979047Y-102703333D01*
X124114761Y-102703333D01*
X124205238Y-102750952D01*
X124250476Y-102798571D01*
X124295714Y-102893809D01*
X124295714Y-103131904D01*
X124250476Y-103227142D01*
X124205238Y-103274761D01*
X124114761Y-103322380D01*
X123843333Y-103322380D01*
X123752857Y-103274761D01*
X123707619Y-103227142D01*
X124883809Y-102322380D02*
X124974285Y-102322380D01*
X125064761Y-102370000D01*
X125110000Y-102417619D01*
X125155238Y-102512857D01*
X125200476Y-102703333D01*
X125200476Y-102941428D01*
X125155238Y-103131904D01*
X125110000Y-103227142D01*
X125064761Y-103274761D01*
X124974285Y-103322380D01*
X124883809Y-103322380D01*
X124793333Y-103274761D01*
X124748095Y-103227142D01*
X124702857Y-103131904D01*
X124657619Y-102941428D01*
X124657619Y-102703333D01*
X124702857Y-102512857D01*
X124748095Y-102417619D01*
X124793333Y-102370000D01*
X124883809Y-102322380D01*
X126286190Y-102417619D02*
X126331428Y-102370000D01*
X126421904Y-102322380D01*
X126648095Y-102322380D01*
X126738571Y-102370000D01*
X126783809Y-102417619D01*
X126829047Y-102512857D01*
X126829047Y-102608095D01*
X126783809Y-102750952D01*
X126240952Y-103322380D01*
X126829047Y-103322380D01*
X127281428Y-103322380D02*
X127462380Y-103322380D01*
X127552857Y-103274761D01*
X127598095Y-103227142D01*
X127688571Y-103084285D01*
X127733809Y-102893809D01*
X127733809Y-102512857D01*
X127688571Y-102417619D01*
X127643333Y-102370000D01*
X127552857Y-102322380D01*
X127371904Y-102322380D01*
X127281428Y-102370000D01*
X127236190Y-102417619D01*
X127190952Y-102512857D01*
X127190952Y-102750952D01*
X127236190Y-102846190D01*
X127281428Y-102893809D01*
X127371904Y-102941428D01*
X127552857Y-102941428D01*
X127643333Y-102893809D01*
X127688571Y-102846190D01*
X127733809Y-102750952D01*
X128819523Y-102417619D02*
X128864761Y-102370000D01*
X128955238Y-102322380D01*
X129181428Y-102322380D01*
X129271904Y-102370000D01*
X129317142Y-102417619D01*
X129362380Y-102512857D01*
X129362380Y-102608095D01*
X129317142Y-102750952D01*
X128774285Y-103322380D01*
X129362380Y-103322380D01*
X129905238Y-102750952D02*
X129814761Y-102703333D01*
X129769523Y-102655714D01*
X129724285Y-102560476D01*
X129724285Y-102512857D01*
X129769523Y-102417619D01*
X129814761Y-102370000D01*
X129905238Y-102322380D01*
X130086190Y-102322380D01*
X130176666Y-102370000D01*
X130221904Y-102417619D01*
X130267142Y-102512857D01*
X130267142Y-102560476D01*
X130221904Y-102655714D01*
X130176666Y-102703333D01*
X130086190Y-102750952D01*
X129905238Y-102750952D01*
X129814761Y-102798571D01*
X129769523Y-102846190D01*
X129724285Y-102941428D01*
X129724285Y-103131904D01*
X129769523Y-103227142D01*
X129814761Y-103274761D01*
X129905238Y-103322380D01*
X130086190Y-103322380D01*
X130176666Y-103274761D01*
X130221904Y-103227142D01*
X130267142Y-103131904D01*
X130267142Y-102941428D01*
X130221904Y-102846190D01*
X130176666Y-102798571D01*
X130086190Y-102750952D01*
X131352857Y-102417619D02*
X131398095Y-102370000D01*
X131488571Y-102322380D01*
X131714761Y-102322380D01*
X131805238Y-102370000D01*
X131850476Y-102417619D01*
X131895714Y-102512857D01*
X131895714Y-102608095D01*
X131850476Y-102750952D01*
X131307619Y-103322380D01*
X131895714Y-103322380D01*
X132212380Y-102322380D02*
X132845714Y-102322380D01*
X132438571Y-103322380D01*
X133886190Y-102417619D02*
X133931428Y-102370000D01*
X134021904Y-102322380D01*
X134248095Y-102322380D01*
X134338571Y-102370000D01*
X134383809Y-102417619D01*
X134429047Y-102512857D01*
X134429047Y-102608095D01*
X134383809Y-102750952D01*
X133840952Y-103322380D01*
X134429047Y-103322380D01*
X135243333Y-102322380D02*
X135062380Y-102322380D01*
X134971904Y-102370000D01*
X134926666Y-102417619D01*
X134836190Y-102560476D01*
X134790952Y-102750952D01*
X134790952Y-103131904D01*
X134836190Y-103227142D01*
X134881428Y-103274761D01*
X134971904Y-103322380D01*
X135152857Y-103322380D01*
X135243333Y-103274761D01*
X135288571Y-103227142D01*
X135333809Y-103131904D01*
X135333809Y-102893809D01*
X135288571Y-102798571D01*
X135243333Y-102750952D01*
X135152857Y-102703333D01*
X134971904Y-102703333D01*
X134881428Y-102750952D01*
X134836190Y-102798571D01*
X134790952Y-102893809D01*
X136419523Y-102417619D02*
X136464761Y-102370000D01*
X136555238Y-102322380D01*
X136781428Y-102322380D01*
X136871904Y-102370000D01*
X136917142Y-102417619D01*
X136962380Y-102512857D01*
X136962380Y-102608095D01*
X136917142Y-102750952D01*
X136374285Y-103322380D01*
X136962380Y-103322380D01*
X137821904Y-102322380D02*
X137369523Y-102322380D01*
X137324285Y-102798571D01*
X137369523Y-102750952D01*
X137460000Y-102703333D01*
X137686190Y-102703333D01*
X137776666Y-102750952D01*
X137821904Y-102798571D01*
X137867142Y-102893809D01*
X137867142Y-103131904D01*
X137821904Y-103227142D01*
X137776666Y-103274761D01*
X137686190Y-103322380D01*
X137460000Y-103322380D01*
X137369523Y-103274761D01*
X137324285Y-103227142D01*
X138952857Y-102417619D02*
X138998095Y-102370000D01*
X139088571Y-102322380D01*
X139314761Y-102322380D01*
X139405238Y-102370000D01*
X139450476Y-102417619D01*
X139495714Y-102512857D01*
X139495714Y-102608095D01*
X139450476Y-102750952D01*
X138907619Y-103322380D01*
X139495714Y-103322380D01*
X140310000Y-102655714D02*
X140310000Y-103322380D01*
X140083809Y-102274761D02*
X139857619Y-102989047D01*
X140445714Y-102989047D01*
D14*
%TO.C,UO4*%
X127695000Y-77105000D02*
X127695000Y-75455000D01*
X127695000Y-75455000D02*
X104715000Y-75455000D01*
X104715000Y-75455000D02*
X104715000Y-80755000D01*
X104715000Y-80755000D02*
X127695000Y-80755000D01*
X127695000Y-80755000D02*
X127695000Y-79105000D01*
X127755000Y-72965000D02*
X104655000Y-72965000D01*
X104655000Y-72965000D02*
X104655000Y-83245000D01*
X104655000Y-83245000D02*
X127755000Y-83245000D01*
X127755000Y-83245000D02*
X127755000Y-72965000D01*
X127695000Y-79105000D02*
G75*
G02*
X127695000Y-77105000I0J1000000D01*
G01*
%TO.C,A1*%
X180845000Y-78870000D02*
X198885000Y-78870000D01*
X180845000Y-35430000D02*
X180845000Y-78870000D01*
X198885000Y-35430000D02*
X180845000Y-35430000D01*
X196215000Y-38100000D02*
X198885000Y-38100000D01*
X196215000Y-73660000D02*
X196215000Y-38100000D01*
X196215000Y-73660000D02*
X198885000Y-73660000D01*
X183515000Y-38100000D02*
X180845000Y-38100000D01*
X183515000Y-76200000D02*
X183515000Y-38100000D01*
X183515000Y-76200000D02*
X180845000Y-76200000D01*
X198885000Y-78870000D02*
X198885000Y-76200000D01*
X198885000Y-73660000D02*
X198885000Y-35430000D01*
X196215000Y-76200000D02*
X198885000Y-76200000D01*
X196215000Y-73660000D02*
X196215000Y-76200000D01*
%TO.C,R1*%
X130810000Y-55880000D02*
G75*
G03*
X130810000Y-55880000I-1370000J0D01*
G01*
X129440000Y-54510000D02*
X129440000Y-54440000D01*
%TO.C,R2*%
X133985000Y-54510000D02*
X133985000Y-54440000D01*
X135355000Y-55880000D02*
G75*
G03*
X135355000Y-55880000I-1370000J0D01*
G01*
%TO.C,R3*%
X139065000Y-54510000D02*
X139065000Y-54440000D01*
X140435000Y-55880000D02*
G75*
G03*
X140435000Y-55880000I-1370000J0D01*
G01*
%TO.C,U2*%
X125215000Y-60385000D02*
X125215000Y-50105000D01*
X104655000Y-60385000D02*
X125215000Y-60385000D01*
X104655000Y-50105000D02*
X104655000Y-60385000D01*
X125215000Y-50105000D02*
X104655000Y-50105000D01*
X125155000Y-57895000D02*
X125155000Y-56245000D01*
X104715000Y-57895000D02*
X125155000Y-57895000D01*
X104715000Y-52595000D02*
X104715000Y-57895000D01*
X125155000Y-52595000D02*
X104715000Y-52595000D01*
X125155000Y-54245000D02*
X125155000Y-52595000D01*
X125155000Y-56245000D02*
G75*
G02*
X125155000Y-54245000I0J1000000D01*
G01*
%TO.C,U4*%
X172145000Y-54245000D02*
X172145000Y-52595000D01*
X172145000Y-52595000D02*
X151705000Y-52595000D01*
X151705000Y-52595000D02*
X151705000Y-57895000D01*
X151705000Y-57895000D02*
X172145000Y-57895000D01*
X172145000Y-57895000D02*
X172145000Y-56245000D01*
X172205000Y-50105000D02*
X151645000Y-50105000D01*
X151645000Y-50105000D02*
X151645000Y-60385000D01*
X151645000Y-60385000D02*
X172205000Y-60385000D01*
X172205000Y-60385000D02*
X172205000Y-50105000D01*
X172145000Y-56245000D02*
G75*
G02*
X172145000Y-54245000I0J1000000D01*
G01*
%TO.C,U6*%
X151645000Y-61535000D02*
X151645000Y-71815000D01*
X172205000Y-61535000D02*
X151645000Y-61535000D01*
X172205000Y-71815000D02*
X172205000Y-61535000D01*
X151645000Y-71815000D02*
X172205000Y-71815000D01*
X151705000Y-64025000D02*
X151705000Y-65675000D01*
X172145000Y-64025000D02*
X151705000Y-64025000D01*
X172145000Y-69325000D02*
X172145000Y-64025000D01*
X151705000Y-69325000D02*
X172145000Y-69325000D01*
X151705000Y-67675000D02*
X151705000Y-69325000D01*
X151705000Y-65675000D02*
G75*
G02*
X151705000Y-67675000I0J-1000000D01*
G01*
%TO.C,U8*%
X104715000Y-67675000D02*
X104715000Y-69325000D01*
X104715000Y-69325000D02*
X125155000Y-69325000D01*
X125155000Y-69325000D02*
X125155000Y-64025000D01*
X125155000Y-64025000D02*
X104715000Y-64025000D01*
X104715000Y-64025000D02*
X104715000Y-65675000D01*
X104655000Y-71815000D02*
X125215000Y-71815000D01*
X125215000Y-71815000D02*
X125215000Y-61535000D01*
X125215000Y-61535000D02*
X104655000Y-61535000D01*
X104655000Y-61535000D02*
X104655000Y-71815000D01*
X104715000Y-65675000D02*
G75*
G02*
X104715000Y-67675000I0J-1000000D01*
G01*
%TO.C,UO1*%
X104655000Y-38675000D02*
X104655000Y-48955000D01*
X127755000Y-38675000D02*
X104655000Y-38675000D01*
X127755000Y-48955000D02*
X127755000Y-38675000D01*
X104655000Y-48955000D02*
X127755000Y-48955000D01*
X104715000Y-41165000D02*
X104715000Y-42815000D01*
X127695000Y-41165000D02*
X104715000Y-41165000D01*
X127695000Y-46465000D02*
X127695000Y-41165000D01*
X104715000Y-46465000D02*
X127695000Y-46465000D01*
X104715000Y-44815000D02*
X104715000Y-46465000D01*
X104715000Y-42815000D02*
G75*
G02*
X104715000Y-44815000I0J-1000000D01*
G01*
%TO.C,UO2*%
X154245000Y-44815000D02*
X154245000Y-46465000D01*
X154245000Y-46465000D02*
X177225000Y-46465000D01*
X177225000Y-46465000D02*
X177225000Y-41165000D01*
X177225000Y-41165000D02*
X154245000Y-41165000D01*
X154245000Y-41165000D02*
X154245000Y-42815000D01*
X154185000Y-48955000D02*
X177285000Y-48955000D01*
X177285000Y-48955000D02*
X177285000Y-38675000D01*
X177285000Y-38675000D02*
X154185000Y-38675000D01*
X154185000Y-38675000D02*
X154185000Y-48955000D01*
X154245000Y-42815000D02*
G75*
G02*
X154245000Y-44815000I0J-1000000D01*
G01*
%TO.C,UO3*%
X172205000Y-83245000D02*
X172205000Y-72965000D01*
X149105000Y-83245000D02*
X172205000Y-83245000D01*
X149105000Y-72965000D02*
X149105000Y-83245000D01*
X172205000Y-72965000D02*
X149105000Y-72965000D01*
X172145000Y-80755000D02*
X172145000Y-79105000D01*
X149165000Y-80755000D02*
X172145000Y-80755000D01*
X149165000Y-75455000D02*
X149165000Y-80755000D01*
X172145000Y-75455000D02*
X149165000Y-75455000D01*
X172145000Y-77105000D02*
X172145000Y-75455000D01*
X172145000Y-79105000D02*
G75*
G02*
X172145000Y-77105000I0J1000000D01*
G01*
%TO.C,R4*%
X149960000Y-40005000D02*
X150030000Y-40005000D01*
X149960000Y-40005000D02*
G75*
G03*
X149960000Y-40005000I-1370000J0D01*
G01*
%TO.C,R5*%
X149960000Y-43180000D02*
G75*
G03*
X149960000Y-43180000I-1370000J0D01*
G01*
X149960000Y-43180000D02*
X150030000Y-43180000D01*
%TO.C,R6*%
X149960000Y-46355000D02*
X150030000Y-46355000D01*
X149960000Y-46355000D02*
G75*
G03*
X149960000Y-46355000I-1370000J0D01*
G01*
%TO.C,SW1*%
X140293333Y-45085000D02*
X140293333Y-46355000D01*
X138940000Y-46285000D02*
X140293333Y-46285000D01*
X138940000Y-46165000D02*
X140293333Y-46165000D01*
X138940000Y-46045000D02*
X140293333Y-46045000D01*
X138940000Y-45925000D02*
X140293333Y-45925000D01*
X138940000Y-45805000D02*
X140293333Y-45805000D01*
X138940000Y-45685000D02*
X140293333Y-45685000D01*
X138940000Y-45565000D02*
X140293333Y-45565000D01*
X138940000Y-45445000D02*
X140293333Y-45445000D01*
X138940000Y-45325000D02*
X140293333Y-45325000D01*
X138940000Y-45205000D02*
X140293333Y-45205000D01*
X143000000Y-45085000D02*
X138940000Y-45085000D01*
X143000000Y-46355000D02*
X143000000Y-45085000D01*
X138940000Y-46355000D02*
X143000000Y-46355000D01*
X138940000Y-45085000D02*
X138940000Y-46355000D01*
X140293333Y-42545000D02*
X140293333Y-43815000D01*
X138940000Y-43745000D02*
X140293333Y-43745000D01*
X138940000Y-43625000D02*
X140293333Y-43625000D01*
X138940000Y-43505000D02*
X140293333Y-43505000D01*
X138940000Y-43385000D02*
X140293333Y-43385000D01*
X138940000Y-43265000D02*
X140293333Y-43265000D01*
X138940000Y-43145000D02*
X140293333Y-43145000D01*
X138940000Y-43025000D02*
X140293333Y-43025000D01*
X138940000Y-42905000D02*
X140293333Y-42905000D01*
X138940000Y-42785000D02*
X140293333Y-42785000D01*
X138940000Y-42665000D02*
X140293333Y-42665000D01*
X143000000Y-42545000D02*
X138940000Y-42545000D01*
X143000000Y-43815000D02*
X143000000Y-42545000D01*
X138940000Y-43815000D02*
X143000000Y-43815000D01*
X138940000Y-42545000D02*
X138940000Y-43815000D01*
X135780000Y-40520000D02*
X135780000Y-41903000D01*
X135780000Y-40520000D02*
X137164000Y-40520000D01*
X145920000Y-40760000D02*
X145920000Y-48140000D01*
X136020000Y-40760000D02*
X136020000Y-48140000D01*
X136020000Y-48140000D02*
X145920000Y-48140000D01*
X136020000Y-40760000D02*
X145920000Y-40760000D01*
%TO.C,D1*%
X194655000Y-27115000D02*
X194655000Y-27271000D01*
X194655000Y-24799000D02*
X194655000Y-24955000D01*
X197887335Y-24956392D02*
G75*
G03*
X194655000Y-24799484I-1672335J-1078608D01*
G01*
X197887335Y-27113608D02*
G75*
G02*
X194655000Y-27270516I-1672335J1078608D01*
G01*
X197256130Y-24955163D02*
G75*
G03*
X195174039Y-24955000I-1041130J-1079837D01*
G01*
X197256130Y-27114837D02*
G75*
G02*
X195174039Y-27115000I-1041130J1079837D01*
G01*
D16*
%TO.C,J1*%
X127345000Y-37185000D02*
X127345000Y-36635000D01*
X127345000Y-36635000D02*
X127695000Y-36635000D01*
X127695000Y-36635000D02*
X127695000Y-35635000D01*
X127695000Y-35635000D02*
X127345000Y-35635000D01*
X127345000Y-35635000D02*
X127345000Y-31135000D01*
X127345000Y-31135000D02*
X127695000Y-31135000D01*
X127695000Y-31135000D02*
X127695000Y-29135000D01*
X127695000Y-29135000D02*
X127345000Y-29135000D01*
X127345000Y-29135000D02*
X127345000Y-27135000D01*
X127345000Y-27135000D02*
X127695000Y-27135000D01*
X127695000Y-27135000D02*
X127695000Y-26135000D01*
X127695000Y-26135000D02*
X127345000Y-26135000D01*
X127345000Y-26135000D02*
X127345000Y-25285000D01*
X127345000Y-25285000D02*
X105290000Y-25285000D01*
X105290000Y-25285000D02*
X105290000Y-26135000D01*
X105290000Y-27135000D02*
X105290000Y-28635000D01*
X105290000Y-28635000D02*
X105290000Y-29135000D01*
X105290000Y-31135000D02*
X105290000Y-35635000D01*
X105290000Y-36635000D02*
X105290000Y-37185000D01*
X105290000Y-37185000D02*
X127345000Y-37185000D01*
X127345000Y-28635000D02*
X105290000Y-28635000D01*
X125595000Y-28135000D02*
X125595000Y-26635000D01*
X125595000Y-26635000D02*
X124595000Y-26635000D01*
X124595000Y-26635000D02*
X124595000Y-28135000D01*
X124595000Y-28135000D02*
X125595000Y-28135000D01*
X105290000Y-36635000D02*
X105640000Y-36635000D01*
X105640000Y-36635000D02*
X105640000Y-35635000D01*
X105640000Y-35635000D02*
X105290000Y-35635000D01*
X105290000Y-31135000D02*
X105640000Y-31135000D01*
X105640000Y-31135000D02*
X105640000Y-29135000D01*
X105640000Y-29135000D02*
X105290000Y-29135000D01*
X105290000Y-27135000D02*
X105640000Y-27135000D01*
X105640000Y-27135000D02*
X105640000Y-26135000D01*
X105640000Y-26135000D02*
X105290000Y-26135000D01*
X126365000Y-25400000D02*
X126365000Y-37084000D01*
X123055000Y-28135000D02*
X123055000Y-26635000D01*
X123055000Y-26635000D02*
X122055000Y-26635000D01*
X122055000Y-26635000D02*
X122055000Y-28135000D01*
X122055000Y-28135000D02*
X123055000Y-28135000D01*
X123825000Y-25400000D02*
X123825000Y-37084000D01*
X120515000Y-28135000D02*
X120515000Y-26635000D01*
X120515000Y-26635000D02*
X119515000Y-26635000D01*
X119515000Y-26635000D02*
X119515000Y-28135000D01*
X119515000Y-28135000D02*
X120515000Y-28135000D01*
X121285000Y-25400000D02*
X121285000Y-37084000D01*
X117975000Y-28135000D02*
X117975000Y-26635000D01*
X117975000Y-26635000D02*
X116975000Y-26635000D01*
X116975000Y-26635000D02*
X116975000Y-28135000D01*
X116975000Y-28135000D02*
X117975000Y-28135000D01*
X118745000Y-25400000D02*
X118745000Y-37084000D01*
X115435000Y-28135000D02*
X115435000Y-26635000D01*
X115435000Y-26635000D02*
X114435000Y-26635000D01*
X114435000Y-26635000D02*
X114435000Y-28135000D01*
X114435000Y-28135000D02*
X115435000Y-28135000D01*
X116205000Y-25400000D02*
X116205000Y-37084000D01*
X112895000Y-28135000D02*
X112895000Y-26635000D01*
X112895000Y-26635000D02*
X111895000Y-26635000D01*
X111895000Y-26635000D02*
X111895000Y-28135000D01*
X111895000Y-28135000D02*
X112895000Y-28135000D01*
X113665000Y-25400000D02*
X113665000Y-37084000D01*
X110355000Y-28135000D02*
X110355000Y-26635000D01*
X110355000Y-26635000D02*
X109355000Y-26635000D01*
X109355000Y-26635000D02*
X109355000Y-28135000D01*
X109355000Y-28135000D02*
X110355000Y-28135000D01*
X111125000Y-25400000D02*
X111125000Y-37084000D01*
X107815000Y-28135000D02*
X107815000Y-26635000D01*
X107815000Y-26635000D02*
X106815000Y-26635000D01*
X106815000Y-26635000D02*
X106815000Y-28135000D01*
X106815000Y-28135000D02*
X107815000Y-28135000D01*
X108585000Y-25400000D02*
X108585000Y-37084000D01*
X106045000Y-25400000D02*
X106045000Y-37084000D01*
%TO.C,J2*%
X178780000Y-37185000D02*
X178780000Y-36635000D01*
X178780000Y-36635000D02*
X179130000Y-36635000D01*
X179130000Y-36635000D02*
X179130000Y-35635000D01*
X179130000Y-35635000D02*
X178780000Y-35635000D01*
X178780000Y-35635000D02*
X178780000Y-31135000D01*
X178780000Y-31135000D02*
X179130000Y-31135000D01*
X179130000Y-31135000D02*
X179130000Y-29135000D01*
X179130000Y-29135000D02*
X178780000Y-29135000D01*
X178780000Y-29135000D02*
X178780000Y-27135000D01*
X178780000Y-27135000D02*
X179130000Y-27135000D01*
X179130000Y-27135000D02*
X179130000Y-26135000D01*
X179130000Y-26135000D02*
X178780000Y-26135000D01*
X178780000Y-26135000D02*
X178780000Y-25285000D01*
X178780000Y-25285000D02*
X156725000Y-25285000D01*
X156725000Y-25285000D02*
X156725000Y-26135000D01*
X156725000Y-27135000D02*
X156725000Y-28635000D01*
X156725000Y-28635000D02*
X156725000Y-29135000D01*
X156725000Y-31135000D02*
X156725000Y-35635000D01*
X156725000Y-36635000D02*
X156725000Y-37185000D01*
X156725000Y-37185000D02*
X178780000Y-37185000D01*
X178780000Y-28635000D02*
X156725000Y-28635000D01*
X177030000Y-28135000D02*
X177030000Y-26635000D01*
X177030000Y-26635000D02*
X176030000Y-26635000D01*
X176030000Y-26635000D02*
X176030000Y-28135000D01*
X176030000Y-28135000D02*
X177030000Y-28135000D01*
X156725000Y-36635000D02*
X157075000Y-36635000D01*
X157075000Y-36635000D02*
X157075000Y-35635000D01*
X157075000Y-35635000D02*
X156725000Y-35635000D01*
X156725000Y-31135000D02*
X157075000Y-31135000D01*
X157075000Y-31135000D02*
X157075000Y-29135000D01*
X157075000Y-29135000D02*
X156725000Y-29135000D01*
X156725000Y-27135000D02*
X157075000Y-27135000D01*
X157075000Y-27135000D02*
X157075000Y-26135000D01*
X157075000Y-26135000D02*
X156725000Y-26135000D01*
X177800000Y-25400000D02*
X177800000Y-37084000D01*
X174490000Y-28135000D02*
X174490000Y-26635000D01*
X174490000Y-26635000D02*
X173490000Y-26635000D01*
X173490000Y-26635000D02*
X173490000Y-28135000D01*
X173490000Y-28135000D02*
X174490000Y-28135000D01*
X175260000Y-25400000D02*
X175260000Y-37084000D01*
X171950000Y-28135000D02*
X171950000Y-26635000D01*
X171950000Y-26635000D02*
X170950000Y-26635000D01*
X170950000Y-26635000D02*
X170950000Y-28135000D01*
X170950000Y-28135000D02*
X171950000Y-28135000D01*
X172720000Y-25400000D02*
X172720000Y-37084000D01*
X169410000Y-28135000D02*
X169410000Y-26635000D01*
X169410000Y-26635000D02*
X168410000Y-26635000D01*
X168410000Y-26635000D02*
X168410000Y-28135000D01*
X168410000Y-28135000D02*
X169410000Y-28135000D01*
X170180000Y-25400000D02*
X170180000Y-37084000D01*
X166870000Y-28135000D02*
X166870000Y-26635000D01*
X166870000Y-26635000D02*
X165870000Y-26635000D01*
X165870000Y-26635000D02*
X165870000Y-28135000D01*
X165870000Y-28135000D02*
X166870000Y-28135000D01*
X167640000Y-25400000D02*
X167640000Y-37084000D01*
X164330000Y-28135000D02*
X164330000Y-26635000D01*
X164330000Y-26635000D02*
X163330000Y-26635000D01*
X163330000Y-26635000D02*
X163330000Y-28135000D01*
X163330000Y-28135000D02*
X164330000Y-28135000D01*
X165100000Y-25400000D02*
X165100000Y-37084000D01*
X161790000Y-28135000D02*
X161790000Y-26635000D01*
X161790000Y-26635000D02*
X160790000Y-26635000D01*
X160790000Y-26635000D02*
X160790000Y-28135000D01*
X160790000Y-28135000D02*
X161790000Y-28135000D01*
X162560000Y-25400000D02*
X162560000Y-37084000D01*
X159250000Y-28135000D02*
X159250000Y-26635000D01*
X159250000Y-26635000D02*
X158250000Y-26635000D01*
X158250000Y-26635000D02*
X158250000Y-28135000D01*
X158250000Y-28135000D02*
X159250000Y-28135000D01*
X160020000Y-25400000D02*
X160020000Y-37084000D01*
X157480000Y-25400000D02*
X157480000Y-37084000D01*
%TO.C,J3*%
X177800000Y-100965000D02*
X177800000Y-89281000D01*
X175260000Y-100965000D02*
X175260000Y-89281000D01*
X177030000Y-98230000D02*
X176030000Y-98230000D01*
X177030000Y-99730000D02*
X177030000Y-98230000D01*
X176030000Y-99730000D02*
X177030000Y-99730000D01*
X176030000Y-98230000D02*
X176030000Y-99730000D01*
X172720000Y-100965000D02*
X172720000Y-89281000D01*
X174490000Y-98230000D02*
X173490000Y-98230000D01*
X174490000Y-99730000D02*
X174490000Y-98230000D01*
X173490000Y-99730000D02*
X174490000Y-99730000D01*
X173490000Y-98230000D02*
X173490000Y-99730000D01*
X170180000Y-100965000D02*
X170180000Y-89281000D01*
X171950000Y-98230000D02*
X170950000Y-98230000D01*
X171950000Y-99730000D02*
X171950000Y-98230000D01*
X170950000Y-99730000D02*
X171950000Y-99730000D01*
X170950000Y-98230000D02*
X170950000Y-99730000D01*
X167640000Y-100965000D02*
X167640000Y-89281000D01*
X169410000Y-98230000D02*
X168410000Y-98230000D01*
X169410000Y-99730000D02*
X169410000Y-98230000D01*
X168410000Y-99730000D02*
X169410000Y-99730000D01*
X168410000Y-98230000D02*
X168410000Y-99730000D01*
X165100000Y-100965000D02*
X165100000Y-89281000D01*
X166870000Y-98230000D02*
X165870000Y-98230000D01*
X166870000Y-99730000D02*
X166870000Y-98230000D01*
X165870000Y-99730000D02*
X166870000Y-99730000D01*
X165870000Y-98230000D02*
X165870000Y-99730000D01*
X162560000Y-100965000D02*
X162560000Y-89281000D01*
X164330000Y-98230000D02*
X163330000Y-98230000D01*
X164330000Y-99730000D02*
X164330000Y-98230000D01*
X163330000Y-99730000D02*
X164330000Y-99730000D01*
X163330000Y-98230000D02*
X163330000Y-99730000D01*
X160020000Y-100965000D02*
X160020000Y-89281000D01*
X161790000Y-98230000D02*
X160790000Y-98230000D01*
X161790000Y-99730000D02*
X161790000Y-98230000D01*
X160790000Y-99730000D02*
X161790000Y-99730000D01*
X160790000Y-98230000D02*
X160790000Y-99730000D01*
X157480000Y-100965000D02*
X157480000Y-89281000D01*
X178205000Y-100230000D02*
X178555000Y-100230000D01*
X178205000Y-99230000D02*
X178205000Y-100230000D01*
X178555000Y-99230000D02*
X178205000Y-99230000D01*
X178205000Y-97230000D02*
X178555000Y-97230000D01*
X178205000Y-95230000D02*
X178205000Y-97230000D01*
X178555000Y-95230000D02*
X178205000Y-95230000D01*
X178205000Y-90730000D02*
X178555000Y-90730000D01*
X178205000Y-89730000D02*
X178205000Y-90730000D01*
X178555000Y-89730000D02*
X178205000Y-89730000D01*
X159250000Y-98230000D02*
X158250000Y-98230000D01*
X159250000Y-99730000D02*
X159250000Y-98230000D01*
X158250000Y-99730000D02*
X159250000Y-99730000D01*
X158250000Y-98230000D02*
X158250000Y-99730000D01*
X156500000Y-97730000D02*
X178555000Y-97730000D01*
X178555000Y-89180000D02*
X156500000Y-89180000D01*
X178555000Y-89730000D02*
X178555000Y-89180000D01*
X178555000Y-95230000D02*
X178555000Y-90730000D01*
X178555000Y-97730000D02*
X178555000Y-97230000D01*
X178555000Y-99230000D02*
X178555000Y-97730000D01*
X178555000Y-101080000D02*
X178555000Y-100230000D01*
X156500000Y-101080000D02*
X178555000Y-101080000D01*
X156500000Y-100230000D02*
X156500000Y-101080000D01*
X156150000Y-100230000D02*
X156500000Y-100230000D01*
X156150000Y-99230000D02*
X156150000Y-100230000D01*
X156500000Y-99230000D02*
X156150000Y-99230000D01*
X156500000Y-97230000D02*
X156500000Y-99230000D01*
X156150000Y-97230000D02*
X156500000Y-97230000D01*
X156150000Y-95230000D02*
X156150000Y-97230000D01*
X156500000Y-95230000D02*
X156150000Y-95230000D01*
X156500000Y-90730000D02*
X156500000Y-95230000D01*
X156150000Y-90730000D02*
X156500000Y-90730000D01*
X156150000Y-89730000D02*
X156150000Y-90730000D01*
X156500000Y-89730000D02*
X156150000Y-89730000D01*
X156500000Y-89180000D02*
X156500000Y-89730000D01*
%TO.C,J4*%
X140970000Y-101600000D02*
X140970000Y-89916000D01*
X138430000Y-101600000D02*
X138430000Y-89916000D01*
X140200000Y-98865000D02*
X139200000Y-98865000D01*
X140200000Y-100365000D02*
X140200000Y-98865000D01*
X139200000Y-100365000D02*
X140200000Y-100365000D01*
X139200000Y-98865000D02*
X139200000Y-100365000D01*
X135890000Y-101600000D02*
X135890000Y-89916000D01*
X137660000Y-98865000D02*
X136660000Y-98865000D01*
X137660000Y-100365000D02*
X137660000Y-98865000D01*
X136660000Y-100365000D02*
X137660000Y-100365000D01*
X136660000Y-98865000D02*
X136660000Y-100365000D01*
X133350000Y-101600000D02*
X133350000Y-89916000D01*
X135120000Y-98865000D02*
X134120000Y-98865000D01*
X135120000Y-100365000D02*
X135120000Y-98865000D01*
X134120000Y-100365000D02*
X135120000Y-100365000D01*
X134120000Y-98865000D02*
X134120000Y-100365000D01*
X130810000Y-101600000D02*
X130810000Y-89916000D01*
X132580000Y-98865000D02*
X131580000Y-98865000D01*
X132580000Y-100365000D02*
X132580000Y-98865000D01*
X131580000Y-100365000D02*
X132580000Y-100365000D01*
X131580000Y-98865000D02*
X131580000Y-100365000D01*
X128270000Y-101600000D02*
X128270000Y-89916000D01*
X130040000Y-98865000D02*
X129040000Y-98865000D01*
X130040000Y-100365000D02*
X130040000Y-98865000D01*
X129040000Y-100365000D02*
X130040000Y-100365000D01*
X129040000Y-98865000D02*
X129040000Y-100365000D01*
X125730000Y-101600000D02*
X125730000Y-89916000D01*
X127500000Y-98865000D02*
X126500000Y-98865000D01*
X127500000Y-100365000D02*
X127500000Y-98865000D01*
X126500000Y-100365000D02*
X127500000Y-100365000D01*
X126500000Y-98865000D02*
X126500000Y-100365000D01*
X123190000Y-101600000D02*
X123190000Y-89916000D01*
X124960000Y-98865000D02*
X123960000Y-98865000D01*
X124960000Y-100365000D02*
X124960000Y-98865000D01*
X123960000Y-100365000D02*
X124960000Y-100365000D01*
X123960000Y-98865000D02*
X123960000Y-100365000D01*
X120650000Y-101600000D02*
X120650000Y-89916000D01*
X141375000Y-100865000D02*
X141725000Y-100865000D01*
X141375000Y-99865000D02*
X141375000Y-100865000D01*
X141725000Y-99865000D02*
X141375000Y-99865000D01*
X141375000Y-97865000D02*
X141725000Y-97865000D01*
X141375000Y-95865000D02*
X141375000Y-97865000D01*
X141725000Y-95865000D02*
X141375000Y-95865000D01*
X141375000Y-91365000D02*
X141725000Y-91365000D01*
X141375000Y-90365000D02*
X141375000Y-91365000D01*
X141725000Y-90365000D02*
X141375000Y-90365000D01*
X122420000Y-98865000D02*
X121420000Y-98865000D01*
X122420000Y-100365000D02*
X122420000Y-98865000D01*
X121420000Y-100365000D02*
X122420000Y-100365000D01*
X121420000Y-98865000D02*
X121420000Y-100365000D01*
X119670000Y-98365000D02*
X141725000Y-98365000D01*
X141725000Y-89815000D02*
X119670000Y-89815000D01*
X141725000Y-90365000D02*
X141725000Y-89815000D01*
X141725000Y-95865000D02*
X141725000Y-91365000D01*
X141725000Y-98365000D02*
X141725000Y-97865000D01*
X141725000Y-99865000D02*
X141725000Y-98365000D01*
X141725000Y-101715000D02*
X141725000Y-100865000D01*
X119670000Y-101715000D02*
X141725000Y-101715000D01*
X119670000Y-100865000D02*
X119670000Y-101715000D01*
X119320000Y-100865000D02*
X119670000Y-100865000D01*
X119320000Y-99865000D02*
X119320000Y-100865000D01*
X119670000Y-99865000D02*
X119320000Y-99865000D01*
X119670000Y-97865000D02*
X119670000Y-99865000D01*
X119320000Y-97865000D02*
X119670000Y-97865000D01*
X119320000Y-95865000D02*
X119320000Y-97865000D01*
X119670000Y-95865000D02*
X119320000Y-95865000D01*
X119670000Y-91365000D02*
X119670000Y-95865000D01*
X119320000Y-91365000D02*
X119670000Y-91365000D01*
X119320000Y-90365000D02*
X119320000Y-91365000D01*
X119670000Y-90365000D02*
X119320000Y-90365000D01*
X119670000Y-89815000D02*
X119670000Y-90365000D01*
D14*
%TO.C,R7*%
X190400000Y-46450000D02*
X190730000Y-46450000D01*
X190400000Y-39910000D02*
X190400000Y-46450000D01*
X190730000Y-39910000D02*
X190400000Y-39910000D01*
X193140000Y-46450000D02*
X192810000Y-46450000D01*
X193140000Y-39910000D02*
X193140000Y-46450000D01*
X192810000Y-39910000D02*
X193140000Y-39910000D01*
D16*
%TO.C,X1*%
X132715000Y-25400000D02*
X132715000Y-37084000D01*
X135255000Y-25400000D02*
X135255000Y-37084000D01*
X133485000Y-28135000D02*
X134485000Y-28135000D01*
X133485000Y-26635000D02*
X133485000Y-28135000D01*
X134485000Y-26635000D02*
X133485000Y-26635000D01*
X134485000Y-28135000D02*
X134485000Y-26635000D01*
X137795000Y-25400000D02*
X137795000Y-37084000D01*
X132310000Y-26135000D02*
X131960000Y-26135000D01*
X132310000Y-27135000D02*
X132310000Y-26135000D01*
X131960000Y-27135000D02*
X132310000Y-27135000D01*
X132310000Y-29135000D02*
X131960000Y-29135000D01*
X132310000Y-31135000D02*
X132310000Y-29135000D01*
X131960000Y-31135000D02*
X132310000Y-31135000D01*
X132310000Y-35635000D02*
X131960000Y-35635000D01*
X132310000Y-36635000D02*
X132310000Y-35635000D01*
X131960000Y-36635000D02*
X132310000Y-36635000D01*
X136025000Y-28135000D02*
X137025000Y-28135000D01*
X136025000Y-26635000D02*
X136025000Y-28135000D01*
X137025000Y-26635000D02*
X136025000Y-26635000D01*
X137025000Y-28135000D02*
X137025000Y-26635000D01*
X138775000Y-28635000D02*
X131960000Y-28635000D01*
X131960000Y-37185000D02*
X138775000Y-37185000D01*
X131960000Y-36635000D02*
X131960000Y-37185000D01*
X131960000Y-31135000D02*
X131960000Y-35635000D01*
X131960000Y-28635000D02*
X131960000Y-29135000D01*
X131960000Y-27135000D02*
X131960000Y-28635000D01*
X131960000Y-25285000D02*
X131960000Y-26135000D01*
X138775000Y-25285000D02*
X131960000Y-25285000D01*
X138775000Y-26135000D02*
X138775000Y-25285000D01*
X139125000Y-26135000D02*
X138775000Y-26135000D01*
X139125000Y-27135000D02*
X139125000Y-26135000D01*
X138775000Y-27135000D02*
X139125000Y-27135000D01*
X138775000Y-29135000D02*
X138775000Y-27135000D01*
X139125000Y-29135000D02*
X138775000Y-29135000D01*
X139125000Y-31135000D02*
X139125000Y-29135000D01*
X138775000Y-31135000D02*
X139125000Y-31135000D01*
X138775000Y-35635000D02*
X138775000Y-31135000D01*
X139125000Y-35635000D02*
X138775000Y-35635000D01*
X139125000Y-36635000D02*
X139125000Y-35635000D01*
X138775000Y-36635000D02*
X139125000Y-36635000D01*
X138775000Y-37185000D02*
X138775000Y-36635000D01*
%TO.C,X2*%
X107605000Y-90450000D02*
X107605000Y-91000000D01*
X107605000Y-91000000D02*
X107255000Y-91000000D01*
X107255000Y-91000000D02*
X107255000Y-92000000D01*
X107255000Y-92000000D02*
X107605000Y-92000000D01*
X107605000Y-92000000D02*
X107605000Y-96500000D01*
X107605000Y-96500000D02*
X107255000Y-96500000D01*
X107255000Y-96500000D02*
X107255000Y-98500000D01*
X107255000Y-98500000D02*
X107605000Y-98500000D01*
X107605000Y-98500000D02*
X107605000Y-100500000D01*
X107605000Y-100500000D02*
X107255000Y-100500000D01*
X107255000Y-100500000D02*
X107255000Y-101500000D01*
X107255000Y-101500000D02*
X107605000Y-101500000D01*
X107605000Y-101500000D02*
X107605000Y-102350000D01*
X107605000Y-102350000D02*
X114420000Y-102350000D01*
X114420000Y-102350000D02*
X114420000Y-101500000D01*
X114420000Y-100500000D02*
X114420000Y-99000000D01*
X114420000Y-99000000D02*
X114420000Y-98500000D01*
X114420000Y-96500000D02*
X114420000Y-92000000D01*
X114420000Y-91000000D02*
X114420000Y-90450000D01*
X114420000Y-90450000D02*
X107605000Y-90450000D01*
X107605000Y-99000000D02*
X114420000Y-99000000D01*
X109355000Y-99500000D02*
X109355000Y-101000000D01*
X109355000Y-101000000D02*
X110355000Y-101000000D01*
X110355000Y-101000000D02*
X110355000Y-99500000D01*
X110355000Y-99500000D02*
X109355000Y-99500000D01*
X114420000Y-91000000D02*
X114070000Y-91000000D01*
X114070000Y-91000000D02*
X114070000Y-92000000D01*
X114070000Y-92000000D02*
X114420000Y-92000000D01*
X114420000Y-96500000D02*
X114070000Y-96500000D01*
X114070000Y-96500000D02*
X114070000Y-98500000D01*
X114070000Y-98500000D02*
X114420000Y-98500000D01*
X114420000Y-100500000D02*
X114070000Y-100500000D01*
X114070000Y-100500000D02*
X114070000Y-101500000D01*
X114070000Y-101500000D02*
X114420000Y-101500000D01*
X108585000Y-102235000D02*
X108585000Y-90551000D01*
X111895000Y-99500000D02*
X111895000Y-101000000D01*
X111895000Y-101000000D02*
X112895000Y-101000000D01*
X112895000Y-101000000D02*
X112895000Y-99500000D01*
X112895000Y-99500000D02*
X111895000Y-99500000D01*
X111125000Y-102235000D02*
X111125000Y-90551000D01*
X113665000Y-102235000D02*
X113665000Y-90551000D01*
%TO.C,UO4*%
D13*
X128147380Y-79390714D02*
X128956904Y-79390714D01*
X129052142Y-79343095D01*
X129099761Y-79295476D01*
X129147380Y-79200238D01*
X129147380Y-79009761D01*
X129099761Y-78914523D01*
X129052142Y-78866904D01*
X128956904Y-78819285D01*
X128147380Y-78819285D01*
X128147380Y-78152619D02*
X128147380Y-77962142D01*
X128195000Y-77866904D01*
X128290238Y-77771666D01*
X128480714Y-77724047D01*
X128814047Y-77724047D01*
X129004523Y-77771666D01*
X129099761Y-77866904D01*
X129147380Y-77962142D01*
X129147380Y-78152619D01*
X129099761Y-78247857D01*
X129004523Y-78343095D01*
X128814047Y-78390714D01*
X128480714Y-78390714D01*
X128290238Y-78343095D01*
X128195000Y-78247857D01*
X128147380Y-78152619D01*
X128480714Y-76866904D02*
X129147380Y-76866904D01*
X128099761Y-77105000D02*
X128814047Y-77343095D01*
X128814047Y-76724047D01*
X129627380Y-81652619D02*
X130436904Y-81652619D01*
X130532142Y-81605000D01*
X130579761Y-81557380D01*
X130627380Y-81462142D01*
X130627380Y-81271666D01*
X130579761Y-81176428D01*
X130532142Y-81128809D01*
X130436904Y-81081190D01*
X129627380Y-81081190D01*
X130627380Y-80128809D02*
X130627380Y-80605000D01*
X129627380Y-80605000D01*
X130627380Y-79795476D02*
X129627380Y-79795476D01*
X130627380Y-79224047D01*
X129627380Y-79224047D01*
X129722619Y-78795476D02*
X129675000Y-78747857D01*
X129627380Y-78652619D01*
X129627380Y-78414523D01*
X129675000Y-78319285D01*
X129722619Y-78271666D01*
X129817857Y-78224047D01*
X129913095Y-78224047D01*
X130055952Y-78271666D01*
X130627380Y-78843095D01*
X130627380Y-78224047D01*
X130055952Y-77652619D02*
X130008333Y-77747857D01*
X129960714Y-77795476D01*
X129865476Y-77843095D01*
X129817857Y-77843095D01*
X129722619Y-77795476D01*
X129675000Y-77747857D01*
X129627380Y-77652619D01*
X129627380Y-77462142D01*
X129675000Y-77366904D01*
X129722619Y-77319285D01*
X129817857Y-77271666D01*
X129865476Y-77271666D01*
X129960714Y-77319285D01*
X130008333Y-77366904D01*
X130055952Y-77462142D01*
X130055952Y-77652619D01*
X130103571Y-77747857D01*
X130151190Y-77795476D01*
X130246428Y-77843095D01*
X130436904Y-77843095D01*
X130532142Y-77795476D01*
X130579761Y-77747857D01*
X130627380Y-77652619D01*
X130627380Y-77462142D01*
X130579761Y-77366904D01*
X130532142Y-77319285D01*
X130436904Y-77271666D01*
X130246428Y-77271666D01*
X130151190Y-77319285D01*
X130103571Y-77366904D01*
X130055952Y-77462142D01*
X129627380Y-76652619D02*
X129627380Y-76557380D01*
X129675000Y-76462142D01*
X129722619Y-76414523D01*
X129817857Y-76366904D01*
X130008333Y-76319285D01*
X130246428Y-76319285D01*
X130436904Y-76366904D01*
X130532142Y-76414523D01*
X130579761Y-76462142D01*
X130627380Y-76557380D01*
X130627380Y-76652619D01*
X130579761Y-76747857D01*
X130532142Y-76795476D01*
X130436904Y-76843095D01*
X130246428Y-76890714D01*
X130008333Y-76890714D01*
X129817857Y-76843095D01*
X129722619Y-76795476D01*
X129675000Y-76747857D01*
X129627380Y-76652619D01*
X129627380Y-75985952D02*
X129627380Y-75366904D01*
X130008333Y-75700238D01*
X130008333Y-75557380D01*
X130055952Y-75462142D01*
X130103571Y-75414523D01*
X130198809Y-75366904D01*
X130436904Y-75366904D01*
X130532142Y-75414523D01*
X130579761Y-75462142D01*
X130627380Y-75557380D01*
X130627380Y-75843095D01*
X130579761Y-75938333D01*
X130532142Y-75985952D01*
X130341666Y-74985952D02*
X130341666Y-74509761D01*
X130627380Y-75081190D02*
X129627380Y-74747857D01*
X130627380Y-74414523D01*
%TO.C,REF\u002A\u002A*%
X108521666Y-84582380D02*
X108188333Y-84106190D01*
X107950238Y-84582380D02*
X107950238Y-83582380D01*
X108331190Y-83582380D01*
X108426428Y-83630000D01*
X108474047Y-83677619D01*
X108521666Y-83772857D01*
X108521666Y-83915714D01*
X108474047Y-84010952D01*
X108426428Y-84058571D01*
X108331190Y-84106190D01*
X107950238Y-84106190D01*
X108950238Y-84058571D02*
X109283571Y-84058571D01*
X109426428Y-84582380D02*
X108950238Y-84582380D01*
X108950238Y-83582380D01*
X109426428Y-83582380D01*
X110188333Y-84058571D02*
X109855000Y-84058571D01*
X109855000Y-84582380D02*
X109855000Y-83582380D01*
X110331190Y-83582380D01*
X110855000Y-83582380D02*
X110855000Y-83820476D01*
X110616904Y-83725238D02*
X110855000Y-83820476D01*
X111093095Y-83725238D01*
X110712142Y-84010952D02*
X110855000Y-83820476D01*
X110997857Y-84010952D01*
X111616904Y-83582380D02*
X111616904Y-83820476D01*
X111378809Y-83725238D02*
X111616904Y-83820476D01*
X111855000Y-83725238D01*
X111474047Y-84010952D02*
X111616904Y-83820476D01*
X111759761Y-84010952D01*
%TO.C,A1*%
X189150714Y-34456666D02*
X189626904Y-34456666D01*
X189055476Y-34742380D02*
X189388809Y-33742380D01*
X189722142Y-34742380D01*
X190579285Y-34742380D02*
X190007857Y-34742380D01*
X190293571Y-34742380D02*
X190293571Y-33742380D01*
X190198333Y-33885238D01*
X190103095Y-33980476D01*
X190007857Y-34028095D01*
%TO.C,R1*%
X127522380Y-54776666D02*
X127046190Y-55110000D01*
X127522380Y-55348095D02*
X126522380Y-55348095D01*
X126522380Y-54967142D01*
X126570000Y-54871904D01*
X126617619Y-54824285D01*
X126712857Y-54776666D01*
X126855714Y-54776666D01*
X126950952Y-54824285D01*
X126998571Y-54871904D01*
X127046190Y-54967142D01*
X127046190Y-55348095D01*
X127522380Y-53824285D02*
X127522380Y-54395714D01*
X127522380Y-54110000D02*
X126522380Y-54110000D01*
X126665238Y-54205238D01*
X126760476Y-54300476D01*
X126808095Y-54395714D01*
%TO.C,R2*%
X132067380Y-54776666D02*
X131591190Y-55110000D01*
X132067380Y-55348095D02*
X131067380Y-55348095D01*
X131067380Y-54967142D01*
X131115000Y-54871904D01*
X131162619Y-54824285D01*
X131257857Y-54776666D01*
X131400714Y-54776666D01*
X131495952Y-54824285D01*
X131543571Y-54871904D01*
X131591190Y-54967142D01*
X131591190Y-55348095D01*
X131162619Y-54395714D02*
X131115000Y-54348095D01*
X131067380Y-54252857D01*
X131067380Y-54014761D01*
X131115000Y-53919523D01*
X131162619Y-53871904D01*
X131257857Y-53824285D01*
X131353095Y-53824285D01*
X131495952Y-53871904D01*
X132067380Y-54443333D01*
X132067380Y-53824285D01*
%TO.C,R3*%
X137147380Y-54776666D02*
X136671190Y-55110000D01*
X137147380Y-55348095D02*
X136147380Y-55348095D01*
X136147380Y-54967142D01*
X136195000Y-54871904D01*
X136242619Y-54824285D01*
X136337857Y-54776666D01*
X136480714Y-54776666D01*
X136575952Y-54824285D01*
X136623571Y-54871904D01*
X136671190Y-54967142D01*
X136671190Y-55348095D01*
X136147380Y-54443333D02*
X136147380Y-53824285D01*
X136528333Y-54157619D01*
X136528333Y-54014761D01*
X136575952Y-53919523D01*
X136623571Y-53871904D01*
X136718809Y-53824285D01*
X136956904Y-53824285D01*
X137052142Y-53871904D01*
X137099761Y-53919523D01*
X137147380Y-54014761D01*
X137147380Y-54300476D01*
X137099761Y-54395714D01*
X137052142Y-54443333D01*
%TO.C,U2*%
X125607380Y-56006904D02*
X126416904Y-56006904D01*
X126512142Y-55959285D01*
X126559761Y-55911666D01*
X126607380Y-55816428D01*
X126607380Y-55625952D01*
X126559761Y-55530714D01*
X126512142Y-55483095D01*
X126416904Y-55435476D01*
X125607380Y-55435476D01*
X125702619Y-55006904D02*
X125655000Y-54959285D01*
X125607380Y-54864047D01*
X125607380Y-54625952D01*
X125655000Y-54530714D01*
X125702619Y-54483095D01*
X125797857Y-54435476D01*
X125893095Y-54435476D01*
X126035952Y-54483095D01*
X126607380Y-55054523D01*
X126607380Y-54435476D01*
%TO.C,U4*%
X172597380Y-56006904D02*
X173406904Y-56006904D01*
X173502142Y-55959285D01*
X173549761Y-55911666D01*
X173597380Y-55816428D01*
X173597380Y-55625952D01*
X173549761Y-55530714D01*
X173502142Y-55483095D01*
X173406904Y-55435476D01*
X172597380Y-55435476D01*
X172930714Y-54530714D02*
X173597380Y-54530714D01*
X172549761Y-54768809D02*
X173264047Y-55006904D01*
X173264047Y-54387857D01*
X150157380Y-58506904D02*
X150157380Y-57840238D01*
X151157380Y-58268809D01*
X150490714Y-57030714D02*
X151157380Y-57030714D01*
X150109761Y-57268809D02*
X150824047Y-57506904D01*
X150824047Y-56887857D01*
X151157380Y-56506904D02*
X150157380Y-56506904D01*
X150633571Y-56506904D02*
X150633571Y-55935476D01*
X151157380Y-55935476D02*
X150157380Y-55935476D01*
X151062142Y-54887857D02*
X151109761Y-54935476D01*
X151157380Y-55078333D01*
X151157380Y-55173571D01*
X151109761Y-55316428D01*
X151014523Y-55411666D01*
X150919285Y-55459285D01*
X150728809Y-55506904D01*
X150585952Y-55506904D01*
X150395476Y-55459285D01*
X150300238Y-55411666D01*
X150205000Y-55316428D01*
X150157380Y-55173571D01*
X150157380Y-55078333D01*
X150205000Y-54935476D01*
X150252619Y-54887857D01*
X150157380Y-53983095D02*
X150157380Y-54459285D01*
X150633571Y-54506904D01*
X150585952Y-54459285D01*
X150538333Y-54364047D01*
X150538333Y-54125952D01*
X150585952Y-54030714D01*
X150633571Y-53983095D01*
X150728809Y-53935476D01*
X150966904Y-53935476D01*
X151062142Y-53983095D01*
X151109761Y-54030714D01*
X151157380Y-54125952D01*
X151157380Y-54364047D01*
X151109761Y-54459285D01*
X151062142Y-54506904D01*
X151157380Y-53459285D02*
X151157380Y-53268809D01*
X151109761Y-53173571D01*
X151062142Y-53125952D01*
X150919285Y-53030714D01*
X150728809Y-52983095D01*
X150347857Y-52983095D01*
X150252619Y-53030714D01*
X150205000Y-53078333D01*
X150157380Y-53173571D01*
X150157380Y-53364047D01*
X150205000Y-53459285D01*
X150252619Y-53506904D01*
X150347857Y-53554523D01*
X150585952Y-53554523D01*
X150681190Y-53506904D01*
X150728809Y-53459285D01*
X150776428Y-53364047D01*
X150776428Y-53173571D01*
X150728809Y-53078333D01*
X150681190Y-53030714D01*
X150585952Y-52983095D01*
X150157380Y-52078333D02*
X150157380Y-52554523D01*
X150633571Y-52602142D01*
X150585952Y-52554523D01*
X150538333Y-52459285D01*
X150538333Y-52221190D01*
X150585952Y-52125952D01*
X150633571Y-52078333D01*
X150728809Y-52030714D01*
X150966904Y-52030714D01*
X151062142Y-52078333D01*
X151109761Y-52125952D01*
X151157380Y-52221190D01*
X151157380Y-52459285D01*
X151109761Y-52554523D01*
X151062142Y-52602142D01*
%TO.C,U6*%
X150157380Y-67436904D02*
X150966904Y-67436904D01*
X151062142Y-67389285D01*
X151109761Y-67341666D01*
X151157380Y-67246428D01*
X151157380Y-67055952D01*
X151109761Y-66960714D01*
X151062142Y-66913095D01*
X150966904Y-66865476D01*
X150157380Y-66865476D01*
X150157380Y-65960714D02*
X150157380Y-66151190D01*
X150205000Y-66246428D01*
X150252619Y-66294047D01*
X150395476Y-66389285D01*
X150585952Y-66436904D01*
X150966904Y-66436904D01*
X151062142Y-66389285D01*
X151109761Y-66341666D01*
X151157380Y-66246428D01*
X151157380Y-66055952D01*
X151109761Y-65960714D01*
X151062142Y-65913095D01*
X150966904Y-65865476D01*
X150728809Y-65865476D01*
X150633571Y-65913095D01*
X150585952Y-65960714D01*
X150538333Y-66055952D01*
X150538333Y-66246428D01*
X150585952Y-66341666D01*
X150633571Y-66389285D01*
X150728809Y-66436904D01*
X172807380Y-69936904D02*
X172807380Y-69270238D01*
X173807380Y-69698809D01*
X173140714Y-68460714D02*
X173807380Y-68460714D01*
X172759761Y-68698809D02*
X173474047Y-68936904D01*
X173474047Y-68317857D01*
X173807380Y-67936904D02*
X172807380Y-67936904D01*
X173283571Y-67936904D02*
X173283571Y-67365476D01*
X173807380Y-67365476D02*
X172807380Y-67365476D01*
X173712142Y-66317857D02*
X173759761Y-66365476D01*
X173807380Y-66508333D01*
X173807380Y-66603571D01*
X173759761Y-66746428D01*
X173664523Y-66841666D01*
X173569285Y-66889285D01*
X173378809Y-66936904D01*
X173235952Y-66936904D01*
X173045476Y-66889285D01*
X172950238Y-66841666D01*
X172855000Y-66746428D01*
X172807380Y-66603571D01*
X172807380Y-66508333D01*
X172855000Y-66365476D01*
X172902619Y-66317857D01*
X172807380Y-65413095D02*
X172807380Y-65889285D01*
X173283571Y-65936904D01*
X173235952Y-65889285D01*
X173188333Y-65794047D01*
X173188333Y-65555952D01*
X173235952Y-65460714D01*
X173283571Y-65413095D01*
X173378809Y-65365476D01*
X173616904Y-65365476D01*
X173712142Y-65413095D01*
X173759761Y-65460714D01*
X173807380Y-65555952D01*
X173807380Y-65794047D01*
X173759761Y-65889285D01*
X173712142Y-65936904D01*
X173807380Y-64889285D02*
X173807380Y-64698809D01*
X173759761Y-64603571D01*
X173712142Y-64555952D01*
X173569285Y-64460714D01*
X173378809Y-64413095D01*
X172997857Y-64413095D01*
X172902619Y-64460714D01*
X172855000Y-64508333D01*
X172807380Y-64603571D01*
X172807380Y-64794047D01*
X172855000Y-64889285D01*
X172902619Y-64936904D01*
X172997857Y-64984523D01*
X173235952Y-64984523D01*
X173331190Y-64936904D01*
X173378809Y-64889285D01*
X173426428Y-64794047D01*
X173426428Y-64603571D01*
X173378809Y-64508333D01*
X173331190Y-64460714D01*
X173235952Y-64413095D01*
X172807380Y-63508333D02*
X172807380Y-63984523D01*
X173283571Y-64032142D01*
X173235952Y-63984523D01*
X173188333Y-63889285D01*
X173188333Y-63651190D01*
X173235952Y-63555952D01*
X173283571Y-63508333D01*
X173378809Y-63460714D01*
X173616904Y-63460714D01*
X173712142Y-63508333D01*
X173759761Y-63555952D01*
X173807380Y-63651190D01*
X173807380Y-63889285D01*
X173759761Y-63984523D01*
X173712142Y-64032142D01*
%TO.C,U8*%
X103167380Y-67436904D02*
X103976904Y-67436904D01*
X104072142Y-67389285D01*
X104119761Y-67341666D01*
X104167380Y-67246428D01*
X104167380Y-67055952D01*
X104119761Y-66960714D01*
X104072142Y-66913095D01*
X103976904Y-66865476D01*
X103167380Y-66865476D01*
X103595952Y-66246428D02*
X103548333Y-66341666D01*
X103500714Y-66389285D01*
X103405476Y-66436904D01*
X103357857Y-66436904D01*
X103262619Y-66389285D01*
X103215000Y-66341666D01*
X103167380Y-66246428D01*
X103167380Y-66055952D01*
X103215000Y-65960714D01*
X103262619Y-65913095D01*
X103357857Y-65865476D01*
X103405476Y-65865476D01*
X103500714Y-65913095D01*
X103548333Y-65960714D01*
X103595952Y-66055952D01*
X103595952Y-66246428D01*
X103643571Y-66341666D01*
X103691190Y-66389285D01*
X103786428Y-66436904D01*
X103976904Y-66436904D01*
X104072142Y-66389285D01*
X104119761Y-66341666D01*
X104167380Y-66246428D01*
X104167380Y-66055952D01*
X104119761Y-65960714D01*
X104072142Y-65913095D01*
X103976904Y-65865476D01*
X103786428Y-65865476D01*
X103691190Y-65913095D01*
X103643571Y-65960714D01*
X103595952Y-66055952D01*
X125817380Y-70571904D02*
X125817380Y-69905238D01*
X126817380Y-70333809D01*
X126150714Y-69095714D02*
X126817380Y-69095714D01*
X125769761Y-69333809D02*
X126484047Y-69571904D01*
X126484047Y-68952857D01*
X126817380Y-68571904D02*
X125817380Y-68571904D01*
X126293571Y-68571904D02*
X126293571Y-68000476D01*
X126817380Y-68000476D02*
X125817380Y-68000476D01*
X126722142Y-66952857D02*
X126769761Y-67000476D01*
X126817380Y-67143333D01*
X126817380Y-67238571D01*
X126769761Y-67381428D01*
X126674523Y-67476666D01*
X126579285Y-67524285D01*
X126388809Y-67571904D01*
X126245952Y-67571904D01*
X126055476Y-67524285D01*
X125960238Y-67476666D01*
X125865000Y-67381428D01*
X125817380Y-67238571D01*
X125817380Y-67143333D01*
X125865000Y-67000476D01*
X125912619Y-66952857D01*
X125817380Y-66048095D02*
X125817380Y-66524285D01*
X126293571Y-66571904D01*
X126245952Y-66524285D01*
X126198333Y-66429047D01*
X126198333Y-66190952D01*
X126245952Y-66095714D01*
X126293571Y-66048095D01*
X126388809Y-66000476D01*
X126626904Y-66000476D01*
X126722142Y-66048095D01*
X126769761Y-66095714D01*
X126817380Y-66190952D01*
X126817380Y-66429047D01*
X126769761Y-66524285D01*
X126722142Y-66571904D01*
X126817380Y-65524285D02*
X126817380Y-65333809D01*
X126769761Y-65238571D01*
X126722142Y-65190952D01*
X126579285Y-65095714D01*
X126388809Y-65048095D01*
X126007857Y-65048095D01*
X125912619Y-65095714D01*
X125865000Y-65143333D01*
X125817380Y-65238571D01*
X125817380Y-65429047D01*
X125865000Y-65524285D01*
X125912619Y-65571904D01*
X126007857Y-65619523D01*
X126245952Y-65619523D01*
X126341190Y-65571904D01*
X126388809Y-65524285D01*
X126436428Y-65429047D01*
X126436428Y-65238571D01*
X126388809Y-65143333D01*
X126341190Y-65095714D01*
X126245952Y-65048095D01*
X125817380Y-64143333D02*
X125817380Y-64619523D01*
X126293571Y-64667142D01*
X126245952Y-64619523D01*
X126198333Y-64524285D01*
X126198333Y-64286190D01*
X126245952Y-64190952D01*
X126293571Y-64143333D01*
X126388809Y-64095714D01*
X126626904Y-64095714D01*
X126722142Y-64143333D01*
X126769761Y-64190952D01*
X126817380Y-64286190D01*
X126817380Y-64524285D01*
X126769761Y-64619523D01*
X126722142Y-64667142D01*
%TO.C,UO1*%
X129627380Y-46370714D02*
X130436904Y-46370714D01*
X130532142Y-46323095D01*
X130579761Y-46275476D01*
X130627380Y-46180238D01*
X130627380Y-45989761D01*
X130579761Y-45894523D01*
X130532142Y-45846904D01*
X130436904Y-45799285D01*
X129627380Y-45799285D01*
X129627380Y-45132619D02*
X129627380Y-44942142D01*
X129675000Y-44846904D01*
X129770238Y-44751666D01*
X129960714Y-44704047D01*
X130294047Y-44704047D01*
X130484523Y-44751666D01*
X130579761Y-44846904D01*
X130627380Y-44942142D01*
X130627380Y-45132619D01*
X130579761Y-45227857D01*
X130484523Y-45323095D01*
X130294047Y-45370714D01*
X129960714Y-45370714D01*
X129770238Y-45323095D01*
X129675000Y-45227857D01*
X129627380Y-45132619D01*
X130627380Y-43751666D02*
X130627380Y-44323095D01*
X130627380Y-44037380D02*
X129627380Y-44037380D01*
X129770238Y-44132619D01*
X129865476Y-44227857D01*
X129913095Y-44323095D01*
X128147380Y-47362619D02*
X128956904Y-47362619D01*
X129052142Y-47315000D01*
X129099761Y-47267380D01*
X129147380Y-47172142D01*
X129147380Y-46981666D01*
X129099761Y-46886428D01*
X129052142Y-46838809D01*
X128956904Y-46791190D01*
X128147380Y-46791190D01*
X129147380Y-45838809D02*
X129147380Y-46315000D01*
X128147380Y-46315000D01*
X129147380Y-45505476D02*
X128147380Y-45505476D01*
X129147380Y-44934047D01*
X128147380Y-44934047D01*
X128242619Y-44505476D02*
X128195000Y-44457857D01*
X128147380Y-44362619D01*
X128147380Y-44124523D01*
X128195000Y-44029285D01*
X128242619Y-43981666D01*
X128337857Y-43934047D01*
X128433095Y-43934047D01*
X128575952Y-43981666D01*
X129147380Y-44553095D01*
X129147380Y-43934047D01*
X128575952Y-43362619D02*
X128528333Y-43457857D01*
X128480714Y-43505476D01*
X128385476Y-43553095D01*
X128337857Y-43553095D01*
X128242619Y-43505476D01*
X128195000Y-43457857D01*
X128147380Y-43362619D01*
X128147380Y-43172142D01*
X128195000Y-43076904D01*
X128242619Y-43029285D01*
X128337857Y-42981666D01*
X128385476Y-42981666D01*
X128480714Y-43029285D01*
X128528333Y-43076904D01*
X128575952Y-43172142D01*
X128575952Y-43362619D01*
X128623571Y-43457857D01*
X128671190Y-43505476D01*
X128766428Y-43553095D01*
X128956904Y-43553095D01*
X129052142Y-43505476D01*
X129099761Y-43457857D01*
X129147380Y-43362619D01*
X129147380Y-43172142D01*
X129099761Y-43076904D01*
X129052142Y-43029285D01*
X128956904Y-42981666D01*
X128766428Y-42981666D01*
X128671190Y-43029285D01*
X128623571Y-43076904D01*
X128575952Y-43172142D01*
X128147380Y-42362619D02*
X128147380Y-42267380D01*
X128195000Y-42172142D01*
X128242619Y-42124523D01*
X128337857Y-42076904D01*
X128528333Y-42029285D01*
X128766428Y-42029285D01*
X128956904Y-42076904D01*
X129052142Y-42124523D01*
X129099761Y-42172142D01*
X129147380Y-42267380D01*
X129147380Y-42362619D01*
X129099761Y-42457857D01*
X129052142Y-42505476D01*
X128956904Y-42553095D01*
X128766428Y-42600714D01*
X128528333Y-42600714D01*
X128337857Y-42553095D01*
X128242619Y-42505476D01*
X128195000Y-42457857D01*
X128147380Y-42362619D01*
X128147380Y-41695952D02*
X128147380Y-41076904D01*
X128528333Y-41410238D01*
X128528333Y-41267380D01*
X128575952Y-41172142D01*
X128623571Y-41124523D01*
X128718809Y-41076904D01*
X128956904Y-41076904D01*
X129052142Y-41124523D01*
X129099761Y-41172142D01*
X129147380Y-41267380D01*
X129147380Y-41553095D01*
X129099761Y-41648333D01*
X129052142Y-41695952D01*
X128861666Y-40695952D02*
X128861666Y-40219761D01*
X129147380Y-40791190D02*
X128147380Y-40457857D01*
X129147380Y-40124523D01*
%TO.C,UO2*%
X152697380Y-45100714D02*
X153506904Y-45100714D01*
X153602142Y-45053095D01*
X153649761Y-45005476D01*
X153697380Y-44910238D01*
X153697380Y-44719761D01*
X153649761Y-44624523D01*
X153602142Y-44576904D01*
X153506904Y-44529285D01*
X152697380Y-44529285D01*
X152697380Y-43862619D02*
X152697380Y-43672142D01*
X152745000Y-43576904D01*
X152840238Y-43481666D01*
X153030714Y-43434047D01*
X153364047Y-43434047D01*
X153554523Y-43481666D01*
X153649761Y-43576904D01*
X153697380Y-43672142D01*
X153697380Y-43862619D01*
X153649761Y-43957857D01*
X153554523Y-44053095D01*
X153364047Y-44100714D01*
X153030714Y-44100714D01*
X152840238Y-44053095D01*
X152745000Y-43957857D01*
X152697380Y-43862619D01*
X152792619Y-43053095D02*
X152745000Y-43005476D01*
X152697380Y-42910238D01*
X152697380Y-42672142D01*
X152745000Y-42576904D01*
X152792619Y-42529285D01*
X152887857Y-42481666D01*
X152983095Y-42481666D01*
X153125952Y-42529285D01*
X153697380Y-43100714D01*
X153697380Y-42481666D01*
X177677380Y-47362619D02*
X178486904Y-47362619D01*
X178582142Y-47315000D01*
X178629761Y-47267380D01*
X178677380Y-47172142D01*
X178677380Y-46981666D01*
X178629761Y-46886428D01*
X178582142Y-46838809D01*
X178486904Y-46791190D01*
X177677380Y-46791190D01*
X178677380Y-45838809D02*
X178677380Y-46315000D01*
X177677380Y-46315000D01*
X178677380Y-45505476D02*
X177677380Y-45505476D01*
X178677380Y-44934047D01*
X177677380Y-44934047D01*
X177772619Y-44505476D02*
X177725000Y-44457857D01*
X177677380Y-44362619D01*
X177677380Y-44124523D01*
X177725000Y-44029285D01*
X177772619Y-43981666D01*
X177867857Y-43934047D01*
X177963095Y-43934047D01*
X178105952Y-43981666D01*
X178677380Y-44553095D01*
X178677380Y-43934047D01*
X178105952Y-43362619D02*
X178058333Y-43457857D01*
X178010714Y-43505476D01*
X177915476Y-43553095D01*
X177867857Y-43553095D01*
X177772619Y-43505476D01*
X177725000Y-43457857D01*
X177677380Y-43362619D01*
X177677380Y-43172142D01*
X177725000Y-43076904D01*
X177772619Y-43029285D01*
X177867857Y-42981666D01*
X177915476Y-42981666D01*
X178010714Y-43029285D01*
X178058333Y-43076904D01*
X178105952Y-43172142D01*
X178105952Y-43362619D01*
X178153571Y-43457857D01*
X178201190Y-43505476D01*
X178296428Y-43553095D01*
X178486904Y-43553095D01*
X178582142Y-43505476D01*
X178629761Y-43457857D01*
X178677380Y-43362619D01*
X178677380Y-43172142D01*
X178629761Y-43076904D01*
X178582142Y-43029285D01*
X178486904Y-42981666D01*
X178296428Y-42981666D01*
X178201190Y-43029285D01*
X178153571Y-43076904D01*
X178105952Y-43172142D01*
X177677380Y-42362619D02*
X177677380Y-42267380D01*
X177725000Y-42172142D01*
X177772619Y-42124523D01*
X177867857Y-42076904D01*
X178058333Y-42029285D01*
X178296428Y-42029285D01*
X178486904Y-42076904D01*
X178582142Y-42124523D01*
X178629761Y-42172142D01*
X178677380Y-42267380D01*
X178677380Y-42362619D01*
X178629761Y-42457857D01*
X178582142Y-42505476D01*
X178486904Y-42553095D01*
X178296428Y-42600714D01*
X178058333Y-42600714D01*
X177867857Y-42553095D01*
X177772619Y-42505476D01*
X177725000Y-42457857D01*
X177677380Y-42362619D01*
X177677380Y-41695952D02*
X177677380Y-41076904D01*
X178058333Y-41410238D01*
X178058333Y-41267380D01*
X178105952Y-41172142D01*
X178153571Y-41124523D01*
X178248809Y-41076904D01*
X178486904Y-41076904D01*
X178582142Y-41124523D01*
X178629761Y-41172142D01*
X178677380Y-41267380D01*
X178677380Y-41553095D01*
X178629761Y-41648333D01*
X178582142Y-41695952D01*
X178391666Y-40695952D02*
X178391666Y-40219761D01*
X178677380Y-40791190D02*
X177677380Y-40457857D01*
X178677380Y-40124523D01*
%TO.C,UO3*%
X172597380Y-79390714D02*
X173406904Y-79390714D01*
X173502142Y-79343095D01*
X173549761Y-79295476D01*
X173597380Y-79200238D01*
X173597380Y-79009761D01*
X173549761Y-78914523D01*
X173502142Y-78866904D01*
X173406904Y-78819285D01*
X172597380Y-78819285D01*
X172597380Y-78152619D02*
X172597380Y-77962142D01*
X172645000Y-77866904D01*
X172740238Y-77771666D01*
X172930714Y-77724047D01*
X173264047Y-77724047D01*
X173454523Y-77771666D01*
X173549761Y-77866904D01*
X173597380Y-77962142D01*
X173597380Y-78152619D01*
X173549761Y-78247857D01*
X173454523Y-78343095D01*
X173264047Y-78390714D01*
X172930714Y-78390714D01*
X172740238Y-78343095D01*
X172645000Y-78247857D01*
X172597380Y-78152619D01*
X172597380Y-77390714D02*
X172597380Y-76771666D01*
X172978333Y-77105000D01*
X172978333Y-76962142D01*
X173025952Y-76866904D01*
X173073571Y-76819285D01*
X173168809Y-76771666D01*
X173406904Y-76771666D01*
X173502142Y-76819285D01*
X173549761Y-76866904D01*
X173597380Y-76962142D01*
X173597380Y-77247857D01*
X173549761Y-77343095D01*
X173502142Y-77390714D01*
X147407380Y-81652619D02*
X148216904Y-81652619D01*
X148312142Y-81605000D01*
X148359761Y-81557380D01*
X148407380Y-81462142D01*
X148407380Y-81271666D01*
X148359761Y-81176428D01*
X148312142Y-81128809D01*
X148216904Y-81081190D01*
X147407380Y-81081190D01*
X148407380Y-80128809D02*
X148407380Y-80605000D01*
X147407380Y-80605000D01*
X148407380Y-79795476D02*
X147407380Y-79795476D01*
X148407380Y-79224047D01*
X147407380Y-79224047D01*
X147502619Y-78795476D02*
X147455000Y-78747857D01*
X147407380Y-78652619D01*
X147407380Y-78414523D01*
X147455000Y-78319285D01*
X147502619Y-78271666D01*
X147597857Y-78224047D01*
X147693095Y-78224047D01*
X147835952Y-78271666D01*
X148407380Y-78843095D01*
X148407380Y-78224047D01*
X147835952Y-77652619D02*
X147788333Y-77747857D01*
X147740714Y-77795476D01*
X147645476Y-77843095D01*
X147597857Y-77843095D01*
X147502619Y-77795476D01*
X147455000Y-77747857D01*
X147407380Y-77652619D01*
X147407380Y-77462142D01*
X147455000Y-77366904D01*
X147502619Y-77319285D01*
X147597857Y-77271666D01*
X147645476Y-77271666D01*
X147740714Y-77319285D01*
X147788333Y-77366904D01*
X147835952Y-77462142D01*
X147835952Y-77652619D01*
X147883571Y-77747857D01*
X147931190Y-77795476D01*
X148026428Y-77843095D01*
X148216904Y-77843095D01*
X148312142Y-77795476D01*
X148359761Y-77747857D01*
X148407380Y-77652619D01*
X148407380Y-77462142D01*
X148359761Y-77366904D01*
X148312142Y-77319285D01*
X148216904Y-77271666D01*
X148026428Y-77271666D01*
X147931190Y-77319285D01*
X147883571Y-77366904D01*
X147835952Y-77462142D01*
X147407380Y-76652619D02*
X147407380Y-76557380D01*
X147455000Y-76462142D01*
X147502619Y-76414523D01*
X147597857Y-76366904D01*
X147788333Y-76319285D01*
X148026428Y-76319285D01*
X148216904Y-76366904D01*
X148312142Y-76414523D01*
X148359761Y-76462142D01*
X148407380Y-76557380D01*
X148407380Y-76652619D01*
X148359761Y-76747857D01*
X148312142Y-76795476D01*
X148216904Y-76843095D01*
X148026428Y-76890714D01*
X147788333Y-76890714D01*
X147597857Y-76843095D01*
X147502619Y-76795476D01*
X147455000Y-76747857D01*
X147407380Y-76652619D01*
X147407380Y-75985952D02*
X147407380Y-75366904D01*
X147788333Y-75700238D01*
X147788333Y-75557380D01*
X147835952Y-75462142D01*
X147883571Y-75414523D01*
X147978809Y-75366904D01*
X148216904Y-75366904D01*
X148312142Y-75414523D01*
X148359761Y-75462142D01*
X148407380Y-75557380D01*
X148407380Y-75843095D01*
X148359761Y-75938333D01*
X148312142Y-75985952D01*
X148121666Y-74985952D02*
X148121666Y-74509761D01*
X148407380Y-75081190D02*
X147407380Y-74747857D01*
X148407380Y-74414523D01*
%TO.C,R4*%
X145883333Y-39822380D02*
X145550000Y-39346190D01*
X145311904Y-39822380D02*
X145311904Y-38822380D01*
X145692857Y-38822380D01*
X145788095Y-38870000D01*
X145835714Y-38917619D01*
X145883333Y-39012857D01*
X145883333Y-39155714D01*
X145835714Y-39250952D01*
X145788095Y-39298571D01*
X145692857Y-39346190D01*
X145311904Y-39346190D01*
X146740476Y-39155714D02*
X146740476Y-39822380D01*
X146502380Y-38774761D02*
X146264285Y-39489047D01*
X146883333Y-39489047D01*
%TO.C,R5*%
X144613333Y-43632380D02*
X144280000Y-43156190D01*
X144041904Y-43632380D02*
X144041904Y-42632380D01*
X144422857Y-42632380D01*
X144518095Y-42680000D01*
X144565714Y-42727619D01*
X144613333Y-42822857D01*
X144613333Y-42965714D01*
X144565714Y-43060952D01*
X144518095Y-43108571D01*
X144422857Y-43156190D01*
X144041904Y-43156190D01*
X145518095Y-42632380D02*
X145041904Y-42632380D01*
X144994285Y-43108571D01*
X145041904Y-43060952D01*
X145137142Y-43013333D01*
X145375238Y-43013333D01*
X145470476Y-43060952D01*
X145518095Y-43108571D01*
X145565714Y-43203809D01*
X145565714Y-43441904D01*
X145518095Y-43537142D01*
X145470476Y-43584761D01*
X145375238Y-43632380D01*
X145137142Y-43632380D01*
X145041904Y-43584761D01*
X144994285Y-43537142D01*
%TO.C,R6*%
X145883333Y-46807380D02*
X145550000Y-46331190D01*
X145311904Y-46807380D02*
X145311904Y-45807380D01*
X145692857Y-45807380D01*
X145788095Y-45855000D01*
X145835714Y-45902619D01*
X145883333Y-45997857D01*
X145883333Y-46140714D01*
X145835714Y-46235952D01*
X145788095Y-46283571D01*
X145692857Y-46331190D01*
X145311904Y-46331190D01*
X146740476Y-45807380D02*
X146550000Y-45807380D01*
X146454761Y-45855000D01*
X146407142Y-45902619D01*
X146311904Y-46045476D01*
X146264285Y-46235952D01*
X146264285Y-46616904D01*
X146311904Y-46712142D01*
X146359523Y-46759761D01*
X146454761Y-46807380D01*
X146645238Y-46807380D01*
X146740476Y-46759761D01*
X146788095Y-46712142D01*
X146835714Y-46616904D01*
X146835714Y-46378809D01*
X146788095Y-46283571D01*
X146740476Y-46235952D01*
X146645238Y-46188333D01*
X146454761Y-46188333D01*
X146359523Y-46235952D01*
X146311904Y-46283571D01*
X146264285Y-46378809D01*
%TO.C,SW1*%
X139636666Y-40164761D02*
X139779523Y-40212380D01*
X140017619Y-40212380D01*
X140112857Y-40164761D01*
X140160476Y-40117142D01*
X140208095Y-40021904D01*
X140208095Y-39926666D01*
X140160476Y-39831428D01*
X140112857Y-39783809D01*
X140017619Y-39736190D01*
X139827142Y-39688571D01*
X139731904Y-39640952D01*
X139684285Y-39593333D01*
X139636666Y-39498095D01*
X139636666Y-39402857D01*
X139684285Y-39307619D01*
X139731904Y-39260000D01*
X139827142Y-39212380D01*
X140065238Y-39212380D01*
X140208095Y-39260000D01*
X140541428Y-39212380D02*
X140779523Y-40212380D01*
X140970000Y-39498095D01*
X141160476Y-40212380D01*
X141398571Y-39212380D01*
X142303333Y-40212380D02*
X141731904Y-40212380D01*
X142017619Y-40212380D02*
X142017619Y-39212380D01*
X141922380Y-39355238D01*
X141827142Y-39450476D01*
X141731904Y-39498095D01*
X129255714Y-49592380D02*
X129255714Y-48592380D01*
X129493809Y-48592380D01*
X129636666Y-48640000D01*
X129731904Y-48735238D01*
X129779523Y-48830476D01*
X129827142Y-49020952D01*
X129827142Y-49163809D01*
X129779523Y-49354285D01*
X129731904Y-49449523D01*
X129636666Y-49544761D01*
X129493809Y-49592380D01*
X129255714Y-49592380D01*
X130255714Y-49592380D02*
X130255714Y-48592380D01*
X130731904Y-49592380D02*
X130731904Y-48592380D01*
X131112857Y-48592380D01*
X131208095Y-48640000D01*
X131255714Y-48687619D01*
X131303333Y-48782857D01*
X131303333Y-48925714D01*
X131255714Y-49020952D01*
X131208095Y-49068571D01*
X131112857Y-49116190D01*
X130731904Y-49116190D01*
X132446190Y-49544761D02*
X132589047Y-49592380D01*
X132827142Y-49592380D01*
X132922380Y-49544761D01*
X132970000Y-49497142D01*
X133017619Y-49401904D01*
X133017619Y-49306666D01*
X132970000Y-49211428D01*
X132922380Y-49163809D01*
X132827142Y-49116190D01*
X132636666Y-49068571D01*
X132541428Y-49020952D01*
X132493809Y-48973333D01*
X132446190Y-48878095D01*
X132446190Y-48782857D01*
X132493809Y-48687619D01*
X132541428Y-48640000D01*
X132636666Y-48592380D01*
X132874761Y-48592380D01*
X133017619Y-48640000D01*
X133350952Y-48592380D02*
X133589047Y-49592380D01*
X133779523Y-48878095D01*
X133970000Y-49592380D01*
X134208095Y-48592380D01*
X134589047Y-49592380D02*
X134589047Y-48592380D01*
X134922380Y-48592380D02*
X135493809Y-48592380D01*
X135208095Y-49592380D02*
X135208095Y-48592380D01*
X136398571Y-49497142D02*
X136350952Y-49544761D01*
X136208095Y-49592380D01*
X136112857Y-49592380D01*
X135970000Y-49544761D01*
X135874761Y-49449523D01*
X135827142Y-49354285D01*
X135779523Y-49163809D01*
X135779523Y-49020952D01*
X135827142Y-48830476D01*
X135874761Y-48735238D01*
X135970000Y-48640000D01*
X136112857Y-48592380D01*
X136208095Y-48592380D01*
X136350952Y-48640000D01*
X136398571Y-48687619D01*
X136827142Y-49592380D02*
X136827142Y-48592380D01*
X136827142Y-49068571D02*
X137398571Y-49068571D01*
X137398571Y-49592380D02*
X137398571Y-48592380D01*
X138636666Y-49592380D02*
X138636666Y-48592380D01*
X139208095Y-49592380D01*
X139208095Y-48592380D01*
X139874761Y-48592380D02*
X140065238Y-48592380D01*
X140160476Y-48640000D01*
X140255714Y-48735238D01*
X140303333Y-48925714D01*
X140303333Y-49259047D01*
X140255714Y-49449523D01*
X140160476Y-49544761D01*
X140065238Y-49592380D01*
X139874761Y-49592380D01*
X139779523Y-49544761D01*
X139684285Y-49449523D01*
X139636666Y-49259047D01*
X139636666Y-48925714D01*
X139684285Y-48735238D01*
X139779523Y-48640000D01*
X139874761Y-48592380D01*
X140731904Y-49592380D02*
X140731904Y-48592380D01*
X140970000Y-48592380D01*
X141112857Y-48640000D01*
X141208095Y-48735238D01*
X141255714Y-48830476D01*
X141303333Y-49020952D01*
X141303333Y-49163809D01*
X141255714Y-49354285D01*
X141208095Y-49449523D01*
X141112857Y-49544761D01*
X140970000Y-49592380D01*
X140731904Y-49592380D01*
X141731904Y-49068571D02*
X142065238Y-49068571D01*
X142208095Y-49592380D02*
X141731904Y-49592380D01*
X141731904Y-48592380D01*
X142208095Y-48592380D01*
X143398571Y-49592380D02*
X143398571Y-48592380D01*
X143970000Y-49592380D01*
X143970000Y-48592380D01*
X144446190Y-48592380D02*
X144446190Y-49401904D01*
X144493809Y-49497142D01*
X144541428Y-49544761D01*
X144636666Y-49592380D01*
X144827142Y-49592380D01*
X144922380Y-49544761D01*
X144970000Y-49497142D01*
X145017619Y-49401904D01*
X145017619Y-48592380D01*
X145493809Y-49592380D02*
X145493809Y-48592380D01*
X145827142Y-49306666D01*
X146160476Y-48592380D01*
X146160476Y-49592380D01*
X146970000Y-49068571D02*
X147112857Y-49116190D01*
X147160476Y-49163809D01*
X147208095Y-49259047D01*
X147208095Y-49401904D01*
X147160476Y-49497142D01*
X147112857Y-49544761D01*
X147017619Y-49592380D01*
X146636666Y-49592380D01*
X146636666Y-48592380D01*
X146970000Y-48592380D01*
X147065238Y-48640000D01*
X147112857Y-48687619D01*
X147160476Y-48782857D01*
X147160476Y-48878095D01*
X147112857Y-48973333D01*
X147065238Y-49020952D01*
X146970000Y-49068571D01*
X146636666Y-49068571D01*
X147636666Y-49068571D02*
X147970000Y-49068571D01*
X148112857Y-49592380D02*
X147636666Y-49592380D01*
X147636666Y-48592380D01*
X148112857Y-48592380D01*
X149112857Y-49592380D02*
X148779523Y-49116190D01*
X148541428Y-49592380D02*
X148541428Y-48592380D01*
X148922380Y-48592380D01*
X149017619Y-48640000D01*
X149065238Y-48687619D01*
X149112857Y-48782857D01*
X149112857Y-48925714D01*
X149065238Y-49020952D01*
X149017619Y-49068571D01*
X148922380Y-49116190D01*
X148541428Y-49116190D01*
X150493809Y-48592380D02*
X150589047Y-48592380D01*
X150684285Y-48640000D01*
X150731904Y-48687619D01*
X150779523Y-48782857D01*
X150827142Y-48973333D01*
X150827142Y-49211428D01*
X150779523Y-49401904D01*
X150731904Y-49497142D01*
X150684285Y-49544761D01*
X150589047Y-49592380D01*
X150493809Y-49592380D01*
X150398571Y-49544761D01*
X150350952Y-49497142D01*
X150303333Y-49401904D01*
X150255714Y-49211428D01*
X150255714Y-48973333D01*
X150303333Y-48782857D01*
X150350952Y-48687619D01*
X150398571Y-48640000D01*
X150493809Y-48592380D01*
X151255714Y-49497142D02*
X151303333Y-49544761D01*
X151255714Y-49592380D01*
X151208095Y-49544761D01*
X151255714Y-49497142D01*
X151255714Y-49592380D01*
X151731904Y-49497142D02*
X151779523Y-49544761D01*
X151731904Y-49592380D01*
X151684285Y-49544761D01*
X151731904Y-49497142D01*
X151731904Y-49592380D01*
X152112857Y-48592380D02*
X152731904Y-48592380D01*
X152398571Y-48973333D01*
X152541428Y-48973333D01*
X152636666Y-49020952D01*
X152684285Y-49068571D01*
X152731904Y-49163809D01*
X152731904Y-49401904D01*
X152684285Y-49497142D01*
X152636666Y-49544761D01*
X152541428Y-49592380D01*
X152255714Y-49592380D01*
X152160476Y-49544761D01*
X152112857Y-49497142D01*
%TO.C,D1*%
X195476904Y-23527380D02*
X195476904Y-22527380D01*
X195715000Y-22527380D01*
X195857857Y-22575000D01*
X195953095Y-22670238D01*
X196000714Y-22765476D01*
X196048333Y-22955952D01*
X196048333Y-23098809D01*
X196000714Y-23289285D01*
X195953095Y-23384523D01*
X195857857Y-23479761D01*
X195715000Y-23527380D01*
X195476904Y-23527380D01*
X197000714Y-23527380D02*
X196429285Y-23527380D01*
X196715000Y-23527380D02*
X196715000Y-22527380D01*
X196619761Y-22670238D01*
X196524523Y-22765476D01*
X196429285Y-22813095D01*
%TO.C,J1*%
D17*
X121686666Y-37722380D02*
X121686666Y-38436666D01*
X121639047Y-38579523D01*
X121543809Y-38674761D01*
X121400952Y-38722380D01*
X121305714Y-38722380D01*
X122686666Y-38722380D02*
X122115238Y-38722380D01*
X122400952Y-38722380D02*
X122400952Y-37722380D01*
X122305714Y-37865238D01*
X122210476Y-37960476D01*
X122115238Y-38008095D01*
X115364380Y-25184523D02*
X115059619Y-25184523D01*
X115029142Y-25489285D01*
X115059619Y-25458809D01*
X115120571Y-25428333D01*
X115272952Y-25428333D01*
X115333904Y-25458809D01*
X115364380Y-25489285D01*
X115394857Y-25550238D01*
X115394857Y-25702619D01*
X115364380Y-25763571D01*
X115333904Y-25794047D01*
X115272952Y-25824523D01*
X115120571Y-25824523D01*
X115059619Y-25794047D01*
X115029142Y-25763571D01*
X125427857Y-25824523D02*
X125062142Y-25824523D01*
X125245000Y-25824523D02*
X125245000Y-25184523D01*
X125184047Y-25275952D01*
X125123095Y-25336904D01*
X125062142Y-25367380D01*
%TO.C,J2*%
X173121666Y-37722380D02*
X173121666Y-38436666D01*
X173074047Y-38579523D01*
X172978809Y-38674761D01*
X172835952Y-38722380D01*
X172740714Y-38722380D01*
X173550238Y-37817619D02*
X173597857Y-37770000D01*
X173693095Y-37722380D01*
X173931190Y-37722380D01*
X174026428Y-37770000D01*
X174074047Y-37817619D01*
X174121666Y-37912857D01*
X174121666Y-38008095D01*
X174074047Y-38150952D01*
X173502619Y-38722380D01*
X174121666Y-38722380D01*
X166799380Y-25184523D02*
X166494619Y-25184523D01*
X166464142Y-25489285D01*
X166494619Y-25458809D01*
X166555571Y-25428333D01*
X166707952Y-25428333D01*
X166768904Y-25458809D01*
X166799380Y-25489285D01*
X166829857Y-25550238D01*
X166829857Y-25702619D01*
X166799380Y-25763571D01*
X166768904Y-25794047D01*
X166707952Y-25824523D01*
X166555571Y-25824523D01*
X166494619Y-25794047D01*
X166464142Y-25763571D01*
X176862857Y-25824523D02*
X176497142Y-25824523D01*
X176680000Y-25824523D02*
X176680000Y-25184523D01*
X176619047Y-25275952D01*
X176558095Y-25336904D01*
X176497142Y-25367380D01*
%TO.C,J3*%
X161491666Y-87547380D02*
X161491666Y-88261666D01*
X161444047Y-88404523D01*
X161348809Y-88499761D01*
X161205952Y-88547380D01*
X161110714Y-88547380D01*
X161872619Y-87547380D02*
X162491666Y-87547380D01*
X162158333Y-87928333D01*
X162301190Y-87928333D01*
X162396428Y-87975952D01*
X162444047Y-88023571D01*
X162491666Y-88118809D01*
X162491666Y-88356904D01*
X162444047Y-88452142D01*
X162396428Y-88499761D01*
X162301190Y-88547380D01*
X162015476Y-88547380D01*
X161920238Y-88499761D01*
X161872619Y-88452142D01*
X158782857Y-101119523D02*
X158417142Y-101119523D01*
X158600000Y-101119523D02*
X158600000Y-100479523D01*
X158539047Y-100570952D01*
X158478095Y-100631904D01*
X158417142Y-100662380D01*
X168785380Y-100479523D02*
X168480619Y-100479523D01*
X168450142Y-100784285D01*
X168480619Y-100753809D01*
X168541571Y-100723333D01*
X168693952Y-100723333D01*
X168754904Y-100753809D01*
X168785380Y-100784285D01*
X168815857Y-100845238D01*
X168815857Y-100997619D01*
X168785380Y-101058571D01*
X168754904Y-101089047D01*
X168693952Y-101119523D01*
X168541571Y-101119523D01*
X168480619Y-101089047D01*
X168450142Y-101058571D01*
%TO.C,J4*%
X124661666Y-88182380D02*
X124661666Y-88896666D01*
X124614047Y-89039523D01*
X124518809Y-89134761D01*
X124375952Y-89182380D01*
X124280714Y-89182380D01*
X125566428Y-88515714D02*
X125566428Y-89182380D01*
X125328333Y-88134761D02*
X125090238Y-88849047D01*
X125709285Y-88849047D01*
X121952857Y-101754523D02*
X121587142Y-101754523D01*
X121770000Y-101754523D02*
X121770000Y-101114523D01*
X121709047Y-101205952D01*
X121648095Y-101266904D01*
X121587142Y-101297380D01*
X131955380Y-101114523D02*
X131650619Y-101114523D01*
X131620142Y-101419285D01*
X131650619Y-101388809D01*
X131711571Y-101358333D01*
X131863952Y-101358333D01*
X131924904Y-101388809D01*
X131955380Y-101419285D01*
X131985857Y-101480238D01*
X131985857Y-101632619D01*
X131955380Y-101693571D01*
X131924904Y-101724047D01*
X131863952Y-101754523D01*
X131711571Y-101754523D01*
X131650619Y-101724047D01*
X131620142Y-101693571D01*
%TO.C,R7*%
D13*
X194592380Y-43346666D02*
X194116190Y-43680000D01*
X194592380Y-43918095D02*
X193592380Y-43918095D01*
X193592380Y-43537142D01*
X193640000Y-43441904D01*
X193687619Y-43394285D01*
X193782857Y-43346666D01*
X193925714Y-43346666D01*
X194020952Y-43394285D01*
X194068571Y-43441904D01*
X194116190Y-43537142D01*
X194116190Y-43918095D01*
X193592380Y-43013333D02*
X193592380Y-42346666D01*
X194592380Y-42775238D01*
%TO.C,X1*%
D17*
X133910476Y-37722380D02*
X134577142Y-38722380D01*
X134577142Y-37722380D02*
X133910476Y-38722380D01*
X135481904Y-38722380D02*
X134910476Y-38722380D01*
X135196190Y-38722380D02*
X135196190Y-37722380D01*
X135100952Y-37865238D01*
X135005714Y-37960476D01*
X134910476Y-38008095D01*
X136857857Y-25824523D02*
X136492142Y-25824523D01*
X136675000Y-25824523D02*
X136675000Y-25184523D01*
X136614047Y-25275952D01*
X136553095Y-25336904D01*
X136492142Y-25367380D01*
%TO.C,X2*%
X110850476Y-88817380D02*
X111517142Y-89817380D01*
X111517142Y-88817380D02*
X110850476Y-89817380D01*
X111850476Y-88912619D02*
X111898095Y-88865000D01*
X111993333Y-88817380D01*
X112231428Y-88817380D01*
X112326666Y-88865000D01*
X112374285Y-88912619D01*
X112421904Y-89007857D01*
X112421904Y-89103095D01*
X112374285Y-89245952D01*
X111802857Y-89817380D01*
X112421904Y-89817380D01*
X109887857Y-102389523D02*
X109522142Y-102389523D01*
X109705000Y-102389523D02*
X109705000Y-101749523D01*
X109644047Y-101840952D01*
X109583095Y-101901904D01*
X109522142Y-101932380D01*
%TD*%
M02*
