%TF.GenerationSoftware,KiCad,Pcbnew,5.1.8-db9833491~87~ubuntu18.04.1*%
%TF.CreationDate,2020-11-19T23:29:55+01:00*%
%TF.ProjectId,Mqtt32output,4d717474-3332-46f7-9574-7075742e6b69,rev?*%
%TF.SameCoordinates,Original*%
%TF.FileFunction,Soldermask,Bot*%
%TF.FilePolarity,Negative*%
%FSLAX46Y46*%
G04 Gerber Fmt 4.6, Leading zero omitted, Abs format (unit mm)*
G04 Created by KiCad (PCBNEW 5.1.8-db9833491~87~ubuntu18.04.1) date 2020-11-19 23:29:55*
%MOMM*%
%LPD*%
G01*
G04 APERTURE LIST*
%ADD10O,1.600000X1.600000*%
%ADD11R,1.600000X1.600000*%
%ADD12C,2.500000*%
%ADD13C,1.600000*%
%ADD14R,1.800000X1.800000*%
%ADD15C,1.800000*%
%ADD16O,1.800000X3.600000*%
G04 APERTURE END LIST*
D10*
%TO.C,UO4*%
X126365000Y-81915000D03*
X106045000Y-74295000D03*
X123825000Y-81915000D03*
X108585000Y-74295000D03*
X121285000Y-81915000D03*
X111125000Y-74295000D03*
X118745000Y-81915000D03*
X113665000Y-74295000D03*
X116205000Y-81915000D03*
X116205000Y-74295000D03*
X113665000Y-81915000D03*
X118745000Y-74295000D03*
X111125000Y-81915000D03*
X121285000Y-74295000D03*
X108585000Y-81915000D03*
X123825000Y-74295000D03*
X106045000Y-81915000D03*
D11*
X126365000Y-74295000D03*
%TD*%
D12*
%TO.C,REF\u002A\u002A*%
X109855000Y-87630000D03*
%TD*%
D11*
%TO.C,A1*%
X197485000Y-74930000D03*
D10*
X182245000Y-41910000D03*
X197485000Y-72390000D03*
X182245000Y-44450000D03*
X197485000Y-69850000D03*
X182245000Y-46990000D03*
X197485000Y-67310000D03*
X182245000Y-49530000D03*
X197485000Y-64770000D03*
X182245000Y-52070000D03*
X197485000Y-62230000D03*
X182245000Y-54610000D03*
X197485000Y-59690000D03*
X182245000Y-57150000D03*
X197485000Y-57150000D03*
X182245000Y-59690000D03*
X197485000Y-54610000D03*
X182245000Y-62230000D03*
X197485000Y-52070000D03*
X182245000Y-64770000D03*
X197485000Y-49530000D03*
X182245000Y-67310000D03*
X197485000Y-46990000D03*
X182245000Y-69850000D03*
X197485000Y-44450000D03*
X182245000Y-72390000D03*
X197485000Y-41910000D03*
X182245000Y-74930000D03*
X197485000Y-39370000D03*
X182245000Y-39370000D03*
%TD*%
%TO.C,R1*%
X129440000Y-53340000D03*
D13*
X129440000Y-55880000D03*
%TD*%
%TO.C,R2*%
X133985000Y-55880000D03*
D10*
X133985000Y-53340000D03*
%TD*%
D13*
%TO.C,R3*%
X139065000Y-55880000D03*
D10*
X139065000Y-53340000D03*
%TD*%
D11*
%TO.C,U2*%
X123825000Y-51435000D03*
D10*
X106045000Y-59055000D03*
X121285000Y-51435000D03*
X108585000Y-59055000D03*
X118745000Y-51435000D03*
X111125000Y-59055000D03*
X116205000Y-51435000D03*
X113665000Y-59055000D03*
X113665000Y-51435000D03*
X116205000Y-59055000D03*
X111125000Y-51435000D03*
X118745000Y-59055000D03*
X108585000Y-51435000D03*
X121285000Y-59055000D03*
X106045000Y-51435000D03*
X123825000Y-59055000D03*
%TD*%
%TO.C,U4*%
X170815000Y-59055000D03*
X153035000Y-51435000D03*
X168275000Y-59055000D03*
X155575000Y-51435000D03*
X165735000Y-59055000D03*
X158115000Y-51435000D03*
X163195000Y-59055000D03*
X160655000Y-51435000D03*
X160655000Y-59055000D03*
X163195000Y-51435000D03*
X158115000Y-59055000D03*
X165735000Y-51435000D03*
X155575000Y-59055000D03*
X168275000Y-51435000D03*
X153035000Y-59055000D03*
D11*
X170815000Y-51435000D03*
%TD*%
%TO.C,U6*%
X153035000Y-70485000D03*
D10*
X170815000Y-62865000D03*
X155575000Y-70485000D03*
X168275000Y-62865000D03*
X158115000Y-70485000D03*
X165735000Y-62865000D03*
X160655000Y-70485000D03*
X163195000Y-62865000D03*
X163195000Y-70485000D03*
X160655000Y-62865000D03*
X165735000Y-70485000D03*
X158115000Y-62865000D03*
X168275000Y-70485000D03*
X155575000Y-62865000D03*
X170815000Y-70485000D03*
X153035000Y-62865000D03*
%TD*%
%TO.C,U8*%
X106045000Y-62865000D03*
X123825000Y-70485000D03*
X108585000Y-62865000D03*
X121285000Y-70485000D03*
X111125000Y-62865000D03*
X118745000Y-70485000D03*
X113665000Y-62865000D03*
X116205000Y-70485000D03*
X116205000Y-62865000D03*
X113665000Y-70485000D03*
X118745000Y-62865000D03*
X111125000Y-70485000D03*
X121285000Y-62865000D03*
X108585000Y-70485000D03*
X123825000Y-62865000D03*
D11*
X106045000Y-70485000D03*
%TD*%
%TO.C,UO1*%
X106045000Y-47625000D03*
D10*
X126365000Y-40005000D03*
X108585000Y-47625000D03*
X123825000Y-40005000D03*
X111125000Y-47625000D03*
X121285000Y-40005000D03*
X113665000Y-47625000D03*
X118745000Y-40005000D03*
X116205000Y-47625000D03*
X116205000Y-40005000D03*
X118745000Y-47625000D03*
X113665000Y-40005000D03*
X121285000Y-47625000D03*
X111125000Y-40005000D03*
X123825000Y-47625000D03*
X108585000Y-40005000D03*
X126365000Y-47625000D03*
X106045000Y-40005000D03*
%TD*%
%TO.C,UO2*%
X155575000Y-40005000D03*
X175895000Y-47625000D03*
X158115000Y-40005000D03*
X173355000Y-47625000D03*
X160655000Y-40005000D03*
X170815000Y-47625000D03*
X163195000Y-40005000D03*
X168275000Y-47625000D03*
X165735000Y-40005000D03*
X165735000Y-47625000D03*
X168275000Y-40005000D03*
X163195000Y-47625000D03*
X170815000Y-40005000D03*
X160655000Y-47625000D03*
X173355000Y-40005000D03*
X158115000Y-47625000D03*
X175895000Y-40005000D03*
D11*
X155575000Y-47625000D03*
%TD*%
%TO.C,UO3*%
X170815000Y-74295000D03*
D10*
X150495000Y-81915000D03*
X168275000Y-74295000D03*
X153035000Y-81915000D03*
X165735000Y-74295000D03*
X155575000Y-81915000D03*
X163195000Y-74295000D03*
X158115000Y-81915000D03*
X160655000Y-74295000D03*
X160655000Y-81915000D03*
X158115000Y-74295000D03*
X163195000Y-81915000D03*
X155575000Y-74295000D03*
X165735000Y-81915000D03*
X153035000Y-74295000D03*
X168275000Y-81915000D03*
X150495000Y-74295000D03*
X170815000Y-81915000D03*
%TD*%
D13*
%TO.C,R4*%
X148590000Y-40005000D03*
D10*
X151130000Y-40005000D03*
%TD*%
%TO.C,R5*%
X151130000Y-43180000D03*
D13*
X148590000Y-43180000D03*
%TD*%
%TO.C,R6*%
X148590000Y-46355000D03*
D10*
X151130000Y-46355000D03*
%TD*%
D11*
%TO.C,SW1*%
X137160000Y-43180000D03*
D10*
X144780000Y-45720000D03*
X137160000Y-45720000D03*
X144780000Y-43180000D03*
%TD*%
D14*
%TO.C,D1*%
X194945000Y-26035000D03*
D15*
X197485000Y-26035000D03*
%TD*%
D16*
%TO.C,J1*%
X107315000Y-29885000D03*
X107315000Y-34885000D03*
X109855000Y-29885000D03*
X109855000Y-34885000D03*
X112395000Y-29885000D03*
X112395000Y-34885000D03*
X114935000Y-29885000D03*
X114935000Y-34885000D03*
X117475000Y-29885000D03*
X117475000Y-34885000D03*
X120015000Y-29885000D03*
X120015000Y-34885000D03*
X122555000Y-29885000D03*
X122555000Y-34885000D03*
X125095000Y-29885000D03*
X125095000Y-34885000D03*
%TD*%
%TO.C,J2*%
X158750000Y-29885000D03*
X158750000Y-34885000D03*
X161290000Y-29885000D03*
X161290000Y-34885000D03*
X163830000Y-29885000D03*
X163830000Y-34885000D03*
X166370000Y-29885000D03*
X166370000Y-34885000D03*
X168910000Y-29885000D03*
X168910000Y-34885000D03*
X171450000Y-29885000D03*
X171450000Y-34885000D03*
X173990000Y-29885000D03*
X173990000Y-34885000D03*
X176530000Y-29885000D03*
X176530000Y-34885000D03*
%TD*%
%TO.C,J3*%
X158750000Y-91480000D03*
X158750000Y-96480000D03*
X161290000Y-91480000D03*
X161290000Y-96480000D03*
X163830000Y-91480000D03*
X163830000Y-96480000D03*
X166370000Y-91480000D03*
X166370000Y-96480000D03*
X168910000Y-91480000D03*
X168910000Y-96480000D03*
X171450000Y-91480000D03*
X171450000Y-96480000D03*
X173990000Y-91480000D03*
X173990000Y-96480000D03*
X176530000Y-91480000D03*
X176530000Y-96480000D03*
%TD*%
%TO.C,J4*%
X121920000Y-92115000D03*
X121920000Y-97115000D03*
X124460000Y-92115000D03*
X124460000Y-97115000D03*
X127000000Y-92115000D03*
X127000000Y-97115000D03*
X129540000Y-92115000D03*
X129540000Y-97115000D03*
X132080000Y-92115000D03*
X132080000Y-97115000D03*
X134620000Y-92115000D03*
X134620000Y-97115000D03*
X137160000Y-92115000D03*
X137160000Y-97115000D03*
X139700000Y-92115000D03*
X139700000Y-97115000D03*
%TD*%
D13*
%TO.C,R7*%
X191770000Y-39370000D03*
D10*
X191770000Y-46990000D03*
%TD*%
D16*
%TO.C,X1*%
X136525000Y-34885000D03*
X136525000Y-29885000D03*
X133985000Y-34885000D03*
X133985000Y-29885000D03*
%TD*%
%TO.C,X2*%
X112395000Y-97750000D03*
X112395000Y-92750000D03*
X109855000Y-97750000D03*
X109855000Y-92750000D03*
%TD*%
M02*
