M48
; DRILL file {KiCad 5.1.8-db9833491~87~ubuntu18.04.1} date Tue Dec 15 23:06:22 2020
; FORMAT={-:-/ absolute / inch / decimal}
; #@! TF.CreationDate,2020-12-15T23:06:22+01:00
; #@! TF.GenerationSoftware,Kicad,Pcbnew,5.1.8-db9833491~87~ubuntu18.04.1
; #@! TF.FileFunction,Plated,1,2,PTH
FMAT,2
INCH
T1C0.0315
T2C0.0354
T3C0.0394
T4C0.0472
%
G90
G05
T1
X4.175Y-2.025
X4.175Y-2.325
X4.275Y-2.025
X4.275Y-2.325
X4.375Y-2.025
X4.375Y-2.325
X4.475Y-2.025
X4.475Y-2.325
X4.575Y-2.025
X4.575Y-2.325
X4.675Y-2.025
X4.675Y-2.325
X4.775Y-2.025
X4.775Y-2.325
X4.875Y-2.025
X4.875Y-2.325
X4.175Y-2.475
X4.175Y-2.775
X4.275Y-2.475
X4.275Y-2.775
X4.375Y-2.475
X4.375Y-2.775
X4.475Y-2.475
X4.475Y-2.775
X4.575Y-2.475
X4.575Y-2.775
X4.675Y-2.475
X4.675Y-2.775
X4.775Y-2.475
X4.775Y-2.775
X4.875Y-2.475
X4.875Y-2.775
X5.0961Y-2.1
X5.0961Y-2.2
X5.925Y-2.925
X5.925Y-3.225
X6.025Y-2.925
X6.025Y-3.225
X6.125Y-2.925
X6.125Y-3.225
X6.225Y-2.925
X6.225Y-3.225
X6.325Y-2.925
X6.325Y-3.225
X6.425Y-2.925
X6.425Y-3.225
X6.525Y-2.925
X6.525Y-3.225
X6.625Y-2.925
X6.625Y-3.225
X6.725Y-2.925
X6.725Y-3.225
X5.85Y-1.7
X5.95Y-1.7
X5.85Y-1.575
X5.95Y-1.575
X5.475Y-2.1
X5.475Y-2.2
X5.7Y-2.1
X5.7Y-2.2
X4.175Y-1.575
X4.175Y-1.875
X4.275Y-1.575
X4.275Y-1.875
X4.375Y-1.575
X4.375Y-1.875
X4.475Y-1.575
X4.475Y-1.875
X4.575Y-1.575
X4.575Y-1.875
X4.675Y-1.575
X4.675Y-1.875
X4.775Y-1.575
X4.775Y-1.875
X4.875Y-1.575
X4.875Y-1.875
X4.975Y-1.575
X4.975Y-1.875
X7.55Y-1.55
X7.55Y-1.85
X5.275Y-2.1
X5.275Y-2.2
X6.125Y-1.575
X6.125Y-1.875
X6.225Y-1.575
X6.225Y-1.875
X6.325Y-1.575
X6.325Y-1.875
X6.425Y-1.575
X6.425Y-1.875
X6.525Y-1.575
X6.525Y-1.875
X6.625Y-1.575
X6.625Y-1.875
X6.725Y-1.575
X6.725Y-1.875
X6.825Y-1.575
X6.825Y-1.875
X6.925Y-1.575
X6.925Y-1.875
X6.025Y-2.475
X6.025Y-2.775
X6.125Y-2.475
X6.125Y-2.775
X6.225Y-2.475
X6.225Y-2.775
X6.325Y-2.475
X6.325Y-2.775
X6.425Y-2.475
X6.425Y-2.775
X6.525Y-2.475
X6.525Y-2.775
X6.625Y-2.475
X6.625Y-2.775
X6.725Y-2.475
X6.725Y-2.775
X5.85Y-1.825
X5.95Y-1.825
X5.4Y-1.7
X5.4Y-1.8
X5.7Y-1.7
X5.7Y-1.8
X4.175Y-2.925
X4.175Y-3.225
X4.275Y-2.925
X4.275Y-3.225
X4.375Y-2.925
X4.375Y-3.225
X4.475Y-2.925
X4.475Y-3.225
X4.575Y-2.925
X4.575Y-3.225
X4.675Y-2.925
X4.675Y-3.225
X4.775Y-2.925
X4.775Y-3.225
X4.875Y-2.925
X4.875Y-3.225
X4.975Y-2.925
X4.975Y-3.225
X6.025Y-2.025
X6.025Y-2.325
X6.125Y-2.025
X6.125Y-2.325
X6.225Y-2.025
X6.225Y-2.325
X6.325Y-2.025
X6.325Y-2.325
X6.425Y-2.025
X6.425Y-2.325
X6.525Y-2.025
X6.525Y-2.325
X6.625Y-2.025
X6.625Y-2.325
X6.725Y-2.025
X6.725Y-2.325
T2
X7.675Y-1.025
X7.775Y-1.025
T3
X7.175Y-1.55
X7.175Y-1.65
X7.175Y-1.75
X7.175Y-1.85
X7.175Y-1.95
X7.175Y-2.05
X7.175Y-2.15
X7.175Y-2.25
X7.175Y-2.35
X7.175Y-2.45
X7.175Y-2.55
X7.175Y-2.65
X7.175Y-2.75
X7.175Y-2.85
X7.175Y-2.95
X7.775Y-1.55
X7.775Y-1.65
X7.775Y-1.75
X7.775Y-1.85
X7.775Y-1.95
X7.775Y-2.05
X7.775Y-2.15
X7.775Y-2.25
X7.775Y-2.35
X7.775Y-2.45
X7.775Y-2.55
X7.775Y-2.65
X7.775Y-2.75
X7.775Y-2.85
X7.775Y-2.95
T4
X4.8Y-3.6266
X4.8Y-3.8234
X4.9Y-3.6266
X4.9Y-3.8234
X5.0Y-3.6266
X5.0Y-3.8234
X5.1Y-3.6266
X5.1Y-3.8234
X5.2Y-3.6266
X5.2Y-3.8234
X5.3Y-3.6266
X5.3Y-3.8234
X5.4Y-3.6266
X5.4Y-3.8234
X5.5Y-3.6266
X5.5Y-3.8234
X6.25Y-3.6016
X6.25Y-3.7984
X6.35Y-3.6016
X6.35Y-3.7984
X6.45Y-3.6016
X6.45Y-3.7984
X6.55Y-3.6016
X6.55Y-3.7984
X6.65Y-3.6016
X6.65Y-3.7984
X6.75Y-3.6016
X6.75Y-3.7984
X6.85Y-3.6016
X6.85Y-3.7984
X6.95Y-3.6016
X6.95Y-3.7984
X4.325Y-3.6516
X4.325Y-3.8484
X4.425Y-3.6516
X4.425Y-3.8484
X6.25Y-1.1766
X6.25Y-1.3734
X6.35Y-1.1766
X6.35Y-1.3734
X6.45Y-1.1766
X6.45Y-1.3734
X6.55Y-1.1766
X6.55Y-1.3734
X6.65Y-1.1766
X6.65Y-1.3734
X6.75Y-1.1766
X6.75Y-1.3734
X6.85Y-1.1766
X6.85Y-1.3734
X6.95Y-1.1766
X6.95Y-1.3734
X4.225Y-1.1766
X4.225Y-1.3734
X4.325Y-1.1766
X4.325Y-1.3734
X4.425Y-1.1766
X4.425Y-1.3734
X4.525Y-1.1766
X4.525Y-1.3734
X4.625Y-1.1766
X4.625Y-1.3734
X4.725Y-1.1766
X4.725Y-1.3734
X4.825Y-1.1766
X4.825Y-1.3734
X4.925Y-1.1766
X4.925Y-1.3734
X5.275Y-1.1766
X5.275Y-1.3734
X5.375Y-1.1766
X5.375Y-1.3734
T0
M30
